<?xml version="1.0" encoding="UTF-8" standalone="no"?>
<!-- Created with Inkscape (http://www.inkscape.org/) -->

<svg
   xmlns:dc="http://purl.org/dc/elements/1.1/"
   xmlns:cc="http://creativecommons.org/ns#"
   xmlns:rdf="http://www.w3.org/1999/02/22-rdf-syntax-ns#"
   xmlns:svg="http://www.w3.org/2000/svg"
   xmlns="http://www.w3.org/2000/svg"
   xmlns:sodipodi="http://sodipodi.sourceforge.net/DTD/sodipodi-0.dtd"
   xmlns:inkscape="http://www.inkscape.org/namespaces/inkscape"
   width="16px"
   height="16px"
   id="svg2985"
   version="1.1"
   inkscape:version="0.48.4 r9939"
   sodipodi:docname="3mm.svg">
  <defs
     id="defs2987" />
  <sodipodi:namedview
     id="base"
     pagecolor="#ffffff"
     bordercolor="#666666"
     borderopacity="1.0"
     inkscape:pageopacity="0.0"
     inkscape:pageshadow="2"
     inkscape:zoom="15.696216"
     inkscape:cx="22.146782"
     inkscape:cy="20.978517"
     inkscape:current-layer="layer1"
     showgrid="true"
     inkscape:grid-bbox="true"
     inkscape:document-units="px"
     inkscape:window-width="1535"
     inkscape:window-height="876"
     inkscape:window-x="65"
     inkscape:window-y="24"
     inkscape:window-maximized="1" />
  <metadata
     id="metadata2990">
    <rdf:RDF>
      <cc:Work
         rdf:about="">
        <dc:format>image/svg+xml</dc:format>
        <dc:type
           rdf:resource="http://purl.org/dc/dcmitype/StillImage" />
        <dc:title></dc:title>
      </cc:Work>
    </rdf:RDF>
  </metadata>
  <g
     id="layer1"
     inkscape:label="Layer 1"
     inkscape:groupmode="layer">
    <g
       style="font-size:40px;font-style:normal;font-weight:normal;line-height:125%;letter-spacing:0px;word-spacing:0px;fill:#000000;fill-opacity:1;stroke:none;font-family:Sans"
       id="text9401"
       transform="matrix(0.39226201,0,0,0.39226201,4.8661797,4.8808145)">
      <path
         d="m -7.2335567,5.0286303 -3.2968753,4.8828125 3.2968753,0 0,-4.8828125 m -0.5,-2.4765625 3.34375,0 0,7.359375 1.6640625,0 0,2.1796872 -1.6640625,0 0,2.125 -2.84375,0 0,-2.125 -5.1718753,0 0,-2.5781247 4.6718753,-6.9609375"
         style="font-size:16px;font-weight:bold;-inkscape-font-specification:Sans Bold"
         id="path9546"
         inkscape:connector-curvature="0" />
      <path
         d="m -0.53043175,2.5520678 3.82812505,0 2.65625,6.2421875 2.671875,-6.2421875 3.8203127,0 0,11.6640622 -2.8437502,0 0,-8.5312497 -2.6875,6.2890627 -1.90625,0 -2.6875,-6.2890627 0,8.5312497 -2.85156255,0 0,-11.6640622"
         style="font-size:16px;font-weight:bold;-inkscape-font-specification:Sans Bold"
         id="path9548"
         inkscape:connector-curvature="0" />
      <path
         d="m 15.407068,2.5520678 3.828125,0 2.65625,6.2421875 2.671875,-6.2421875 3.820313,0 0,11.6640622 -2.84375,0 0,-8.5312497 -2.6875,6.2890627 -1.90625,0 -2.6875,-6.2890627 0,8.5312497 -2.851563,0 0,-11.6640622"
         style="font-size:16px;font-weight:bold;-inkscape-font-specification:Sans Bold"
         id="path9550"
         inkscape:connector-curvature="0" />
    </g>
  </g>
</svg>
