<?xml version="1.0" encoding="UTF-8" standalone="no"?>
<!-- Created with Inkscape (http://www.inkscape.org/) -->

<svg
   xmlns:dc="http://purl.org/dc/elements/1.1/"
   xmlns:cc="http://creativecommons.org/ns#"
   xmlns:rdf="http://www.w3.org/1999/02/22-rdf-syntax-ns#"
   xmlns:svg="http://www.w3.org/2000/svg"
   xmlns="http://www.w3.org/2000/svg"
   xmlns:sodipodi="http://sodipodi.sourceforge.net/DTD/sodipodi-0.dtd"
   xmlns:inkscape="http://www.inkscape.org/namespaces/inkscape"
   width="16px"
   height="16px"
   id="svg2985"
   version="1.1"
   inkscape:version="0.48.4 r9939"
   sodipodi:docname="7mm.svg">
  <defs
     id="defs2987" />
  <sodipodi:namedview
     id="base"
     pagecolor="#ffffff"
     bordercolor="#666666"
     borderopacity="1.0"
     inkscape:pageopacity="0.0"
     inkscape:pageshadow="2"
     inkscape:zoom="15.696216"
     inkscape:cx="22.146782"
     inkscape:cy="20.978517"
     inkscape:current-layer="layer1"
     showgrid="true"
     inkscape:grid-bbox="true"
     inkscape:document-units="px"
     inkscape:window-width="1535"
     inkscape:window-height="876"
     inkscape:window-x="65"
     inkscape:window-y="24"
     inkscape:window-maximized="1" />
  <metadata
     id="metadata2990">
    <rdf:RDF>
      <cc:Work
         rdf:about="">
        <dc:format>image/svg+xml</dc:format>
        <dc:type
           rdf:resource="http://purl.org/dc/dcmitype/StillImage" />
        <dc:title></dc:title>
      </cc:Work>
    </rdf:RDF>
  </metadata>
  <g
     id="layer1"
     inkscape:label="Layer 1"
     inkscape:groupmode="layer">
    <g
       style="font-size:40px;font-style:normal;font-weight:normal;line-height:125%;letter-spacing:0px;word-spacing:0px;fill:#000000;fill-opacity:1;stroke:none;font-family:Sans"
       id="text9401"
       transform="matrix(0.39475713,0,0,0.39475713,4.7450597,5.1098885)">
      <path
         d="m -7.4264498,8.9973803 c -0.562505,5.2e-6 -0.9947962,0.1536509 -1.296875,0.4609375 -0.3020873,0.3072961 -0.4531288,0.7474002 -0.453125,1.3203122 -3.8e-6,0.57292 0.1510377,1.013024 0.453125,1.320313 0.3020788,0.302085 0.73437,0.453126 1.296875,0.453125 0.5572856,10e-7 0.9843685,-0.15104 1.28125,-0.453125 0.2968679,-0.307289 0.4453052,-0.747393 0.4453125,-1.320313 -7.3e-6,-0.578121 -0.1484446,-1.0182245 -0.4453125,-1.3203122 -0.2968815,-0.3072866 -0.7239644,-0.4609323 -1.28125,-0.4609375 M -9.6217623,8.0051928 c -0.7083357,-0.2135353 -1.2421897,-0.54166 -1.6015627,-0.984375 -0.359376,-0.4427007 -0.539064,-0.9947835 -0.539062,-1.65625 -2e-6,-0.9843652 0.367186,-1.7343645 1.101562,-2.25 0.7343722,-0.5156134 1.8124961,-0.7734257 3.2343752,-0.7734375 1.4114514,1.18e-5 2.484367,0.2578241 3.21875,0.7734375 0.7343655,0.5104272 1.1015526,1.2604265 1.1015625,2.25 -9.9e-6,0.6614665 -0.1823014,1.2135493 -0.546875,1.65625 -0.359384,0.442715 -0.8932376,0.7708397 -1.6015625,0.984375 0.7916582,0.2187559 1.3880117,0.5755264 1.7890625,1.0703125 0.4062401,0.4895879 0.6093649,1.1093787 0.609375,1.8593747 -1.01e-5,1.156252 -0.3854264,2.031252 -1.15625,2.625 -0.7656332,0.588542 -1.9036529,0.882813 -3.4140625,0.882813 -1.515629,0 -2.6614612,-0.294271 -3.4375002,-0.882813 -0.770834,-0.593748 -1.156251,-1.468748 -1.15625,-2.625 -10e-7,-0.749996 0.20052,-1.3697868 0.601563,-1.8593747 0.406248,-0.4947861 1.005205,-0.8515566 1.7968747,-1.0703125 m 0.703125,-2.3359375 c -4.1e-6,0.4635497 0.1276,0.8203202 0.3828125,1.0703125 0.260412,0.2500072 0.6302033,0.3750071 1.109375,0.375 0.468744,7.1e-6 0.8307228,-0.1249928 1.0859375,-0.375 0.2552014,-0.2499923 0.3828055,-0.6067628 0.3828125,-1.0703125 -7e-6,-0.4635327 -0.1276111,-0.817699 -0.3828125,-1.0625 -0.2552147,-0.2499902 -0.6171935,-0.3749901 -1.0859375,-0.375 -0.4791717,9.9e-6 -0.848963,0.1250098 -1.109375,0.375 -0.2552125,0.2500093 -0.3828166,0.6041756 -0.3828125,1.0625"
         style="font-size:16px;font-weight:bold;-inkscape-font-specification:Sans Bold"
         id="path9650"
         inkscape:connector-curvature="0" />
      <path
         d="m -0.40301228,2.5520678 3.82812498,0 2.65625,6.2421875 2.671875,-6.2421875 3.8203123,0 0,11.6640622 -2.8437498,0 0,-8.5312497 -2.6875,6.2890627 -1.90625,0 -2.6875,-6.2890627 0,8.5312497 -2.85156248,0 0,-11.6640622"
         style="font-size:16px;font-weight:bold;-inkscape-font-specification:Sans Bold"
         id="path9652"
         inkscape:connector-curvature="0" />
      <path
         d="m 15.534488,2.5520678 3.828125,0 2.65625,6.2421875 2.671875,-6.2421875 3.820312,0 0,11.6640622 -2.84375,0 0,-8.5312497 -2.6875,6.2890627 -1.90625,0 -2.6875,-6.2890627 0,8.5312497 -2.851562,0 0,-11.6640622"
         style="font-size:16px;font-weight:bold;-inkscape-font-specification:Sans Bold"
         id="path9654"
         inkscape:connector-curvature="0" />
    </g>
  </g>
</svg>
