<?xml version="1.0" encoding="UTF-8" standalone="no"?>
<!-- Created with Inkscape (http://www.inkscape.org/) -->

<svg
   xmlns:dc="http://purl.org/dc/elements/1.1/"
   xmlns:cc="http://creativecommons.org/ns#"
   xmlns:rdf="http://www.w3.org/1999/02/22-rdf-syntax-ns#"
   xmlns:svg="http://www.w3.org/2000/svg"
   xmlns="http://www.w3.org/2000/svg"
   xmlns:sodipodi="http://sodipodi.sourceforge.net/DTD/sodipodi-0.dtd"
   xmlns:inkscape="http://www.inkscape.org/namespaces/inkscape"
   width="16px"
   height="16px"
   id="svg3121"
   version="1.1"
   inkscape:version="0.48.4 r9939"
   sodipodi:docname="mask.svg">
  <defs
     id="defs3123" />
  <sodipodi:namedview
     id="base"
     pagecolor="#ffffff"
     bordercolor="#666666"
     borderopacity="1.0"
     inkscape:pageopacity="0.0"
     inkscape:pageshadow="2"
     inkscape:zoom="15.696216"
     inkscape:cx="13.449572"
     inkscape:cy="21.263116"
     inkscape:current-layer="layer1"
     showgrid="true"
     inkscape:grid-bbox="true"
     inkscape:document-units="px"
     inkscape:window-width="1394"
     inkscape:window-height="848"
     inkscape:window-x="137"
     inkscape:window-y="24"
     inkscape:window-maximized="0" />
  <metadata
     id="metadata3126">
    <rdf:RDF>
      <cc:Work
         rdf:about="">
        <dc:format>image/svg+xml</dc:format>
        <dc:type
           rdf:resource="http://purl.org/dc/dcmitype/StillImage" />
        <dc:title></dc:title>
      </cc:Work>
    </rdf:RDF>
  </metadata>
  <g
     id="layer1"
     inkscape:label="Layer 1"
     inkscape:groupmode="layer">
    <g
       style="font-size:40px;font-style:normal;font-weight:normal;line-height:125%;letter-spacing:0px;word-spacing:0px;fill:#000000;fill-opacity:1;stroke:none;font-family:Sans"
       id="text3806"
       transform="matrix(0.20979479,0,0,0.20979479,-1.0614162,9.4979418)">
      <path
         d="m 28.869837,-1.7016047 c 0,-2.8799972 -1.560004,-5.160002 -4.84,-7.08 2.879997,-1.8399983 4,-3.5200023 4,-6.0000003 0,-4.119996 -3.440006,-7.68 -9.52,-7.68 l -13.0000003,0 0,29.1600003 13.1200003,0 c 6.799993,0 10.24,-3.6000048 10.24,-8.4 m -6.6,-12.4400003 c 0,2.119998 -1.480003,3.28 -4.24,3.28 l -6.52,0 0,-6.6 6.52,0 c 2.759997,0 4.24,1.160002 4.24,3.32 m 0.84,12.0800003 c 0,2.43999751 -1.520003,3.76 -4.44,3.76 l -7.16,0 0,-7.56 7.16,0 c 2.919997,0 4.44,1.3200024 4.44,3.8"
         style="font-variant:normal;font-weight:bold;font-stretch:normal;font-family:TeX Gyre Heros;-inkscape-font-specification:TeX Gyre Heros Bold"
         id="path3811"
         inkscape:connector-curvature="0" />
      <path
         d="m 56.096087,6.6983953 0,-5 -15.8,0 0,-7.56 13.96,0 0,-5.0000003 -13.96,0 0,-6.6 15.08,0 0,-5 -21.08,0 0,29.1600003 21.8,0"
         style="font-variant:normal;font-weight:bold;font-stretch:normal;font-family:TeX Gyre Heros;-inkscape-font-specification:TeX Gyre Heros Bold"
         id="path3813"
         inkscape:connector-curvature="0" />
      <path
         d="m 81.774837,-17.461605 0,-5 -23.36,0 0,5 8.84,0 0,24.1600003 6,0 0,-24.1600003 8.52,0"
         style="font-variant:normal;font-weight:bold;font-stretch:normal;font-family:TeX Gyre Heros;-inkscape-font-specification:TeX Gyre Heros Bold"
         id="path3815"
         inkscape:connector-curvature="0" />
    </g>
  </g>
</svg>
