<?xml version="1.0" encoding="UTF-8" standalone="no"?>
<!-- Created with Inkscape (http://www.inkscape.org/) -->

<svg
   xmlns:dc="http://purl.org/dc/elements/1.1/"
   xmlns:cc="http://creativecommons.org/ns#"
   xmlns:rdf="http://www.w3.org/1999/02/22-rdf-syntax-ns#"
   xmlns:svg="http://www.w3.org/2000/svg"
   xmlns="http://www.w3.org/2000/svg"
   xmlns:sodipodi="http://sodipodi.sourceforge.net/DTD/sodipodi-0.dtd"
   xmlns:inkscape="http://www.inkscape.org/namespaces/inkscape"
   width="16px"
   height="16px"
   id="svg2985"
   version="1.1"
   inkscape:version="0.48.4 r9939"
   sodipodi:docname="crosshair.svg">
  <defs
     id="defs2987" />
  <sodipodi:namedview
     id="base"
     pagecolor="#ffffff"
     bordercolor="#666666"
     borderopacity="1.0"
     inkscape:pageopacity="0.0"
     inkscape:pageshadow="2"
     inkscape:zoom="15.696216"
     inkscape:cx="22.146782"
     inkscape:cy="20.978517"
     inkscape:current-layer="text9401"
     showgrid="true"
     inkscape:grid-bbox="true"
     inkscape:document-units="px"
     inkscape:window-width="1535"
     inkscape:window-height="876"
     inkscape:window-x="65"
     inkscape:window-y="24"
     inkscape:window-maximized="1" />
  <metadata
     id="metadata2990">
    <rdf:RDF>
      <cc:Work
         rdf:about="">
        <dc:format>image/svg+xml</dc:format>
        <dc:type
           rdf:resource="http://purl.org/dc/dcmitype/StillImage" />
        <dc:title></dc:title>
      </cc:Work>
    </rdf:RDF>
  </metadata>
  <g
     id="layer1"
     inkscape:label="Layer 1"
     inkscape:groupmode="layer">
    <g
       style="font-size:40px;font-style:normal;font-weight:normal;line-height:125%;letter-spacing:0px;word-spacing:0px;fill:#000000;fill-opacity:1;stroke:none;font-family:Sans"
       id="text9401"
       transform="matrix(0.3975927,0,0,0.3975927,4.7700178,4.9324522)">
      <path
         style="fill:#000000;stroke:#000000;stroke-width:2.51513672px;stroke-linecap:butt;stroke-linejoin:miter;stroke-opacity:1"
         d="m 1.0752175,-8.0561436 c -3.0253624,0.8812009 -4.9570671,3.8876488 -5.4489333,6.8750886 -0.4713304,2.6163573 0.2585996,5.6852502 2.5679099,7.2344598 C 1.0488227,8.0342546 4.6495933,9.1285014 8.1234165,8.6079229 10.493402,8.2729769 12.666671,6.6878742 13.537245,4.4314901 15.340962,0.13214768 13.759358,-5.4686841 9.6873806,-7.8807899 7.622386,-9.0647157 5.0723177,-9.2327047 2.7865794,-8.692096 2.1962398,-8.539932 1.6210604,-8.3278843 1.0752175,-8.0561436 z"
         id="path3667"
         inkscape:connector-curvature="0" />
      <path
         style="fill:#000000;stroke:#000000;stroke-width:2.51513672px;stroke-linecap:butt;stroke-linejoin:miter;stroke-opacity:1"
         d="m 16.681225,12.935087 c -3.957047,0.01458 -8.2753209,1.53704 -10.4355783,5.038272 -0.9840596,2.005084 0.3290652,4.492227 2.3534714,5.211374 1.9429509,0.922498 4.1660109,0.584464 6.1330219,-0.05737 2.015411,-0.469712 4.352946,-0.876107 5.659158,-2.649908 1.115091,-2.145729 -0.327748,-4.604514 -1.867628,-6.131017 -0.556257,-0.54034 -1.178848,-1.010804 -1.842445,-1.411349 z"
         id="path3677"
         inkscape:connector-curvature="0" />
    </g>
  </g>
</svg>
