<?xml version="1.0" encoding="UTF-8" standalone="no"?>
<!-- Created with Inkscape (http://www.inkscape.org/) -->

<svg
   xmlns:dc="http://purl.org/dc/elements/1.1/"
   xmlns:cc="http://creativecommons.org/ns#"
   xmlns:rdf="http://www.w3.org/1999/02/22-rdf-syntax-ns#"
   xmlns:svg="http://www.w3.org/2000/svg"
   xmlns="http://www.w3.org/2000/svg"
   xmlns:sodipodi="http://sodipodi.sourceforge.net/DTD/sodipodi-0.dtd"
   xmlns:inkscape="http://www.inkscape.org/namespaces/inkscape"
   width="16px"
   height="16px"
   id="svg2985"
   version="1.1"
   inkscape:version="0.48.4 r9939"
   sodipodi:docname="artifact.svg">
  <defs
     id="defs2987" />
  <sodipodi:namedview
     id="base"
     pagecolor="#ffffff"
     bordercolor="#666666"
     borderopacity="1.0"
     inkscape:pageopacity="0.0"
     inkscape:pageshadow="2"
     inkscape:zoom="31.392433"
     inkscape:cx="10.871828"
     inkscape:cy="11.980171"
     inkscape:current-layer="layer1"
     showgrid="true"
     inkscape:grid-bbox="true"
     inkscape:document-units="px"
     inkscape:window-width="1535"
     inkscape:window-height="876"
     inkscape:window-x="65"
     inkscape:window-y="24"
     inkscape:window-maximized="1" />
  <metadata
     id="metadata2990">
    <rdf:RDF>
      <cc:Work
         rdf:about="">
        <dc:format>image/svg+xml</dc:format>
        <dc:type
           rdf:resource="http://purl.org/dc/dcmitype/StillImage" />
        <dc:title></dc:title>
      </cc:Work>
    </rdf:RDF>
  </metadata>
  <g
     id="layer1"
     inkscape:label="Layer 1"
     inkscape:groupmode="layer">
    <path
       style="fill:#000000;fill-opacity:1;stroke:none"
       d=""
       id="path4700"
       inkscape:connector-curvature="0" />
    <path
       style="fill:#000000;fill-opacity:1;stroke:none"
       d="m 5.7691538,1.2752019 c -0.1732446,0.014938 -0.3694083,0.1244952 -0.6875,0.3125 -0.00894,0.00528 -0.022062,-0.00548 -0.03125,0 -0.023426,0.010191 -0.039726,0.021888 -0.0625,0.03125 -0.015809,0.00962 -0.014718,0.021092 -0.03125,0.03125 -0.040223,0.015933 -0.090673,0.019595 -0.125,0.03125 -0.032009,0.00956 -0.061576,0.027119 -0.09375,0.03125 -0.01997,0.00256 -0.044182,0 -0.0625,0 -0.095665,0 -0.1434548,0.049618 -0.21875,0.09375 -0.019577,0.011474 -0.04415,0.01666 -0.0625,0.03125 -0.055049,0.04377 -0.1111288,0.083453 -0.15625,0.15625 -0.011952,0.019988 -0.020345,0.039632 -0.03125,0.0625 -0.02709,0.050446 -0.069903,0.09365 -0.09375,0.15625 -0.00216,0.0057 -0.07155,-0.00695 -0.15625,-0.03125 -0.13209,-0.038 -0.17669,-0.02445 -0.3125,0.03125 -0.078807,0.032341 -0.151241,0.1112654 -0.1875,0.15625 -0.00379,0.0047 -0.028582,-0.00437 -0.03125,0 -0.0108,0.017725 -0.020713,0.020584 -0.03125,0.03125 -0.010897,0.00595 -0.018378,0.026404 -0.03125,0.03125 -0.026618,0.00937 -0.03784,0.00805 -0.09375,0 -0.2298135,-0.033117 -0.5050189,0.2279617 -0.6875,0.59375 -0.083824,0.1680275 -0.1523972,0.3302147 -0.1875,0.53125 -0.01817,0.10405 -0.038839,0.1760637 -0.0625,0.1875 -0.028302,0.00179 -0.068754,-0.057164 -0.125,-0.09375 -0.01127,-0.00737 -0.019581,0.00831 -0.03125,0 l -0.0625,-0.0625 c -0.026448,-0.011945 -0.064984,-0.03169 -0.09375,-0.03125 -0.00885,1.353e-4 -0.021951,-0.00134 -0.03125,0 l -0.15625,0.09375 c -0.05271,0.028206 -0.082097,0.041845 -0.15625,0.09375 -0.16991,0.11894 -0.22365,0.16858 -0.28125,0.3125 -0.02096,0.052368 -0.018137,0.1048415 -0.03125,0.15625 -0.011474,0.044982 -0.0625,0.1013867 -0.0625,0.125 -0.012136,0.020233 -0.015157,0.041656 -0.03125,0.0625 -0.022315,0.019951 -0.04553,0.070734 -0.09375,0.09375 -0.012095,0.00842 -0.017368,0.022722 -0.03125,0.03125 -0.24805551,0.1260708 -0.34405651,0.225547 -0.62500001,0.84375 -0.1370292,0.301529 -0.19663681,0.5099698 -0.25,0.6875 -0.0736608,0.245057 -0.10818943,0.4477403 -0.09375,0.75 0.03641,0.76347 0.14229998,1.26044 0.3125,1.40625 l 0.09375,0.0625 c 0.002408,0.025223 0.001502,0.043765 -0.03125,0.09375 l -0.0625,0.0625 c -0.006178,0.011734 0.007115,0.017868 0,0.03125 -0.0478959,0.076488 -0.1153835,0.1677155 -0.125,0.25 -0.007724,0.065918 -0.003593,0.1511145 -0.03125,0.21875 -0.009215,0.023687 -0.020263,0.041253 -0.03125,0.0625 -0.063,0.11246 -0.07065,0.12657 -0.03125,0.40625 0.009415,0.066799 0.0200966,0.090387 0.03125,0.15625 0.0313122,0.184903 0.0618667,0.32069 0.09375,0.4375 0.007674,0.033469 0.0256106,0.1056781 0.03125,0.1250001 0.005858,0.0166 -0.005152,0.08341 0,0.09375 0.0222,0.04444 0.0359,0.08175 0,0.15625 -0.00272,0.0106 0.003494,0.02066 0,0.03125 -0.0549932,0.128388 -0.0666849,0.241472 0,0.34375 0.0142048,0.02183 0.0217495,0.08809 0.03125,0.125 0.0163161,0.06339 0.02809,0.108599 0.03125,0.21875 0.00707,0.2616 0.0548,0.50456 0.15625,0.625 0.003021,0.01225 0.0290437,0.0193 0.03125,0.03125 0.006727,0.0417 0.004448,0.0808 0,0.125 -9.677e-4,0.01118 0.00174,0.02015 0,0.03125 -0.0456009,0.128234 -0.0499941,0.205825 0.0625,0.40625 0.0629,0.1121 0.13225,0.2968 0.15625,0.375 0.0169023,0.05502 0.1027589,0.112344 0.15625001,0.1875 0.074442,0.104592 0.1501577,0.190661 0.25,0.28125 0.053461,0.04851 0.1071518,0.125334 0.15625,0.15625 0.1041032,0.0656 0.2393284,0.06558 0.375,0.0625 l 0.0625,0 c 0.063463,0.0066 0.111071,0.01455 0.125,0.03125 0.0096,0.02209 0.02625,0.07197 0.03125,0.125 l 0.03125,0.0625 c 0.023528,0.167425 0.063608,0.228931 0.1875,0.28125 0.015441,0.0065 0.013155,0.02479 0.03125,0.03125 0.07099,0.02534 0.117995,0.06109 0.15625,0.09375 0.024916,0.0214 0.036646,0.03842 0.0625,0.0625 0.014624,0.02118 0.01541,0.03344 0.03125,0.0625 0.01965,0.01939 0.04411,0.0118 0.0625,0.03125 0.00559,0.0061 -0.00537,0.02519 0,0.03125 0.063242,0.07133 0.138507,0.111988 0.1875,0.15625 0.064072,0.05307 0.092649,0.0919 0.15625,0.125 0.059938,0.03119 0.114833,0.09375 0.15625,0.09375 0.05038,0 0.25858,0.04255 0.4375,0.09375 0.17892,0.05118 0.41696,0.1073 0.5625,0.125 l 0.03125,0 c 0.2403798,0.02919 0.4462489,5.99e-4 0.59375,-0.03125 l 0.0625,0 c 0.0099,-0.0033 0.022966,-0.02761 0.03125,-0.03125 l 0.03125,0 c 0.04124,-0.02364 0.23191,-0.17116 0.40625,-0.34375 0.1845178,-0.182665 0.266463,-0.339299 0.34375,-0.46875 0.013086,-0.01836 0.045855,-0.04084 0.0625,-0.0625 0.00701,-0.01411 0.024051,-0.01797 0.03125,-0.03125 0.035889,-0.04579 0.050203,-0.104257 0.09375,-0.15625 0.010894,-0.0127 0.020185,-0.01859 0.03125,-0.03125 0.037738,-0.04444 0.087682,-0.05194 0.125,-0.09375 0.023496,-0.01709 0.03392,-0.06783 0.0625,-0.09375 0.07919,-0.07182 0.1588633,-0.138715 0.21875,-0.21875 0.3336349,-0.44622 0.4222857,-0.615526 0.46875,-0.71875 0.013614,-0.02195 0.018303,-0.04099 0.03125,-0.0625 0.00425,-0.0096 0.025734,-0.01997 0.03125,-0.03125 0.0119,-0.06583 0.05915,-0.13025 0.09375,-0.15625 0.028926,-0.02176 0.039079,-0.08736 0.0625,-0.125 0.030623,-0.04921 0.0472,-0.094 0.0625,-0.15625 0.00918,-0.02967 0.029021,-0.07187 0.03125,-0.09375 0,-0.01376 -7.297e-4,-0.01903 0,-0.03125 1.05e-4,-0.06708 0.00642,-0.09999 0.03125,-0.125 0.013944,-0.01518 0.043448,-0.02105 0.0625,-0.03125 0.00668,-0.0032 0.023035,0.0033 0.03125,0 0.059824,-0.02174 0.3556654,-0.0509 0.65625,-0.0625 0.1779201,0.01877 0.355132,0.02024 0.53125,0 0.2418164,7.89e-4 0.5326815,0.01492 0.59375,0.03125 l 0.03125,0 c 0.031573,0.01208 0.073134,0.03415 0.09375,0.0625 0.00442,0.0061 -0.00411,0.02412 0,0.03125 0.00438,0.009 -0.00378,0.02105 0,0.03125 l 0.03125,0.0625 0,0.03125 c 0.01649,0.14214 0.0498,0.2271 0.125,0.3125 0.00735,0.01476 0.023407,0.01608 0.03125,0.03125 0.048666,0.06589 0.074115,0.15041 0.09375,0.21875 0.023119,0.08042 0.09645,0.21085 0.15625,0.28125 0.10095,0.11888 0.15159,0.20567 0.40625,0.5625 0.05217,0.0731 0.1741002,0.16475 0.2500002,0.21875 0.01735,0.01234 0.04566,0.01751 0.0625,0.03125 0.02807,0.02291 0.03641,0.06765 0.0625,0.09375 0.01565,0.01566 0.0165,0.04594 0.03125,0.0625 0.01461,0.01781 0.04767,0.0121 0.0625,0.03125 0.0055,0.0071 -0.0055,0.024 0,0.03125 0.01569,0.02017 0.01571,0.04146 0.03125,0.0625 0.03533,0.05475 0.07311,0.101188 0.09375,0.15625 0.03012,0.08032 0.207204,0.215894 0.375,0.375 0.202512,0.192025 0.430297,0.408297 0.53125,0.4375 0.19612,0.05674 0.76752,-0.004 1.1875,-0.125 0.17777,-0.0512 0.35015,-0.09368 0.40625,-0.09375 0.029,-4.4e-5 0.08563,-0.04541 0.125,-0.0625 0.0998,-0.04331 0.184623,-0.120157 0.28125,-0.21875 0.01794,-0.01817 0.04603,-0.0425 0.0625,-0.0625 0.02395,-0.02458 0.03733,-0.03795 0.0625,-0.0625 0.0071,-0.01132 0.02557,-0.02025 0.03125,-0.03125 0.08236,-0.07851 0.162079,-0.14374 0.21875,-0.1875 0.19365,-0.05602 0.25315,-0.13334 0.28125,-0.375 0.0049,-0.04244 -0.0047,-0.06703 0,-0.09375 0.0018,-0.01039 0.02934,-0.02295 0.03125,-0.03125 0.0016,-0.0071 -0.0017,-0.02557 0,-0.03125 0.02038,-0.01524 0.07573,-0.0276 0.125,-0.03125 0.113849,0.03164 0.218309,-0.0077 0.34375,-0.0625 0.104083,-0.04548 0.224482,-0.08021 0.34375,-0.1875 0.13236,-0.11907 0.20999,-0.24105 0.375,-0.59375 0.164296,-0.351195 0.174745,-0.481391 0.15625,-0.59375 -0.0011,-0.009 6.21e-4,-0.02213 0,-0.03125 0,-0.01062 -4.62e-4,-0.02013 0,-0.03125 -1.23e-4,-0.0092 -3.73e-4,-0.02194 0,-0.03125 0.0046,-0.05937 0.01782,-0.10187 0.03125,-0.15625 0.0031,-0.0098 -0.0036,-0.02144 0,-0.03125 0.0062,-0.02136 0.02427,-0.04577 0.03125,-0.0625 0.07488,-0.148692 0.17255,-0.39086 0.15625,-0.53125 -0.01,-0.08605 -0.0095,-0.19395 0.03125,-0.28125 0.07058,-0.151635 0.05193,-0.252969 0,-0.375 -0.0042,-0.0099 0.005,-0.02087 0,-0.03125 0.0025,-0.05695 0.02235,-0.141264 0.03125,-0.21875 0.05078,-0.130442 0.104666,-0.6779165 0.125,-0.9062501 0.0022,-0.024327 0.03125,-0.078217 0.03125,-0.09375 0,-0.04999 -0.0157,-0.15285 -0.0625,-0.21875 -0.0515,-0.07245 -0.09375,-0.1763 -0.09375,-0.25 0,-0.07107 -0.04215,-0.1684 -0.09375,-0.25 l -0.0625,-0.125 -0.03125,-0.03125 0.125,-0.09375 c 0.105006,-0.1164094 0.138557,-0.3190474 0.1875,-0.59375 0.01651,-0.092671 0.04782,-0.1556057 0.0625,-0.28125 0.0063,-0.053648 -0.0051,-0.075631 0,-0.125 0.05632,-0.5471732 0.06601,-0.865567 -0.03125,-1.15625 -0.02079,-0.062124 -0.0907,-0.1651652 -0.125,-0.25 -0.118228,-0.2923885 -0.251914,-0.584026 -0.375,-0.8125 -0.04177,-0.077527 -0.101283,-0.2197194 -0.125,-0.25 -0.04908,-0.06268 -0.1504,-0.1351 -0.25,-0.1875 -0.08604,-0.045225 -0.129641,-0.090394 -0.15625,-0.125 -0.02661,-0.034606 -0.0523,-0.07633 -0.0625,-0.15625 -0.02557,-0.2004 -0.13466,-0.37668 -0.34375,-0.53125 -0.120933,-0.089389 -0.223746,-0.1076759 -0.3125,-0.125 -0.126407,-0.024674 -0.220714,0.00348 -0.28125,0.125 -0.02992,0.018078 -0.04972,0.064173 -0.0625,0.0625 -0.01321,-0.021351 -0.04194,-0.1025265 -0.0625,-0.21875 -0.0265,-0.1500815 -0.124174,-0.3585427 -0.21875,-0.5625 -0.06569,-0.1416576 -0.138094,-0.2903192 -0.1875,-0.34375 -0.13272,-0.14357 -0.33636,-0.24185 -0.46875,-0.21875 -0.02604,0.00455 -0.04407,-2.56e-5 -0.0625,0 -0.05383,-0.01293 -0.102213,-0.035021 -0.125,-0.0625 -0.0072,-0.00872 -0.02259,-0.022988 -0.03125,-0.03125 -0.120266,-0.1535363 -0.321608,-0.1860668 -0.53125,-0.125 -0.0319,0.00106 -0.06918,-0.016357 -0.09375,-0.03125 -0.008,-0.00484 -0.02312,-0.024167 -0.03125,-0.03125 -0.02466,-0.1046 -0.26736,-0.36225 -0.375,-0.40625 -0.0439,-0.0179 -0.1116,-0.03125 -0.1875,-0.03125 -0.02163,-0.00752 -0.06815,0.00979 -0.09375,0 -0.02086,-0.00798 -0.03967,-0.022036 -0.0625,-0.03125 -0.05525,-0.02163 -0.14458,-0.04535 -0.21875,-0.09375 -0.03674,-0.023978 -0.05867,-0.041417 -0.09375,-0.0625 -0.17542,-0.1054163 -0.329557,-0.1844104 -0.46875,-0.21875 -0.156001,-0.038486 -0.284136,-0.016702 -0.40625,0.03125 -0.0086,0.00339 -0.02275,-0.00381 -0.03125,0 -0.079379,0.0359 -0.1850402,0.04535 -0.3125002,0.03125 -0.097837,-0.010825 -0.189337,0.0103 -0.28125,0.03125 -0.030357,0.00692 -0.06251,-0.010552 -0.09375,0 -0.021293,0.00719 -0.014234,0.025825 -0.03125,0.03125 -0.024308,0.00775 -0.044296,-0.00404 -0.0625,0 -0.028203,0.00107 -0.065394,0.00202 -0.09375,0 -0.04259,-0.00304 -0.076574,-0.021059 -0.125,-0.03125 -0.010079,-0.0024 -0.021038,0.00292 -0.03125,0 -0.00841,-0.0041 -0.02186,0.00393 -0.03125,0 -0.08451,-0.035378 -0.17332,-0.093354 -0.25,-0.09375 -0.052646,-2.742e-4 -0.1252061,0.043035 -0.1875,0.0625 -0.080042,0.02501 -0.1489506,0.04936 -0.21875,0.09375 -0.036479,0.024154 -0.060955,0.06203 -0.09375,0.09375 -0.01911,0.018187 -0.049921,0.044192 -0.0625,0.0625 -0.00335,0.00488 -0.028429,-0.00486 -0.03125,0 l -0.0625,0.09375 c -0.00451,0.00714 -0.03195,-0.0494 -0.09375,-0.125 -0.083637,-0.1023308 -0.2004947,-0.1425674 -0.3125,-0.1875 -0.1711541,-0.068661 -0.3647741,-0.081584 -0.53125,0 -0.00857,0.0042 -0.022813,-0.00462 -0.03125,0 -0.00846,0.00176 -0.022612,-0.00148 -0.03125,0 -0.06738,0.015958 -0.195216,0.011983 -0.34375,0 -0.028413,-0.00509 -0.059527,0.00391 -0.09375,0 -0.011047,-0.00118 -0.019661,0.00131 -0.03125,0 -0.060866,-0.00588 -0.094649,-0.030871 -0.15625,-0.03125 -0.17882,-0.0011 -0.3242,-0.0316 -0.375,-0.0625 -0.05548,-0.0341 -0.1413,-0.04335 -0.28125,-0.03125 z m 2.25,3.28125 0.03125,0 0.0625,0.0625 c 0.00708,0.013759 0.025707,0.015475 0.03125,0.03125 0.00346,0.00986 -0.00277,0.020952 0,0.03125 0.015693,0.058354 0.01437,0.1126131 0,0.15625 -0.010061,0.019514 -0.010625,0.03592 -0.03125,0.0625 -0.058868,0.06393 -0.108675,0.057648 -0.15625,-0.03125 -0.030044,-0.056138 -0.02379,-0.1427555 0,-0.21875 0.02454,-0.059233 0.041005,-0.076971 0.0625,-0.09375 z m 0.03125,1.03125 0.0625,0.09375 0,0.03125 c 0.031035,0.053959 0.055977,0.095477 0.0625,0.125 9.812e-4,0.011283 -1.674e-4,0.020101 0,0.03125 0.00204,0.03517 -0.0016,0.05435 -0.03125,0.125 -0.028914,0.08179 -0.059871,0.1230743 -0.09375,0.125 -0.011293,6.419e-4 -0.01988,-0.022991 -0.03125,-0.03125 -0.037195,-0.057073 -0.081141,-0.1603755 -0.09375,-0.21875 -0.00154,-0.00712 0,-0.026612 0,-0.03125 0.00108,-0.030722 0.023292,-0.06367 0.03125,-0.09375 0.00879,-0.017994 0.02069,-0.01262 0.03125,-0.03125 l 0.0625,-0.125 z m -0.03125,0.875 c 0.014845,-0.00422 0.047643,-0.00698 0.0625,0 0.041937,0.042847 0.1295147,0.2166618 0.15625,0.28125 -0.023198,0.012613 -0.08041,0.03125 -0.1875,0.03125 -0.093391,0 -0.1534832,-0.022877 -0.1875,-0.03125 0.010445,-0.024104 0.011376,-0.059041 0.03125,-0.09375 0.046373,-0.080989 0.098443,-0.1599193 0.125,-0.1875 z m -1.875,0.53125 c 0.00521,0.00169 0.025436,-0.00224 0.03125,0 0.026055,0.00594 0.056605,0.044759 0.09375,0.0625 0.096364,0.051568 0.2157457,0.1275901 0.28125,0.1875 0.01042,0.00953 0.1171589,0.040169 0.15625,0.0625 0.1013333,0.057888 0.1820167,0.1279195 0.375,0.21875 0.27244,0.12823 0.47575,0.25825 0.46875,0.28125 -0.00874,0.014143 -0.059993,0.027584 -0.09375,0.03125 -0.029578,5.769e-4 -0.062114,0.00964 -0.09375,0 -0.0232,-0.00707 -0.042235,-0.0186 -0.0625,-0.03125 -0.04678,-0.0292 -0.13955,-0.06179 -0.21875,-0.0625 -0.00766,-6.9e-5 -0.023208,7.405e-4 -0.03125,0 -0.073989,-0.00681 -0.1593252,-0.040421 -0.25,-0.09375 -0.00979,-0.00615 -0.021197,-0.024457 -0.03125,-0.03125 -0.1143537,-0.074108 -0.230225,-0.17117 -0.3125,-0.28125 -0.053492,-0.071575 -0.1504808,-0.141357 -0.21875,-0.1875 -0.010449,-0.00706 -0.021931,-0.026139 -0.03125,-0.03125 -0.019572,-0.010742 -0.015906,-0.020534 -0.03125,-0.03125 -0.01508,-0.018609 0.00937,-0.017003 0,-0.03125 -0.021873,-0.033244 -0.05021,-0.0625 -0.03125,-0.0625 z m 3.71875,0.03125 c 0.019779,-0.00136 0.013625,0.00603 0,0.03125 -0.00867,0.012704 0.013912,0.014593 0,0.03125 -0.00725,0.011793 -0.049442,0.046182 -0.0625,0.0625 -0.017761,0.020855 -0.037081,0.036053 -0.0625,0.0625 -0.00941,0.01038 -0.020411,0.019775 -0.03125,0.03125 -0.021518,0.021393 -0.039098,0.040249 -0.0625,0.0625 -0.020167,0.020092 -0.039264,0.00885 -0.0625,0.03125 -0.03161,0.045939 -0.100825,0.1081843 -0.15625,0.15625 -0.057308,0.046557 -0.1128608,0.097185 -0.15625,0.125 -0.1211362,0.078664 -0.2379498,0.125 -0.3125,0.125 -0.005,0.00171 0.00512,0.029516 0,0.03125 -0.011266,0.00382 -0.019359,-0.00394 -0.03125,0 -0.034424,0.011445 -0.05282,0.018419 -0.09375,0.03125 -0.045194,0.013096 -0.089808,0.011976 -0.125,0.03125 -0.042992,0.023566 -0.066924,0.018517 -0.09375,0.03125 -0.018098,0.00369 -0.048965,0.029907 -0.0625,0.03125 -0.00968,-0.00283 -0.023076,0.00307 -0.03125,0 -0.024521,-0.00921 -0.020338,-0.051089 -0.03125,-0.0625 0.00953,-0.019532 0.078008,-0.089857 0.125,-0.125 0.026232,-0.019141 0.019329,-0.035763 0.0625,-0.0625 0.025033,-0.01201 0.00772,-0.019934 0.03125,-0.03125 0.011231,-0.00664 0.050338,-0.024168 0.0625,-0.03125 0.1188624,-0.057464 0.1369862,-0.052699 0.21875,-0.09375 0.045637,-0.024626 0.039473,-0.033373 0.09375,-0.0625 0.1729202,-0.089793 0.43156,-0.2087386 0.53125,-0.28125 0.015915,-0.011582 0.015242,-0.020721 0.03125,-0.03125 0.053359,-0.035095 0.085144,-0.046448 0.125,-0.0625 0.027899,-0.011236 0.08178,-0.03405 0.09375,-0.03125 z"
       id="path8097"
       inkscape:connector-curvature="0" />
  </g>
</svg>
