<?xml version="1.0" encoding="UTF-8" standalone="no"?>
<!-- Created with Inkscape (http://www.inkscape.org/) -->

<svg
   xmlns:dc="http://purl.org/dc/elements/1.1/"
   xmlns:cc="http://creativecommons.org/ns#"
   xmlns:rdf="http://www.w3.org/1999/02/22-rdf-syntax-ns#"
   xmlns:svg="http://www.w3.org/2000/svg"
   xmlns="http://www.w3.org/2000/svg"
   xmlns:sodipodi="http://sodipodi.sourceforge.net/DTD/sodipodi-0.dtd"
   xmlns:inkscape="http://www.inkscape.org/namespaces/inkscape"
   width="16px"
   height="16px"
   id="svg3121"
   version="1.1"
   inkscape:version="0.48.4 r9939"
   sodipodi:docname="bedpostx.svg">
  <defs
     id="defs3123" />
  <sodipodi:namedview
     id="base"
     pagecolor="#ffffff"
     bordercolor="#666666"
     borderopacity="1.0"
     inkscape:pageopacity="0.0"
     inkscape:pageshadow="2"
     inkscape:zoom="7.8481082"
     inkscape:cx="41.573495"
     inkscape:cy="21.263116"
     inkscape:current-layer="g4547"
     showgrid="true"
     inkscape:grid-bbox="true"
     inkscape:document-units="px"
     inkscape:window-width="1394"
     inkscape:window-height="848"
     inkscape:window-x="137"
     inkscape:window-y="24"
     inkscape:window-maximized="0" />
  <metadata
     id="metadata3126">
    <rdf:RDF>
      <cc:Work
         rdf:about="">
        <dc:format>image/svg+xml</dc:format>
        <dc:type
           rdf:resource="http://purl.org/dc/dcmitype/StillImage" />
        <dc:title></dc:title>
      </cc:Work>
    </rdf:RDF>
  </metadata>
  <g
     id="layer1"
     inkscape:label="Layer 1"
     inkscape:groupmode="layer">
    <g
       id="g3847"
       transform="translate(85.880572,7.8999927)">
      <path
         style="fill:#000000;fill-opacity:1;stroke:none"
         d=""
         id="path4217"
         inkscape:connector-curvature="0"
         transform="translate(-85.880572,-7.8999927)" />
      <path
         style="fill:#000000;fill-opacity:1;stroke:none"
         d=""
         id="path4219"
         inkscape:connector-curvature="0"
         transform="translate(-85.880572,-7.8999927)" />
      <path
         style="fill:#000000;fill-opacity:1;stroke:none"
         d=""
         id="path4221"
         inkscape:connector-curvature="0"
         transform="translate(-85.880572,-7.8999927)" />
      <path
         style="fill:#000000;fill-opacity:1;stroke:none"
         d=""
         id="path4223"
         inkscape:connector-curvature="0"
         transform="translate(-85.880572,-7.8999927)" />
      <g
         id="g4547"
         transform="translate(-731.89613,20.896756)">
        <path
           style="fill:#000000"
           d="m 657.90959,-14.30842 c -0.085,-0.105837 -0.22061,-0.226545 -0.30124,-0.268241 -0.13355,-0.06906 -0.15411,-0.06901 -0.231,5.68e-4 -0.076,0.06882 -0.10165,0.06917 -0.25882,0.0035 -0.0959,-0.04008 -0.21302,-0.07308 -0.2602,-0.07332 -0.0472,-2.41e-4 -0.19358,-0.05264 -0.32533,-0.116435 -0.13176,-0.0638 -0.25556,-0.106102 -0.27513,-0.09401 -0.0196,0.01209 -0.12506,-0.02366 -0.23443,-0.07946 -0.10937,-0.0558 -0.20865,-0.09165 -0.22063,-0.07967 -0.012,0.01198 -0.0268,0.100433 -0.033,0.196571 -0.0127,0.198258 -0.0815,0.236194 -0.15192,0.08375 -0.0599,-0.129677 -0.12247,-0.131528 -0.15566,-0.0046 -0.0378,0.144522 -0.13649,0.0843 -0.11759,-0.07174 0.0105,-0.08698 -0.002,-0.122305 -0.0361,-0.101263 -0.0288,0.01777 -0.0523,0.07564 -0.0523,0.128586 0,0.05602 -0.0215,0.08298 -0.0514,0.06449 -0.0283,-0.01748 -0.0411,-0.05863 -0.0285,-0.09144 0.0126,-0.03282 0.003,-0.09019 -0.0208,-0.127502 -0.0374,-0.05812 -0.0501,-0.05786 -0.0885,0.0019 -0.036,0.056 -0.0564,0.04419 -0.10399,-0.06017 -0.0757,-0.166105 -0.12953,-0.165197 -0.14882,0.0025 -0.0113,0.09863 -0.0454,0.136631 -0.13369,0.149082 -0.0652,0.0092 -0.1421,0.04905 -0.171,0.08858 -0.0824,0.112758 -0.17188,-0.03023 -0.17609,-0.281568 -0.005,-0.326908 -0.026,-0.36275 -0.22565,-0.39468 -0.27542,-0.04404 -0.4931,-0.345403 -0.55692,-0.771014 -0.0361,-0.241003 -0.0974,-0.275385 -0.42439,-0.23807 -0.33187,0.03788 -0.46852,0.111393 -0.55668,0.29949 -0.0551,0.117467 -0.14618,0.204631 -0.28236,0.270073 -0.1106,0.05315 -0.25279,0.145203 -0.31598,0.204573 -0.0632,0.05937 -0.15743,0.107946 -0.2094,0.107946 -0.052,0 -0.14263,0.03372 -0.20147,0.07493 -0.0856,0.05996 -0.10698,0.06184 -0.10698,0.0094 0,-0.03602 0.15704,-0.183461 0.34898,-0.32764 0.36628,-0.275139 0.41073,-0.319709 0.54529,-0.546722 l 0.0831,-0.140173 -0.23597,0.174727 c -0.64223,0.475546 -0.60883,0.457976 -0.87376,0.459584 -0.18589,0.0011 -0.2527,-0.01638 -0.2527,-0.06622 0,-0.03726 -0.0408,-0.08957 -0.0906,-0.116242 -0.0587,-0.03141 -0.10226,-0.126224 -0.12371,-0.269239 -0.0187,-0.124871 -0.0638,-0.232525 -0.10375,-0.24786 -0.057,-0.02186 -0.28081,0.04571 -0.56018,0.1691 -0.02,0.0088 -0.0363,-0.0578 -0.0363,-0.148047 0,-0.195785 0.13262,-0.33464 0.40206,-0.420986 0.16896,-0.05414 0.1787,-0.06619 0.10947,-0.135422 -0.0692,-0.06923 -0.0989,-0.06875 -0.33409,0.0054 -0.14196,0.04475 -0.29145,0.08136 -0.33221,0.08136 -0.0408,0 -0.10108,0.03249 -0.13404,0.0722 -0.0822,0.09902 -0.19786,0.09396 -0.15914,-0.007 0.0184,-0.04803 -0.004,-0.104024 -0.0561,-0.142369 -0.0717,-0.05243 -0.11442,-0.05151 -0.2506,0.0054 -0.14485,0.06052 -0.16751,0.0599 -0.19252,-0.0053 -0.0156,-0.04063 -0.004,-0.0984 0.0262,-0.128392 0.1052,-0.105195 0.062,-0.326248 -0.0899,-0.45948 -0.1401,-0.122938 -0.19564,-0.297815 -0.0946,-0.297815 0.0274,0 0.10377,0.03535 0.16971,0.07855 0.11189,0.07331 0.12634,0.0727 0.21686,-0.0092 0.0869,-0.07865 0.12555,-0.08191 0.37181,-0.03139 0.29059,0.05962 0.5078,0.03406 0.47678,-0.05609 -0.0104,-0.03009 -0.12323,-0.05404 -0.25468,-0.05404 -0.31669,0 -0.34887,-0.08957 -0.0435,-0.121195 0.13237,-0.01371 0.26687,-0.04152 0.29888,-0.0618 0.032,-0.02028 0.10143,-0.0099 0.15425,0.0231 0.14178,0.08854 0.1712,0.01837 0.0575,-0.137168 -0.0547,-0.07489 -0.12926,-0.279768 -0.16562,-0.455296 -0.0364,-0.175527 -0.11456,-0.41921 -0.17377,-0.541517 -0.15427,-0.318681 -0.30038,-0.29235 -0.5465,0.09849 -0.0694,0.11029 -0.15026,0.215348 -0.17957,0.233461 -0.0835,0.0516 -0.11541,-0.01447 -0.0469,-0.09704 0.0931,-0.112155 0.0272,-0.136897 -0.13754,-0.05168 -0.18311,0.09469 -0.48821,0.101573 -0.48821,0.01101 0,-0.121605 -0.17352,-0.221786 -0.72456,-0.418325 -0.36846,-0.131421 -0.59617,-0.187749 -0.68732,-0.170024 -0.26445,0.05142 -0.42727,-0.14614 -0.2247,-0.272642 0.13413,-0.08377 0.12296,-0.114204 -0.0948,-0.258324 -0.14135,-0.09354 -0.23532,-0.121292 -0.36102,-0.106619 -0.17993,0.02101 -0.20625,-0.0015 -0.11196,-0.09581 0.0452,-0.04519 0.0134,-0.103388 -0.1444,-0.264157 -0.31014,-0.316006 -0.24495,-0.440661 0.10593,-0.202552 0.0975,0.06619 0.23051,0.120337 0.29552,0.120337 0.28012,0 0.0462,-0.389981 -0.35979,-0.599949 -0.0906,-0.04683 -0.15124,-0.124603 -0.1724,-0.220948 -0.0432,-0.196591 -0.002,-0.226531 0.17053,-0.124515 0.1737,0.102609 0.19525,0.02056 0.0384,-0.146364 -0.15904,-0.169285 -0.0779,-0.179409 0.12776,-0.01595 0.17197,0.136664 0.40993,0.196122 0.40993,0.102427 0,-0.02343 -0.0541,-0.07808 -0.12033,-0.121447 -0.16616,-0.108869 -0.15052,-0.172898 0.0422,-0.172898 0.20979,0 0.2948,-0.09414 0.19914,-0.220556 -0.0384,-0.05078 -0.0712,-0.135642 -0.0729,-0.188591 -0.002,-0.05295 -0.0349,-0.138316 -0.0737,-0.189705 -0.0757,-0.100069 -0.098,-0.53381 -0.0296,-0.576063 0.0696,-0.04299 0.36166,0.453466 0.48846,0.830177 0.1113,0.3307 0.13653,0.366081 0.3362,0.471471 0.14791,0.07808 0.29564,0.113941 0.46931,0.113941 0.24184,0 0.33751,-0.06703 0.18125,-0.126997 -0.16298,-0.06254 6.4e-4,-0.253831 0.21944,-0.256551 0.16796,-0.0021 0.30926,-0.112102 0.27124,-0.211177 -0.0311,-0.08108 -0.2137,-0.109011 -0.57491,-0.08794 -0.18248,0.01064 -0.24453,-0.05262 -0.10437,-0.106406 0.0419,-0.01607 0.17184,-0.02922 0.28881,-0.02922 0.11697,0 0.21267,-0.01239 0.21267,-0.02753 0,-0.05203 -0.25674,-0.477965 -0.35333,-0.58619 -0.0682,-0.07638 -0.15062,-0.108304 -0.27971,-0.108304 -0.24775,0 -0.37108,-0.168879 -0.28141,-0.385363 0.0805,-0.194256 0.20542,-0.200695 0.13224,-0.0068 -0.079,0.209436 -0.0219,0.295907 0.19562,0.295907 0.12499,0 0.21514,-0.03154 0.27307,-0.09555 0.0821,-0.09074 0.0824,-0.108521 0.006,-0.352591 -0.0581,-0.184651 -0.14811,-0.323286 -0.3197,-0.492287 -0.25166,-0.247877 -0.29789,-0.359208 -0.14916,-0.359208 0.0829,0 0.41101,0.323978 0.58695,0.579487 l 0.0749,0.108834 0.0935,-0.145755 c 0.13072,-0.203706 0.44459,-0.542566 0.50255,-0.542566 0.0626,0 0.0627,0.129806 1.5e-4,0.168472 -0.0265,0.01636 -0.0481,0.04828 -0.0481,0.07093 0,0.04781 0.43787,0.301466 0.46814,0.271195 0.0112,-0.01116 0.0257,-0.184598 0.0324,-0.385413 0.007,-0.200815 0.0267,-0.379724 0.0446,-0.397577 0.0178,-0.01785 0.0325,-0.07922 0.0325,-0.136383 0,-0.09149 0.17692,-0.313245 0.2499,-0.313245 0.0149,0 0.0158,0.09989 0.002,0.221974 -0.0233,0.206521 -0.0187,0.218511 0.0661,0.172217 0.1668,-0.0911 0.47872,-0.42394 0.66689,-0.711618 0.10227,-0.156342 0.19181,-0.291843 0.19899,-0.301113 0.007,-0.0093 0.0373,-0.0018 0.067,0.01649 0.0383,0.02364 0.0322,0.06657 -0.0209,0.147532 -0.0412,0.0628 -0.0748,0.137887 -0.0748,0.166855 0,0.09759 0.0872,-2.41e-4 0.19058,-0.21372 0.10403,-0.214891 0.21509,-0.304144 0.26931,-0.216422 0.0164,0.02648 -0.002,0.09641 -0.0405,0.155387 -0.16282,0.248487 -0.13618,0.706822 0.0411,0.706822 0.12666,0 0.28395,-0.250912 0.30861,-0.492303 0.0138,-0.135393 0.0501,-0.254392 0.0806,-0.264444 0.0732,-0.02412 0.20931,0.253748 0.20931,0.427198 0,0.234138 0.0856,0.150309 0.11815,-0.115699 0.0528,-0.431614 0.13333,-0.661855 0.23148,-0.661855 0.0725,0 0.0833,0.0274 0.0616,0.156439 -0.0203,0.120179 7.8e-4,0.189125 0.0908,0.297463 0.0996,0.119873 0.12847,0.131623 0.19267,0.07834 0.0415,-0.03448 0.0762,-0.108767 0.0771,-0.165092 0.002,-0.112489 0.15264,-0.319017 0.23306,-0.319017 0.0279,0 0.0739,-0.04332 0.10228,-0.09627 0.0621,-0.116066 0.21914,-0.126214 0.27965,-0.01808 0.0478,0.08541 0.0234,0.110263 0.34542,-0.351115 0.15626,-0.223848 0.25279,-0.232739 0.43389,-0.03996 0.0816,0.08684 0.0938,0.131317 0.0556,0.202633 -0.0319,0.05968 -0.0326,0.115517 -0.002,0.16098 0.0388,0.05757 0.0611,0.04914 0.12901,-0.04874 0.14776,-0.212959 0.31023,-0.391608 0.33427,-0.367565 0.013,0.01296 -0.0774,0.168054 -0.20088,0.344648 -0.12344,0.176593 -0.21469,0.330831 -0.20277,0.34275 0.0119,0.01192 0.0997,-0.09352 0.19506,-0.234311 0.3318,-0.489849 0.35473,-0.50464 0.44967,-0.290139 0.13704,0.309575 0.15554,0.820675 0.0433,1.196428 -0.0411,0.137621 0.0337,0.608417 0.10025,0.630499 0.0326,0.01081 0.0946,-0.05459 0.13787,-0.145335 0.0718,-0.150558 0.0722,-0.187728 0.004,-0.424866 -0.0726,-0.253436 -0.0635,-0.499991 0.0203,-0.551776 0.0358,-0.02211 0.20647,0.206602 0.2497,0.334562 0.008,0.02346 0.0567,0.01963 0.10849,-0.0085 0.0517,-0.02815 0.13199,-0.06291 0.17832,-0.07725 0.11274,-0.03489 0.10746,-0.237987 -0.0131,-0.503663 -0.10362,-0.228351 -0.11635,-0.295587 -0.056,-0.295587 0.0216,0 0.0762,0.07747 0.12132,0.172157 0.10079,0.211369 0.19045,0.192335 0.22964,-0.04875 0.0441,-0.271041 0.13402,-0.299416 0.31927,-0.100698 0.0988,0.105952 0.1832,0.156749 0.23043,0.138627 0.041,-0.01573 0.11164,0.0047 0.15698,0.04534 0.0453,0.04067 0.15826,0.09432 0.25092,0.119227 0.0927,0.02491 0.16473,0.06506 0.16015,0.08923 -0.005,0.02417 -0.0232,0.10311 -0.0413,0.17542 -0.0257,0.102391 -0.0159,0.131474 0.0444,0.131474 0.0564,0 0.0774,0.04576 0.0774,0.168472 0,0.117663 0.0218,0.168472 0.0722,0.168472 0.0936,0 0.0926,-0.154634 -0.003,-0.477438 -0.10605,-0.357116 -0.076,-0.40654 0.22969,-0.377172 0.18538,0.01781 0.27233,0.05292 0.34096,0.137673 0.0936,0.115571 0.0939,0.152861 0.005,0.639161 -0.0486,0.267105 0.0674,0.21396 0.22137,-0.101454 0.22541,-0.461751 0.4285,-0.584706 0.43938,-0.266017 0.0189,0.553802 0.009,0.517868 0.13824,0.511655 0.0662,-0.0032 0.13766,0.02389 0.15883,0.06017 0.0274,0.04698 0.1471,0.06596 0.41582,0.06596 l 0.37733,0 0.0305,0.162532 c 0.0337,0.179501 -0.0347,0.415086 -0.12046,0.415086 -0.0329,0 -0.0438,0.04246 -0.0273,0.105857 0.0168,0.06438 -0.0113,0.168897 -0.0718,0.266752 -0.0722,0.116804 -0.091,0.203214 -0.0688,0.315323 0.0169,0.08494 0.0312,0.194028 0.0319,0.242426 0.001,0.08404 0.007,0.08425 0.13092,0.0048 0.0713,-0.04573 0.21089,-0.16486 0.31017,-0.264722 0.14113,-0.141963 0.18051,-0.219143 0.18051,-0.353821 0,-0.09474 0.0217,-0.172252 0.0481,-0.172252 0.0743,0 0.0569,0.324774 -0.026,0.485153 -0.0408,0.07888 -0.0612,0.164324 -0.0455,0.189865 0.0158,0.02554 -0.029,0.122157 -0.0996,0.214702 -0.0706,0.09255 -0.11645,0.199259 -0.10191,0.237142 0.0271,0.07066 0.1909,0.03922 0.57389,-0.110154 0.10792,-0.04209 0.13237,-0.03851 0.13237,0.01938 0,0.08755 -0.004,0.08762 0.26763,-0.0046 0.25082,-0.08516 0.29274,-0.07198 0.21762,0.06837 -0.0286,0.05348 -0.052,0.184017 -0.052,0.290092 0,0.106074 -0.0217,0.20625 -0.0481,0.222612 -0.0265,0.01636 -0.0481,0.07829 -0.0481,0.137618 0,0.05933 -0.0245,0.132407 -0.0545,0.162396 -0.0769,0.07685 -0.015,0.205402 0.0988,0.205402 0.0525,0 0.11545,-0.03584 0.13996,-0.07964 0.0704,-0.12581 0.18408,-0.04232 0.21742,0.159687 0.0345,0.208918 0.0105,0.237097 -0.36614,0.43034 -0.20136,0.103307 -0.22565,0.132088 -0.19947,0.236386 0.0368,0.146648 -0.11015,0.230157 -0.18129,0.103023 -0.0602,-0.107603 -0.10353,-0.100796 -0.27461,0.04316 -0.12678,0.10667 -0.13919,0.13764 -0.0945,0.235754 0.0303,0.06645 0.10866,0.124391 0.19038,0.140736 0.0764,0.01528 0.13892,0.05155 0.13892,0.08059 0,0.03575 -0.0833,0.0424 -0.2579,0.02058 -0.23926,-0.02989 -0.25993,-0.02447 -0.28594,0.07499 -0.02,0.07656 -0.0513,0.09828 -0.1095,0.07596 -0.0581,-0.02231 -0.15886,0.0474 -0.35184,0.243521 -0.21598,0.219484 -0.2531,0.278567 -0.18447,0.293602 0.11797,0.02585 0.8478,-0.322987 0.90694,-0.433486 0.0328,-0.06123 0.0781,-0.07991 0.14359,-0.05914 0.11663,0.03701 0.31271,-0.08274 0.35532,-0.217003 0.0367,-0.115649 0.16888,-0.131458 0.16888,-0.0202 0,0.05099 0.0261,0.06732 0.0767,0.04793 0.20767,-0.07969 0.32072,-0.08705 0.36097,-0.02349 0.0695,0.109733 0.0519,0.160164 -0.13049,0.373198 -0.0958,0.111928 -0.16239,0.215307 -0.14797,0.229732 0.0144,0.01443 0.0751,-0.02993 0.13474,-0.09857 0.12244,-0.140814 0.18742,-0.159051 0.18742,-0.0526 0,0.09906 0.0902,0.09023 0.28378,-0.0278 0.17784,-0.108419 0.25532,-0.06751 0.20884,0.110255 -0.0138,0.05273 0.003,0.113125 0.037,0.134218 0.0398,0.02459 0.0482,0.07031 0.0236,0.127444 -0.0378,0.08761 -0.0499,0.132551 -0.0645,0.238993 -0.004,0.0295 -0.10636,0.09145 -0.22739,0.137668 -0.27686,0.105736 -0.35469,0.24842 -0.23508,0.430971 0.0896,0.136683 0.0628,0.199031 -0.0977,0.227972 -0.0683,0.01231 -0.1039,0.06867 -0.12485,0.197559 -0.0647,0.397773 0.26284,0.340425 0.49458,-0.08661 0.15115,-0.278524 0.29389,-0.322758 0.31941,-0.09898 0.009,0.0771 -0.01,0.187974 -0.0409,0.246381 -0.085,0.158784 -0.0411,0.279439 0.1289,0.354327 0.0927,0.04085 0.16048,0.110865 0.17358,0.179374 0.0274,0.143344 0.005,0.162766 -0.18422,0.162766 -0.0972,0 -0.16623,0.02848 -0.18452,0.07614 -0.0473,0.123358 -0.0349,0.156235 0.0718,0.190096 0.0732,0.02324 0.0944,0.06051 0.0771,0.135614 -0.0293,0.127195 -0.11979,0.386279 -0.21047,0.602911 -0.0596,0.142453 -0.0589,0.172481 0.006,0.244465 0.0408,0.04514 0.0743,0.0966 0.0743,0.114375 0,0.06015 -0.18037,0.03277 -0.23749,-0.03605 -0.0489,-0.05892 -0.0872,-0.05799 -0.27733,0.0068 -0.25004,0.0852 -0.19215,0.124784 -0.59599,-0.407539 -0.26814,-0.353454 -0.35686,-0.403486 -0.61326,-0.345843 -0.19782,0.04447 -0.21734,0.03857 -0.40578,-0.122723 -0.10887,-0.09319 -0.22332,-0.169443 -0.25432,-0.169443 -0.031,0 -0.15351,-0.05165 -0.27223,-0.114774 -0.45208,-0.240373 -0.70806,-0.194495 -0.51858,0.09294 0.11285,0.171207 0.11731,0.214371 0.0222,0.214371 -0.0397,0 -0.0722,0.01706 -0.0722,0.03791 0,0.05412 0.43033,0.457923 0.6007,0.563662 0.0789,0.04896 0.11826,0.0974 0.0875,0.107656 -0.0996,0.03321 -0.32039,-0.116887 -0.64064,-0.435613 -0.29073,-0.28935 -0.33295,-0.314396 -0.58246,-0.34557 -0.22225,-0.02777 -0.3034,-0.01607 -0.46682,0.06731 -0.1088,0.0555 -0.23276,0.100917 -0.27547,0.100917 -0.0427,0 -0.0698,0.02708 -0.0603,0.06017 0.15651,0.542056 0.21029,0.659386 0.29053,0.633942 0.0988,-0.03133 0.10509,-0.0042 0.0276,0.119856 -0.0474,0.07587 -0.0347,0.116635 0.0777,0.250228 0.0852,0.101232 0.11329,0.16659 0.0769,0.178731 -0.0316,0.01053 -0.0894,-0.02656 -0.12855,-0.08241 -0.16608,-0.237122 -0.32001,-0.02314 -0.17284,0.240286 0.0575,0.103021 0.14183,0.172678 0.23957,0.198004 0.0829,0.02149 0.19509,0.101299 0.24925,0.177355 0.10265,0.144163 0.40682,0.293638 0.59752,0.293638 0.0609,0 0.21383,-0.03511 0.33977,-0.07802 0.16206,-0.05522 0.24398,-0.06303 0.28028,-0.02673 0.0834,0.08339 -0.17696,0.129065 -0.72075,0.126464 -0.27136,-0.0013 -0.49339,0.0123 -0.49339,0.03021 0,0.110658 0.19388,0.160391 0.70091,0.179799 0.69872,0.02675 0.76394,0.07783 0.45249,0.354482 -0.11812,0.104921 -0.24447,0.214202 -0.28077,0.242847 -0.0818,0.06451 -0.0404,0.515466 0.0527,0.574539 0.0338,0.02144 0.18058,0.04153 0.32618,0.04464 0.25727,0.0055 0.25999,0.0069 0.0963,0.05164 -0.0927,0.02529 -0.27868,0.07724 -0.41337,0.115424 -0.1347,0.03819 -0.37476,0.06943 -0.53346,0.06943 -0.27875,0 -0.29382,-0.0065 -0.4432,-0.192432 z m 0.71615,-0.361119 c 0,-0.03971 -0.0325,-0.0722 -0.0722,-0.0722 -0.0397,0 -0.0722,0.03249 -0.0722,0.0722 0,0.03971 0.0325,0.0722 0.0722,0.0722 0.0397,0 0.0722,-0.03249 0.0722,-0.0722 z m 0.0151,-0.464802 c 0.20906,-0.05238 0.21594,-0.152718 0.0121,-0.176677 -0.0809,-0.0095 -0.12194,0.0034 -0.10381,0.03278 0.0555,0.08979 -0.0562,0.103127 -0.2604,0.03109 -0.11154,-0.03935 -0.22215,-0.05959 -0.2458,-0.04497 -0.0802,0.0496 -0.0435,0.168216 0.0653,0.210753 0.10778,0.04214 0.18267,0.0347 0.5326,-0.05297 z m -7.26161,-1.015345 c -0.0563,-0.186228 -0.11817,-0.210184 -0.11817,-0.04573 0,0.107771 0.0227,0.154032 0.0755,0.154032 0.0558,0 0.0669,-0.02814 0.0427,-0.108303 z m 0.40534,-0.348701 c 0.0514,-0.105744 0.0838,-0.207815 0.072,-0.226825 -0.0284,-0.04602 -0.26701,0.05733 -0.34283,0.148514 -0.0643,0.07729 -0.0823,0.352733 -0.0267,0.408292 0.0485,0.0485 0.18984,-0.108245 0.29755,-0.329981 z m 5.34894,-0.161289 c 0,-0.02237 -0.0412,-0.07793 -0.0915,-0.123473 -0.10784,-0.09759 -0.19211,-0.01778 -0.0993,0.09405 0.0629,0.07584 0.19079,0.09555 0.19079,0.02942 z m 0.2455,-0.235485 c 0.0298,-0.08075 0.013,-0.138759 -0.0671,-0.231903 -0.0932,-0.108319 -0.12375,-0.11779 -0.2389,-0.07401 -0.16397,0.06234 -0.16473,0.10263 -0.005,0.291897 0.14222,0.169017 0.25241,0.173975 0.31147,0.01402 z m -0.60284,-0.516047 c 0.22218,-0.145577 0.19724,-0.307002 -0.0593,-0.383729 -0.0799,-0.0239 -0.12771,0.0026 -0.20799,0.115365 -0.0573,0.08052 -0.12205,0.208487 -0.14381,0.284376 -0.0393,0.136868 -0.0382,0.137682 0.12484,0.1009 0.0904,-0.02039 0.21924,-0.073 0.28625,-0.116912 z m -5.46698,-0.603705 c 0,-0.02647 -0.0433,-0.04813 -0.0963,-0.04813 -0.053,0 -0.0963,0.02166 -0.0963,0.04813 0,0.02647 0.0433,0.04814 0.0963,0.04814 0.053,0 0.0963,-0.02166 0.0963,-0.04814 z m 0.17364,-0.453392 c 0.0144,-0.03757 -0.0104,-0.124216 -0.0552,-0.19254 -0.0735,-0.112098 -0.0643,-0.145384 0.036,-0.1306 0.0187,0.0028 -0.0105,-0.07048 -0.0649,-0.162771 -0.10383,-0.175981 -0.17729,-0.201482 -0.33588,-0.116605 -0.11862,0.06348 -0.451,-0.08374 -0.61506,-0.272421 -0.0596,-0.06855 -0.11569,-0.117217 -0.12464,-0.108145 -0.009,0.0091 0.0282,0.152007 0.0826,0.317631 0.0764,0.232683 0.13416,0.322954 0.25415,0.397113 0.0854,0.05279 0.18096,0.09598 0.21234,0.09598 0.0314,0 0.13673,0.05415 0.23413,0.120337 0.1985,0.134888 0.33736,0.154073 0.37652,0.05202 z m 9.06595,-1.715475 c 0.11291,-0.13391 0.19182,-0.256944 0.17536,-0.273409 -0.0165,-0.01646 -0.1217,0.03439 -0.23387,0.113013 -0.13994,0.0981 -0.2087,0.183882 -0.21916,0.273409 -0.0221,0.18942 0.046,0.161681 0.27767,-0.113013 z m -1.69144,-0.668082 c 0.012,-0.0361 -0.006,-0.05415 -0.0421,-0.04212 -0.0348,0.01158 -0.0727,0.04949 -0.0842,0.08424 -0.012,0.0361 0.006,0.05415 0.0421,0.04212 0.0348,-0.01158 0.0727,-0.04949 0.0842,-0.08424 z m -12.02469,-0.534002 c 0,-0.05763 -0.13578,-0.119439 -0.17537,-0.07984 -0.0421,0.04215 0.0293,0.129486 0.106,0.129486 0.0381,0 0.0694,-0.02234 0.0694,-0.04964 z m 13.23019,-1.390883 c 0.1,-0.05101 0.2114,-0.128409 0.24757,-0.17199 0.0362,-0.04358 0.14577,-0.120054 0.24355,-0.16994 0.16982,-0.08664 0.27164,-0.221407 0.21219,-0.280858 -0.0153,-0.01533 -0.12414,0.0067 -0.2418,0.04906 -0.11767,0.04231 -0.21394,0.05668 -0.21394,0.03192 0,-0.02476 -0.0207,-0.03221 -0.046,-0.01656 -0.0253,0.01565 -0.0357,0.05532 -0.0231,0.08816 0.0126,0.03284 -0.075,0.15579 -0.19464,0.273222 -0.30284,0.297211 -0.29789,0.357238 0.0162,0.196988 z m -10.55865,-0.436822 c 0.0329,-0.05327 -0.21245,-0.164576 -0.25937,-0.117659 -0.03,0.03005 0.12838,0.165884 0.19347,0.165884 0.0199,0 0.0495,-0.0217 0.0659,-0.04823 z m 0.0118,-0.268861 c -0.0155,-0.01555 -0.10846,-0.04636 -0.20645,-0.06846 -0.098,-0.0221 -0.15928,-0.02204 -0.13618,1.44e-4 0.0359,0.0345 0.13308,0.06127 0.32678,0.09005 0.0243,0.0036 0.0314,-0.0062 0.0159,-0.02172 z m 8.91718,-0.04393 c 0.0748,-0.09011 0.0132,-0.09011 -0.1444,0 -0.11336,0.0648 -0.1144,0.06889 -0.0179,0.0705 0.0563,9.38e-4 0.12937,-0.03079 0.16233,-0.0705 z m -8.84559,-0.341989 c -0.0281,-0.304308 -0.0615,-0.361623 -0.26563,-0.454883 l -0.20288,-0.09269 -0.15644,0.167303 c -0.18422,0.197022 -0.19613,0.288191 -0.0481,0.368504 0.1272,0.06902 0.56821,0.18235 0.63779,0.163893 0.0265,-0.007 0.0424,-0.07548 0.0353,-0.152123 z m 8.48793,0.005 c 0.10117,-0.09266 0.15557,-0.168472 0.12091,-0.168472 -0.107,0 -0.43714,0.206633 -0.43714,0.273605 0,0.110722 0.12648,0.06867 0.31623,-0.105133 z m 0.68947,0.02669 c 0.1385,-0.07066 0.20893,-0.152608 0.28689,-0.333833 0.13243,-0.307843 0.13167,-0.312244 -0.0476,-0.276391 -0.26007,0.05201 -0.46688,0.214711 -0.5704,0.448737 -0.0533,0.120581 -0.097,0.227315 -0.097,0.237187 0,0.05302 0.26902,0.0054 0.42808,-0.0757 z m -8.23371,-0.0141 c 0.0328,-0.03279 0.0967,-0.05986 0.142,-0.06017 0.05,-3.37e-4 0.12693,-0.09036 0.19564,-0.228872 0.0948,-0.191037 0.11433,-0.308922 0.11987,-0.722023 0.007,-0.519401 -0.0348,-0.782596 -0.11615,-0.732307 -0.0268,0.01655 -0.0992,0.110202 -0.16106,0.208126 -0.0618,0.09792 -0.25589,0.321535 -0.43127,0.496913 -0.17538,0.175378 -0.31887,0.330639 -0.31887,0.345025 0,0.01439 0.0234,0.135018 0.0519,0.268073 0.0366,0.170759 0.0943,0.277645 0.19623,0.36338 0.16115,0.135592 0.23399,0.149595 0.32173,0.06185 z m 1.35556,-1.586175 c 0,-0.07436 -0.0213,-0.135205 -0.0472,-0.135205 -0.056,0 -0.10142,0.171591 -0.0867,0.327931 0.01,0.102786 0.0152,0.104849 0.0722,0.0269 0.034,-0.04643 0.0617,-0.145265 0.0617,-0.219627 z m 2.40407,-0.592486 c -2.9e-4,-0.02647 -0.0431,0.003 -0.0952,0.0655 -0.0521,0.0625 -0.0942,0.138312 -0.0936,0.168472 5.9e-4,0.03016 0.0434,6.83e-4 0.0952,-0.0655 0.0518,-0.06619 0.0939,-0.141998 0.0936,-0.168472 z"
           id="path4561"
           inkscape:connector-curvature="0" />
      </g>
    </g>
  </g>
</svg>
