<?xml version="1.0" encoding="UTF-8" standalone="no"?>
<!-- Created with Inkscape (http://www.inkscape.org/) -->

<svg
   xmlns:dc="http://purl.org/dc/elements/1.1/"
   xmlns:cc="http://creativecommons.org/ns#"
   xmlns:rdf="http://www.w3.org/1999/02/22-rdf-syntax-ns#"
   xmlns:svg="http://www.w3.org/2000/svg"
   xmlns="http://www.w3.org/2000/svg"
   xmlns:sodipodi="http://sodipodi.sourceforge.net/DTD/sodipodi-0.dtd"
   xmlns:inkscape="http://www.inkscape.org/namespaces/inkscape"
   width="16px"
   height="16px"
   id="svg2985"
   version="1.1"
   inkscape:version="0.48.4 r9939"
   sodipodi:docname="artifact.svg">
  <defs
     id="defs2987" />
  <sodipodi:namedview
     id="base"
     pagecolor="#ffffff"
     bordercolor="#666666"
     borderopacity="1.0"
     inkscape:pageopacity="0.0"
     inkscape:pageshadow="2"
     inkscape:zoom="22.197802"
     inkscape:cx="10.871828"
     inkscape:cy="13.172005"
     inkscape:current-layer="layer1"
     showgrid="true"
     inkscape:grid-bbox="true"
     inkscape:document-units="px"
     inkscape:window-width="1535"
     inkscape:window-height="876"
     inkscape:window-x="65"
     inkscape:window-y="24"
     inkscape:window-maximized="1" />
  <metadata
     id="metadata2990">
    <rdf:RDF>
      <cc:Work
         rdf:about="">
        <dc:format>image/svg+xml</dc:format>
        <dc:type
           rdf:resource="http://purl.org/dc/dcmitype/StillImage" />
        <dc:title></dc:title>
      </cc:Work>
    </rdf:RDF>
  </metadata>
  <g
     id="layer1"
     inkscape:label="Layer 1"
     inkscape:groupmode="layer">
    <path
       style="fill:#000000;fill-opacity:0;stroke:none"
       d="M 9.4661727,11.398249 C 9.3612443,10.954063 9.3660706,9.7750675 9.4756027,9.0935666 9.5847447,8.4145338 9.9079282,8.1410851 10.075491,8.5859935 c 0.179837,0.4775298 0.201203,1.1814566 0.06441,2.1219275 -0.08897,0.611659 -0.1718438,0.824018 -0.3554559,0.910827 -0.1316893,0.06256 -0.2749115,-0.03712 -0.3182724,-0.220499 z"
       id="path3847"
       inkscape:connector-curvature="0"
       sodipodi:nodetypes="cccccc" />
    <path
       style="fill:#000000;fill-opacity:0;stroke:none"
       d="M 9.4661727,11.398249 C 9.3612443,10.954063 9.3660706,9.7750675 9.4756027,9.0935666 9.5847447,8.4145338 9.9079282,8.1410851 10.075491,8.5859935 c 0.179837,0.4775298 0.201203,1.1814566 0.06441,2.1219275 -0.08897,0.611659 -0.1718438,0.824018 -0.3554559,0.910827 -0.1316893,0.06256 -0.2749115,-0.03712 -0.3182724,-0.220499 z"
       id="path3849"
       inkscape:connector-curvature="0"
       sodipodi:nodetypes="cccccc" />
    <path
       style="fill:#000000;fill-opacity:0;stroke:none"
       d="M 9.4661727,11.398249 C 9.3612443,10.954063 9.3660706,9.7750675 9.4756027,9.0935666 9.5847447,8.4145338 9.9079282,8.1410851 10.075491,8.5859935 c 0.179837,0.4775298 0.201203,1.1814566 0.06441,2.1219275 -0.08897,0.611659 -0.1718438,0.824018 -0.3554559,0.910827 -0.1316893,0.06256 -0.2749115,-0.03712 -0.3182724,-0.220499 z"
       id="path3851"
       inkscape:connector-curvature="0"
       sodipodi:nodetypes="cccccc" />
    <path
       style="fill:#000000;fill-opacity:0;stroke:none"
       d="M 9.4661727,11.398249 C 9.3612443,10.954063 9.3660706,9.7750675 9.4756027,9.0935666 9.5847447,8.4145338 9.9079282,8.1410851 10.075491,8.5859935 10.500056,10.841602 9.8600207,10.831236 9.7844451,11.618748 9.6527558,11.681309 9.5095336,11.581623 9.4661727,11.398249 z"
       id="path3853"
       inkscape:connector-curvature="0"
       sodipodi:nodetypes="ccccc" />
    <path
       style="fill:#000000;fill-opacity:0;stroke:none"
       d="M 9.4661727,11.398249 C 9.3612443,10.954063 9.3660706,9.7750675 9.4756027,9.0935666 9.5847447,8.4145338 9.9079282,8.1410851 10.075491,8.5859935 10.500056,10.841602 9.8600207,10.831236 9.7844451,11.618748 9.6527558,11.681309 9.5095336,11.581623 9.4661727,11.398249 z"
       id="path3855"
       inkscape:connector-curvature="0"
       sodipodi:nodetypes="ccccc" />
    <path
       style="fill:#000000;fill-opacity:0;stroke:none"
       d="M 9.4661727,11.398249 C 9.3612443,10.954063 9.3660706,9.7750675 9.4756027,9.0935666 9.5847447,8.4145338 9.9079282,8.1410851 10.075491,8.5859935 10.500056,10.841603 9.8600207,10.831236 9.7844451,11.618748 9.6527558,11.681309 9.5095336,11.581623 9.4661727,11.39827 z"
       id="path3857"
       inkscape:connector-curvature="0"
       sodipodi:nodetypes="ccccc" />
    <path
       style="fill:#000000;fill-opacity:1;stroke:none"
       d="m 7.4904928,15.99886 c -0.512661,-0.0186 -0.614161,-0.0322 -0.849591,-0.11424 -0.50826,-0.177091 -0.831601,-0.387291 -1.564891,-1.017351 C 3.9982097,13.941198 3.2504487,13.005617 2.7614887,11.971427 2.4100188,11.228036 2.2452288,10.657296 2.1145588,9.7308066 c -0.272051,-1.928782 0.0361,-3.586223 1.1821099,-6.358435 0.345911,-0.836751 0.605491,-1.391071 0.753821,-1.609721 0.7234711,-1.06650104 1.9748521,-1.67480204 3.5941231,-1.74713204 0.47491,-0.0212 1.102371,0.0225 1.55107,0.10796 0.15185,0.0289 0.35381,0.0394 0.5363599,0.0277 1.4815313,-0.0946 2.9570223,1.14494104 3.6772623,3.08923304 1.338841,3.614213 1.456752,6.5438149 0.351921,8.7436654 -0.333901,0.66483 -0.441581,0.8113 -1.160571,1.578611 -1.174891,1.253841 -2.204402,1.973881 -3.2594122,2.279612 -0.534739,0.15496 -0.94244,0.18945 -1.85075,0.15655 l 0,0 z"
       id="path3983"
       inkscape:connector-curvature="0" />
  </g>
</svg>
