<?xml version="1.0" encoding="UTF-8" standalone="no"?>
<!-- Created with Inkscape (http://www.inkscape.org/) -->

<svg
   xmlns:dc="http://purl.org/dc/elements/1.1/"
   xmlns:cc="http://creativecommons.org/ns#"
   xmlns:rdf="http://www.w3.org/1999/02/22-rdf-syntax-ns#"
   xmlns:svg="http://www.w3.org/2000/svg"
   xmlns="http://www.w3.org/2000/svg"
   xmlns:sodipodi="http://sodipodi.sourceforge.net/DTD/sodipodi-0.dtd"
   xmlns:inkscape="http://www.inkscape.org/namespaces/inkscape"
   width="16px"
   height="16px"
   id="svg2985"
   version="1.1"
   inkscape:version="0.48.4 r9939"
   sodipodi:docname="registration.svg">
  <defs
     id="defs2987" />
  <sodipodi:namedview
     id="base"
     pagecolor="#ffffff"
     bordercolor="#666666"
     borderopacity="1.0"
     inkscape:pageopacity="0.0"
     inkscape:pageshadow="2"
     inkscape:zoom="15.696216"
     inkscape:cx="22.146782"
     inkscape:cy="20.978517"
     inkscape:current-layer="layer1"
     showgrid="true"
     inkscape:grid-bbox="true"
     inkscape:document-units="px"
     inkscape:window-width="1535"
     inkscape:window-height="876"
     inkscape:window-x="65"
     inkscape:window-y="24"
     inkscape:window-maximized="1" />
  <metadata
     id="metadata2990">
    <rdf:RDF>
      <cc:Work
         rdf:about="">
        <dc:format>image/svg+xml</dc:format>
        <dc:type
           rdf:resource="http://purl.org/dc/dcmitype/StillImage" />
        <dc:title></dc:title>
      </cc:Work>
    </rdf:RDF>
  </metadata>
  <g
     id="layer1"
     inkscape:label="Layer 1"
     inkscape:groupmode="layer">
    <g
       style="font-size:40px;font-style:normal;font-weight:normal;line-height:125%;letter-spacing:0px;word-spacing:0px;fill:#000000;fill-opacity:1;stroke:none;font-family:Sans"
       id="text9401"
       transform="matrix(0.31209997,0,0,0.31209997,3.7047983,5.5744413)">
      <path
         d="m -11.655432,2.5520678 8.1171878,0 0,2.2734375 -5.109375,0 0,2.171875 4.8046875,0 0,2.2734375 -4.8046875,0 0,4.9453122 -3.0078128,0 0,-11.6640622"
         style="font-size:16px;font-weight:bold;-inkscape-font-specification:Sans Bold"
         id="path9406"
         inkscape:connector-curvature="0" />
      <path
         d="m -0.71793175,2.5520678 3.35937505,0 4.2421875,8.0000002 0,-8.0000002 2.8515625,0 0,11.6640622 -3.359375,0 -4.2421875,-7.9999997 0,7.9999997 -2.85156255,0 0,-11.6640622"
         style="font-size:16px;font-weight:bold;-inkscape-font-specification:Sans Bold"
         id="path9408"
         inkscape:connector-curvature="0" />
      <path
         d="m 12.688318,2.5520678 3.007813,0 0,11.6640622 -3.007813,0 0,-11.6640622"
         style="font-size:16px;font-weight:bold;-inkscape-font-specification:Sans Bold"
         id="path9410"
         inkscape:connector-curvature="0" />
      <path
         d="m 22.930506,7.7239428 c 0.630202,6.4e-6 1.080722,-0.1171809 1.351562,-0.3515625 0.276035,-0.234368 0.414055,-0.6197842 0.414063,-1.15625 -8e-6,-0.5312415 -0.138028,-0.9114495 -0.414063,-1.140625 -0.27084,-0.2291573 -0.72136,-0.3437406 -1.351562,-0.34375 l -1.265625,0 0,2.9921875 1.265625,0 m -1.265625,2.078125 0,4.4140622 -3.007813,0 0,-11.6640622 4.59375,0 c 1.536451,1.16e-5 2.66145,0.2578239 3.375,0.7734375 0.71874,0.5156353 1.078115,1.3307387 1.078125,2.4453125 -10e-6,0.770841 -0.18751,1.4036528 -0.5625,1.8984375 -0.369801,0.4947977 -0.929696,0.8593806 -1.679687,1.09375 0.411449,0.093755 0.778637,0.3072968 1.101562,0.640625 0.328116,0.3281294 0.658844,0.8281287 0.992188,1.4999997 l 1.632812,3.3125 -3.203125,0 -1.421875,-2.898437 c -0.286465,-0.58333 -0.578132,-0.981767 -0.875,-1.195313 C 23.396645,9.9088429 23.006021,9.8020722 22.516443,9.8020678 l -0.851562,0"
         style="font-size:16px;font-weight:bold;-inkscape-font-specification:Sans Bold"
         id="path9412"
         inkscape:connector-curvature="0" />
      <path
         d="m 28.860193,2.5520678 10.75,0 0,2.2734375 -3.867187,0 0,9.3906247 -3.007813,0 0,-9.3906247 -3.875,0 0,-2.2734375"
         style="font-size:16px;font-weight:bold;-inkscape-font-specification:Sans Bold"
         id="path9414"
         inkscape:connector-curvature="0" />
    </g>
  </g>
</svg>
