<?xml version="1.0" encoding="UTF-8" standalone="no"?>
<!-- Created with Inkscape (http://www.inkscape.org/) -->

<svg
   xmlns:dc="http://purl.org/dc/elements/1.1/"
   xmlns:cc="http://creativecommons.org/ns#"
   xmlns:rdf="http://www.w3.org/1999/02/22-rdf-syntax-ns#"
   xmlns:svg="http://www.w3.org/2000/svg"
   xmlns="http://www.w3.org/2000/svg"
   xmlns:sodipodi="http://sodipodi.sourceforge.net/DTD/sodipodi-0.dtd"
   xmlns:inkscape="http://www.inkscape.org/namespaces/inkscape"
   width="16px"
   height="16px"
   id="svg3121"
   version="1.1"
   inkscape:version="0.48.4 r9939"
   sodipodi:docname="spm.svg">
  <defs
     id="defs3123" />
  <sodipodi:namedview
     id="base"
     pagecolor="#ffffff"
     bordercolor="#666666"
     borderopacity="1.0"
     inkscape:pageopacity="0.0"
     inkscape:pageshadow="2"
     inkscape:zoom="7.8481083"
     inkscape:cx="8"
     inkscape:cy="6.3563255"
     inkscape:current-layer="g3356"
     showgrid="true"
     inkscape:grid-bbox="true"
     inkscape:document-units="px"
     inkscape:window-width="1144"
     inkscape:window-height="848"
     inkscape:window-x="387"
     inkscape:window-y="24"
     inkscape:window-maximized="0" />
  <metadata
     id="metadata3126">
    <rdf:RDF>
      <cc:Work
         rdf:about="">
        <dc:format>image/svg+xml</dc:format>
        <dc:type
           rdf:resource="http://purl.org/dc/dcmitype/StillImage" />
        <dc:title></dc:title>
      </cc:Work>
    </rdf:RDF>
  </metadata>
  <g
     id="layer1"
     inkscape:label="Layer 1"
     inkscape:groupmode="layer">
    <g
       id="g3356"
       transform="translate(-69.438394,4.5558538)">
      <g
         style="font-size:20.0260601px;font-style:normal;font-weight:normal;line-height:125%;letter-spacing:0px;word-spacing:0px;fill:#000000;fill-opacity:1;stroke:none;font-family:Sans"
         id="text3488">
        <path
           d="m 74.291072,1.5691119 0,-1.1264658 -4.614004,0 0,6.5695485 1.351759,0 0,-2.829682 2.874741,0 0,-1.1264658 -2.874741,0 0,-1.4869349 3.262245,0"
           style="font-size:9.01172638px;font-variant:normal;font-weight:bold;font-stretch:normal;letter-spacing:-0.0397977px;fill:#000000;font-family:TeX Gyre Heros;-inkscape-font-specification:TeX Gyre Heros Bold"
           id="path3590" />
        <path
           d="m 80.183947,5.0386266 c 0,-1.0363475 -0.522681,-1.522982 -1.739263,-1.7572867 l -1.027337,-0.198258 c -0.964253,-0.189246 -1.243618,-0.378493 -1.243618,-0.856114 0,-0.4956444 0.441575,-0.8110553 1.135478,-0.8110553 0.856113,0 1.378794,0.3604697 1.378794,1.0273368 l 1.261642,0 c 0,-1.3878045 -0.973269,-2.10874401 -2.577354,-2.10874401 -1.577051,0 -2.487237,0.73896281 -2.487237,2.01862671 0,1.0273358 0.51367,1.5049586 1.847404,1.7662984 l 0.919196,0.1802345 c 0.901172,0.1802343 1.234607,0.3694813 1.234607,0.9011726 0,0.5497148 -0.504658,0.8380906 -1.324724,0.8380906 -0.919195,0 -1.477923,-0.387505 -1.477923,-1.0904189 l -1.315712,0 c 0,1.4058279 1.045362,2.1718261 2.721541,2.1718261 1.694203,0 2.694506,-0.7479747 2.694506,-2.0817088"
           style="font-size:9.01172638px;font-variant:normal;font-weight:bold;font-stretch:normal;letter-spacing:-0.0397977px;fill:#000000;font-family:TeX Gyre Heros;-inkscape-font-specification:TeX Gyre Heros Bold"
           id="path3592" />
        <path
           d="m 85.677069,7.0121946 0,-1.1264658 -3.145093,0 0,-5.4430827 -1.351759,0 0,6.5695485 4.496852,0"
           style="font-size:9.01172638px;font-variant:normal;font-weight:bold;font-stretch:normal;letter-spacing:-0.0397977px;fill:#000000;font-family:TeX Gyre Heros;-inkscape-font-specification:TeX Gyre Heros Bold"
           id="path3594" />
      </g>
    </g>
  </g>
</svg>
