<?xml version="1.0" encoding="UTF-8" standalone="no"?>
<!-- Created with Inkscape (http://www.inkscape.org/) -->

<svg
   xmlns:dc="http://purl.org/dc/elements/1.1/"
   xmlns:cc="http://creativecommons.org/ns#"
   xmlns:rdf="http://www.w3.org/1999/02/22-rdf-syntax-ns#"
   xmlns:svg="http://www.w3.org/2000/svg"
   xmlns="http://www.w3.org/2000/svg"
   xmlns:sodipodi="http://sodipodi.sourceforge.net/DTD/sodipodi-0.dtd"
   xmlns:inkscape="http://www.inkscape.org/namespaces/inkscape"
   width="16px"
   height="16px"
   id="svg3121"
   version="1.1"
   inkscape:version="0.48.4 r9939"
   sodipodi:docname="smoothing.svg">
  <defs
     id="defs3123" />
  <sodipodi:namedview
     id="base"
     pagecolor="#ffffff"
     bordercolor="#666666"
     borderopacity="1.0"
     inkscape:pageopacity="0.0"
     inkscape:pageshadow="2"
     inkscape:zoom="15.696216"
     inkscape:cx="8"
     inkscape:cy="8"
     inkscape:current-layer="layer1"
     showgrid="true"
     inkscape:grid-bbox="true"
     inkscape:document-units="px"
     inkscape:window-width="1144"
     inkscape:window-height="848"
     inkscape:window-x="387"
     inkscape:window-y="24"
     inkscape:window-maximized="0" />
  <metadata
     id="metadata3126">
    <rdf:RDF>
      <cc:Work
         rdf:about="">
        <dc:format>image/svg+xml</dc:format>
        <dc:type
           rdf:resource="http://purl.org/dc/dcmitype/StillImage" />
        <dc:title></dc:title>
      </cc:Work>
    </rdf:RDF>
  </metadata>
  <g
     id="layer1"
     inkscape:label="Layer 1"
     inkscape:groupmode="layer">
    <path
       style="fill:#000000"
       d="M 10.351756,16.016039 C 9.0172629,16.112912 7.5895703,15.670324 6.3131871,14.764072 4.3422289,13.364657 2.7135099,10.953582 1.4082612,7.5030662 1.0730376,6.6168781 0.57311482,5.0234231 0.56815077,4.8252984 0.54709526,3.9848833 1.5003436,2.9485969 3.0721425,2.1031789 4.7609414,1.1948297 7.5803393,0.3354601 9.6355194,0.10262221 11.563025,-0.11575004 13.064477,0.158629 13.700128,0.8454038 c 0.162386,0.1754452 0.213716,0.3207625 0.467167,1.3225323 0.785291,3.1038889 1.002778,5.5622654 0.692395,7.8265232 -0.331078,2.4152087 -1.383033,4.3498167 -2.947539,5.4206887 -0.589321,0.40338 -0.995787,0.559905 -1.560395,0.600891 z m 0.07652,-3.352733 c 0.877896,-0.502042 1.542774,-1.582861 1.889095,-3.0708967 0.09024,-0.387728 0.09292,-0.549857 0.0087,-0.5257401 -0.02331,0.00667 -0.152263,0.1304561 -0.286548,0.2750661 -0.517205,0.556968 -1.326062,1.2133937 -1.899899,1.5418567 -0.3551744,0.2033 -0.9909264,0.408936 -1.3995665,0.45269 C 8.0867714,11.406242 7.0260137,11.301452 6.1635357,11.08177 5.9086676,11.01685 5.6811914,10.969163 5.658033,10.975793 c -0.067531,0.01933 -0.026664,0.09479 0.1637407,0.302281 1.1786081,1.284386 2.602517,1.927028 3.7809782,1.70644 0.220669,-0.04131 0.5817781,-0.181809 0.8255401,-0.321208 z M 6.2849682,8.2804176 C 6.5788174,8.0884806 6.8589225,7.8098048 7.0957244,7.4737977 7.3925034,7.0526875 7.6038204,6.5847574 7.5182097,6.5382666 7.4256133,6.4879859 6.1586387,6.6369822 5.579595,6.7662531 4.9675253,6.9028967 4.1522316,7.2539367 3.6283587,7.6063933 3.4506917,7.7259264 3.3877776,7.7858412 3.3921168,7.8313771 c 0.00406,0.042373 0.112505,0.1199956 0.3418549,0.244647 C 4.3176639,8.393258 4.9570138,8.5943512 5.3760689,8.592509 5.6166356,8.5915171 6.0217589,8.4523424 6.2849682,8.2804176 z M 11.608138,7.2444865 C 11.970337,7.0304849 12.559497,6.0460248 12.895289,5.4530493 13.023917,5.2259059 13.074867,5.1026387 13.055868,5.0645513 12.998553,4.9496594 12.113291,4.9807891 11.367641,5.1239035 10.912805,5.2112004 10.461728,5.363251 9.890439,5.6218316 9.2501675,5.9116357 8.8643485,6.124198 8.8697571,6.1841661 c 0.0073,0.081246 0.4630851,0.3688006 0.8403935,0.5302301 0.7791304,0.3333461 1.3861984,0.8324718 1.8979874,0.5300885 z"
       id="path3728"
       inkscape:connector-curvature="0"
       sodipodi:nodetypes="sssssssssssssssssssssssssssssssssssssss" />
  </g>
</svg>
