<?xml version="1.0" encoding="UTF-8" standalone="no"?>
<!-- Created with Inkscape (http://www.inkscape.org/) -->

<svg
   xmlns:dc="http://purl.org/dc/elements/1.1/"
   xmlns:cc="http://creativecommons.org/ns#"
   xmlns:rdf="http://www.w3.org/1999/02/22-rdf-syntax-ns#"
   xmlns:svg="http://www.w3.org/2000/svg"
   xmlns="http://www.w3.org/2000/svg"
   xmlns:sodipodi="http://sodipodi.sourceforge.net/DTD/sodipodi-0.dtd"
   xmlns:inkscape="http://www.inkscape.org/namespaces/inkscape"
   width="16px"
   height="16px"
   id="svg2985"
   version="1.1"
   inkscape:version="0.48.4 r9939"
   sodipodi:docname="nifti.svg">
  <defs
     id="defs2987" />
  <sodipodi:namedview
     id="base"
     pagecolor="#ffffff"
     bordercolor="#666666"
     borderopacity="1.0"
     inkscape:pageopacity="0.0"
     inkscape:pageshadow="2"
     inkscape:zoom="15.696216"
     inkscape:cx="22.146782"
     inkscape:cy="20.978517"
     inkscape:current-layer="text2986"
     showgrid="true"
     inkscape:grid-bbox="true"
     inkscape:document-units="px"
     inkscape:window-width="1535"
     inkscape:window-height="876"
     inkscape:window-x="65"
     inkscape:window-y="24"
     inkscape:window-maximized="1" />
  <metadata
     id="metadata2990">
    <rdf:RDF>
      <cc:Work
         rdf:about="">
        <dc:format>image/svg+xml</dc:format>
        <dc:type
           rdf:resource="http://purl.org/dc/dcmitype/StillImage" />
        <dc:title></dc:title>
      </cc:Work>
    </rdf:RDF>
  </metadata>
  <g
     id="layer1"
     inkscape:label="Layer 1"
     inkscape:groupmode="layer">
    <g
       style="font-size:40px;font-style:normal;font-weight:normal;line-height:125%;letter-spacing:0px;word-spacing:0px;fill:#000000;fill-opacity:1;stroke:none;font-family:Sans"
       id="text9401"
       transform="matrix(0.3975927,0,0,0.3975927,4.7700178,4.9324522)">
      <g
         transform="scale(1.1007903,0.90843827)"
         style="font-size:14.32375908px;line-height:125%;fill:#000000;font-family:Sans"
         id="text2986">
        <path
           d="m -10.882926,15.015785 0,-11.0821663 2.1771245,0 4.5356752,7.4007103 0,-7.4007103 2.0788512,0 0,11.0821663 -2.2451593,0 -4.4676401,-7.2268423 0,7.2268423 -2.0788515,0"
           style="font-size:15.48177147px;font-weight:bold;font-family:arial;-inkscape-font-specification:arial"
           id="path3114" />
        <path
           d="m 0.21435964,15.015785 0,-11.0821663 2.23759976,0 0,11.0821663 -2.23759976,0"
           style="font-size:15.48177147px;font-weight:bold;font-family:arial;-inkscape-font-specification:arial"
           id="path3116" />
        <path
           d="m 4.5912864,15.015785 0,-11.0821663 7.5972556,0 0,1.8747458 -5.3596558,0 0,2.6231322 4.6263888,0 0,1.8747453 -4.6263888,0 0,4.709543 -2.2375998,0"
           style="font-size:15.48177147px;font-weight:bold;font-family:arial;-inkscape-font-specification:arial"
           id="path3118" />
        <path
           d="m 16.53523,15.015785 0,-9.2074205 -3.288364,0 0,-1.8747458 8.806769,0 0,1.8747458 -3.280805,0 0,9.2074205 -2.2376,0"
           style="font-size:15.48177147px;font-weight:bold;font-family:arial;-inkscape-font-specification:arial"
           id="path3120" />
        <path
           d="m 23.437017,15.015785 0,-11.0821663 2.2376,0 0,11.0821663 -2.2376,0"
           style="font-size:15.48177147px;font-weight:bold;font-family:arial;-inkscape-font-specification:arial"
           id="path3122" />
      </g>
    </g>
  </g>
</svg>
