<?xml version="1.0" encoding="UTF-8" standalone="no"?>
<!-- Created with Inkscape (http://www.inkscape.org/) -->

<svg
   xmlns:dc="http://purl.org/dc/elements/1.1/"
   xmlns:cc="http://creativecommons.org/ns#"
   xmlns:rdf="http://www.w3.org/1999/02/22-rdf-syntax-ns#"
   xmlns:svg="http://www.w3.org/2000/svg"
   xmlns="http://www.w3.org/2000/svg"
   xmlns:sodipodi="http://sodipodi.sourceforge.net/DTD/sodipodi-0.dtd"
   xmlns:inkscape="http://www.inkscape.org/namespaces/inkscape"
   width="16px"
   height="16px"
   id="svg2985"
   version="1.1"
   inkscape:version="0.48.4 r9939"
   sodipodi:docname="pbonf.svg">
  <defs
     id="defs2987" />
  <sodipodi:namedview
     id="base"
     pagecolor="#ffffff"
     bordercolor="#666666"
     borderopacity="1.0"
     inkscape:pageopacity="0.0"
     inkscape:pageshadow="2"
     inkscape:zoom="15.696216"
     inkscape:cx="22.146782"
     inkscape:cy="20.978517"
     inkscape:current-layer="text9401"
     showgrid="true"
     inkscape:grid-bbox="true"
     inkscape:document-units="px"
     inkscape:window-width="1535"
     inkscape:window-height="876"
     inkscape:window-x="65"
     inkscape:window-y="24"
     inkscape:window-maximized="1" />
  <metadata
     id="metadata2990">
    <rdf:RDF>
      <cc:Work
         rdf:about="">
        <dc:format>image/svg+xml</dc:format>
        <dc:type
           rdf:resource="http://purl.org/dc/dcmitype/StillImage" />
        <dc:title />
      </cc:Work>
    </rdf:RDF>
  </metadata>
  <g
     id="layer1"
     inkscape:label="Layer 1"
     inkscape:groupmode="layer">
    <g
       style="font-size:40px;font-style:normal;font-weight:normal;line-height:125%;letter-spacing:0px;word-spacing:0px;fill:#000000;fill-opacity:1;stroke:none;font-family:Sans"
       id="text9401"
       transform="matrix(0.3975927,0,0,0.3975927,4.7700178,4.9324522)">
      <g
         transform="scale(0.91976129,1.0872386)"
         style="font-size:11.9681654px;line-height:125%;fill:#000000;font-family:Sans"
         id="text2986">
        <path
           d="m -13.043869,12.546385 0,-9.2596646 3.000232,0 c 1.136925,9.3e-6 1.8780343,0.046329 2.22333,0.1389581 0.5305607,0.1389671 0.9748052,0.4421482 1.3327348,0.9095441 0.3579146,0.4632015 0.5368757,1.0632474 0.5368837,1.8001394 -8e-6,0.568471 -0.1031738,1.0464022 -0.3094977,1.4337953 -0.2063393,0.387403 -0.4695173,0.6926895 -0.7895348,0.9158604 -0.3158205,0.2189681 -0.6379504,0.3642424 -0.9663906,0.4358232 -0.4463559,0.088431 -1.0927211,0.1326453 -1.9390975,0.1326418 l -1.2190419,0 0,3.4929023 -1.869618,0 m 1.869618,-7.6932275 0,2.6275719 1.023237,0 c 0.7368948,5e-6 1.2295641,-0.04842 1.4780094,-0.1452744 0.2484347,-0.096844 0.4421338,-0.2484349 0.5810976,-0.4547721 0.143163,-0.2063259 0.2147474,-0.4463442 0.2147535,-0.7200557 -6.1e-6,-0.3368615 -0.098961,-0.6147775 -0.2968651,-0.8337488 -0.1979157,-0.2189569 -0.4484611,-0.3558095 -0.7516371,-0.4105581 -0.22318,-0.042101 -0.6716354,-0.063155 -1.3453673,-0.063163 l -0.903228,0"
           style="font-size:12.93573856px;font-weight:bold;font-family:arial;-inkscape-font-specification:arial"
           id="path3179" />
        <path
           d="m -4.3968842,3.2867204 3.70133923,0 c 0.73268293,9.3e-6 1.27798777,0.031591 1.63591615,0.094744 0.36212662,0.058961 0.68425652,0.1852865 0.96639062,0.3789767 0.2863304,0.1937078 0.5242434,0.452675 0.7137395,0.7769023 0.1894802,0.3200324 0.2842243,0.6800599 0.2842325,1.0800836 -8.2e-6,0.4337243 -0.117912,0.8316494 -0.3537116,1.1937766 -0.2316045,0.3621387 -0.5474181,0.6337384 -0.9474418,0.8148 0.5642467,0.164228 0.9979641,0.4442494 1.3011534,0.840065 0.3031728,0.3958238 0.4547634,0.8611226 0.4547721,1.3958976 -8.7e-6,0.4210876 -0.098964,0.8316456 -0.2968651,1.2316746 -0.1937074,0.395821 -0.4610963,0.71374 -0.8021674,0.953758 -0.3368755,0.235808 -0.7537494,0.381082 -1.2506232,0.435823 -0.31160907,0.03369 -1.06324547,0.05474 -2.2549114,0.06316 l -3.151823,0 0,-9.2596646 m 1.8696184,1.541172 0,2.1412184 1.2253581,0 c 0.72847268,5.6e-6 1.18113886,-0.010522 1.35799988,-0.031581 C 0.37611124,6.8996374 0.62665671,6.7901553 0.80772933,6.6090829 0.9930005,6.4238115 1.0856392,6.1816878 1.0856456,5.8827109 1.0856392,5.5963799 1.005633,5.3647832 0.845627,5.1879202 0.68981943,5.0068611 0.45611736,4.8973791 0.14452008,4.8594738 -0.04076273,4.8384272 -0.57343502,4.8279001 -1.4534984,4.8278924 l -1.0737674,0 m 0,3.6823904 0,2.4759812 1.73066037,0 c 0.67373116,2e-6 1.10113225,-0.01895 1.28220455,-0.05685 C 0.76350927,10.878889 0.98878965,10.756774 1.1614409,10.563073 1.3382901,10.365165 1.4267179,10.101987 1.4267246,9.7735385 1.4267179,9.4956253 1.3593443,9.2598178 1.2246037,9.0661153 1.08985,8.8724198 0.89404557,8.7313564 0.63718981,8.6429246 0.38453294,8.5545007 -0.16708817,8.5102868 -1.0176752,8.5102828 l -1.5095906,0"
           style="font-size:12.93573856px;font-weight:bold;font-family:arial;-inkscape-font-specification:arial"
           id="path3181" />
        <path
           d="M 4.5659158,7.9733991 C 4.5659152,7.0301737 4.7069787,6.2385342 4.9891065,5.5984784 5.1996479,5.1268703 5.4859856,4.7036801 5.8481204,4.3289064 6.2144623,3.9541491 6.6144929,3.6762331 7.0482133,3.4951576 7.6250965,3.2509374 8.2904105,3.1288228 9.0441573,3.1288134 c 1.3643097,9.4e-6 2.4549197,0.4231997 3.2718327,1.269572 0.821107,0.8463887 1.231664,2.0233207 1.231674,3.5307998 -10e-6,1.4948557 -0.406356,2.6654718 -1.219042,3.5118508 -0.812702,0.842171 -1.899101,1.263256 -3.2591996,1.263256 -1.3769524,0 -2.4717729,-0.41898 -3.2844648,-1.25694 C 4.9722621,10.605184 4.5659152,9.4472005 4.5659158,7.9733991 m 1.926465,-0.063163 c -2.5e-6,1.0485059 0.2421213,1.8443562 0.726372,2.3875537 0.4842443,0.53899 1.0990282,0.808485 1.8443534,0.808483 0.745315,2e-6 1.3558878,-0.267387 1.8317208,-0.802167 0.48003,-0.5389864 0.720048,-1.3453638 0.720056,-2.4191348 -8e-6,-1.0611291 -0.23371,-1.8527685 -0.701107,-2.3749207 C 10.450576,4.9879123 9.8336863,4.7268397 9.0631062,4.7268319 8.2925159,4.7268397 7.6714158,4.9921232 7.199804,5.522683 6.7281858,6.0490461 6.4923783,6.8448964 6.4923808,7.9102363"
           style="font-size:12.93573856px;font-weight:bold;font-family:arial;-inkscape-font-specification:arial"
           id="path3183" />
        <path
           d="m 15.019357,12.546385 0,-9.2596646 1.819088,0 3.789767,6.1836367 0,-6.1836367 1.736977,0 0,9.2596646 -1.875935,0 -3.732921,-6.0383625 0,6.0383625 -1.736976,0"
           style="font-size:12.93573856px;font-weight:bold;font-family:arial;-inkscape-font-specification:arial"
           id="path3185" />
        <path
           d="m 24.361131,12.546385 0,-9.2596646 6.34786,0 0,1.5664371 -4.478241,0 0,2.1917487 3.865562,0 0,1.566437 -3.865562,0 0,3.9350418 -1.869619,0"
           style="font-size:12.93573856px;font-weight:bold;font-family:arial;-inkscape-font-specification:arial"
           id="path3187" />
      </g>
    </g>
  </g>
</svg>
