<?xml version="1.0" encoding="UTF-8" standalone="no"?>
<!-- Created with Inkscape (http://www.inkscape.org/) -->

<svg
   xmlns:dc="http://purl.org/dc/elements/1.1/"
   xmlns:cc="http://creativecommons.org/ns#"
   xmlns:rdf="http://www.w3.org/1999/02/22-rdf-syntax-ns#"
   xmlns:svg="http://www.w3.org/2000/svg"
   xmlns="http://www.w3.org/2000/svg"
   xmlns:sodipodi="http://sodipodi.sourceforge.net/DTD/sodipodi-0.dtd"
   xmlns:inkscape="http://www.inkscape.org/namespaces/inkscape"
   width="16px"
   height="16px"
   id="svg2985"
   version="1.1"
   inkscape:version="0.48.4 r9939"
   sodipodi:docname="pfwer.svg">
  <defs
     id="defs2987" />
  <sodipodi:namedview
     id="base"
     pagecolor="#ffffff"
     bordercolor="#666666"
     borderopacity="1.0"
     inkscape:pageopacity="0.0"
     inkscape:pageshadow="2"
     inkscape:zoom="15.696216"
     inkscape:cx="22.146782"
     inkscape:cy="20.978517"
     inkscape:current-layer="text9401"
     showgrid="true"
     inkscape:grid-bbox="true"
     inkscape:document-units="px"
     inkscape:window-width="1535"
     inkscape:window-height="876"
     inkscape:window-x="65"
     inkscape:window-y="24"
     inkscape:window-maximized="1" />
  <metadata
     id="metadata2990">
    <rdf:RDF>
      <cc:Work
         rdf:about="">
        <dc:format>image/svg+xml</dc:format>
        <dc:type
           rdf:resource="http://purl.org/dc/dcmitype/StillImage" />
        <dc:title />
      </cc:Work>
    </rdf:RDF>
  </metadata>
  <g
     id="layer1"
     inkscape:label="Layer 1"
     inkscape:groupmode="layer">
    <g
       style="font-size:40px;font-style:normal;font-weight:normal;line-height:125%;letter-spacing:0px;word-spacing:0px;fill:#000000;fill-opacity:1;stroke:none;font-family:Sans"
       id="text9401"
       transform="matrix(0.3975927,0,0,0.3975927,4.7700178,4.9324522)">
      <g
         transform="scale(0.89972216,1.1114542)"
         style="font-size:11.70741177px;line-height:125%;fill:#000000;font-family:Sans"
         id="text2986">
        <path
           d="m -13.33439,12.273033 0,-9.0579213 2.934866,0 c 1.1121543,9e-6 1.8371168,0.045319 2.1748895,0.1359306 0.5190012,0.1359394 0.9535668,0.4325149 1.3036981,0.8897276 0.3501166,0.4531096 0.5251786,1.0400821 0.5251865,1.7609192 -7.9e-6,0.5560855 -0.100926,1.023604 -0.3027546,1.4025568 -0.2018437,0.3789625 -0.4592878,0.6775977 -0.772333,0.8959063 -0.3089397,0.2141974 -0.6240512,0.3563065 -0.9453356,0.4263278 -0.436631,0.086505 -1.0689136,0.1297553 -1.8968499,0.1297519 l -1.192482,0 0,3.4168011 -1.828885,0 m 1.828885,-7.5256127 0,2.5703243 1.000943,0 c 0.7208401,4.9e-6 1.2027755,-0.047365 1.4458079,-0.1421093 0.243022,-0.094734 0.4325008,-0.2430221 0.568437,-0.4448638 0.1400439,-0.2018306 0.2100687,-0.4366196 0.2100746,-0.7043677 -5.9e-6,-0.3295222 -0.096805,-0.6013831 -0.2903972,-0.8155837 C -8.7642433,4.9966337 -9.0093301,4.8627628 -9.3059007,4.809207 -9.5242182,4.7680234 -9.9629029,4.7474279 -10.621956,4.7474203 l -0.883549,0"
           style="font-size:12.65390396px;font-weight:bold;font-family:arial;-inkscape-font-specification:arial"
           id="path3244" />
        <path
           d="m -4.8696197,12.273033 0,-9.0579213 6.2095573,0 0,1.5323086 -4.3806728,0 0,2.1439965 3.78134242,0 0,1.5323086 -3.78134242,0 0,3.8493076 -1.8288845,0"
           style="font-size:12.65390396px;font-weight:bold;font-family:arial;-inkscape-font-specification:arial"
           id="path3246" />
        <path
           d="M 4.1388714,12.273033 1.976339,3.2151117 l 1.8721352,0 1.3654847,6.2219146 1.655882,-6.2219146 2.1748897,0 1.5879164,6.3269519 1.3902,-6.3269519 1.841242,0 -2.199605,9.0579213 -1.9401003,0 -1.8041699,-6.7718156 -1.7979913,6.7718156 -1.9833511,0"
           style="font-size:12.65390396px;font-weight:bold;font-family:arial;-inkscape-font-specification:arial"
           id="path3248" />
        <path
           d="m 14.790889,12.273033 0,-9.0579213 6.716208,0 0,1.5323086 -4.887324,0 0,2.0080659 4.547497,0 0,1.52613 -4.547497,0 0,2.4652868 5.060326,0 0,1.52613 -6.88921,0"
           style="font-size:12.65390396px;font-weight:bold;font-family:arial;-inkscape-font-specification:arial"
           id="path3250" />
        <path
           d="m 23.249479,12.273033 0,-9.0579213 3.849308,0 c 0.967985,9e-6 1.670292,0.082391 2.106924,0.2471465 0.440738,0.1606539 0.792921,0.4489913 1.056552,0.865013 0.263615,0.4160376 0.395426,0.8917942 0.395434,1.4272714 -8e-6,0.6796589 -0.199785,1.2419167 -0.59933,1.6867753 -0.399561,0.4407491 -0.996831,0.7187887 -1.791813,0.8341196 0.395428,0.2306739 0.720838,0.4839989 0.976229,0.7599757 0.259497,0.2759833 0.607561,0.7661568 1.044194,1.4705218 l 1.105981,1.767098 -2.187247,0 -1.322234,-1.970994 C 27.413894,9.5976743 27.092603,9.1548705 26.919606,8.9736265 26.746599,8.7882701 26.563298,8.6626374 26.369704,8.596728 26.176102,8.5267069 25.869229,8.4916945 25.449084,8.4916907 l -0.37072,0 0,3.7813423 -1.828885,0 m 1.828885,-5.2271496 1.353127,0 c 0.877365,5.2e-6 1.425206,-0.037067 1.643525,-0.111216 0.218307,-0.074139 0.389249,-0.2018308 0.512829,-0.3830772 0.123567,-0.1812349 0.185353,-0.4077857 0.18536,-0.679653 -7e-6,-0.3048074 -0.08239,-0.5498942 -0.247147,-0.735261 C 28.365407,4.9472045 28.136797,4.8277504 27.840227,4.7783137 27.691933,4.7577256 27.24707,4.7474279 26.505635,4.7474203 l -1.427271,0 0,2.2984631"
           style="font-size:12.65390396px;font-weight:bold;font-family:arial;-inkscape-font-specification:arial"
           id="path3252" />
      </g>
    </g>
  </g>
</svg>
