<?xml version="1.0" encoding="UTF-8" standalone="no"?>
<!-- Created with Inkscape (http://www.inkscape.org/) -->

<svg
   xmlns:dc="http://purl.org/dc/elements/1.1/"
   xmlns:cc="http://creativecommons.org/ns#"
   xmlns:rdf="http://www.w3.org/1999/02/22-rdf-syntax-ns#"
   xmlns:svg="http://www.w3.org/2000/svg"
   xmlns="http://www.w3.org/2000/svg"
   xmlns:sodipodi="http://sodipodi.sourceforge.net/DTD/sodipodi-0.dtd"
   xmlns:inkscape="http://www.inkscape.org/namespaces/inkscape"
   width="16px"
   height="16px"
   id="svg2985"
   version="1.1"
   inkscape:version="0.48.4 r9939"
   sodipodi:docname="qfdr.svg">
  <defs
     id="defs2987" />
  <sodipodi:namedview
     id="base"
     pagecolor="#ffffff"
     bordercolor="#666666"
     borderopacity="1.0"
     inkscape:pageopacity="0.0"
     inkscape:pageshadow="2"
     inkscape:zoom="15.696216"
     inkscape:cx="22.146782"
     inkscape:cy="20.978517"
     inkscape:current-layer="text9401"
     showgrid="true"
     inkscape:grid-bbox="true"
     inkscape:document-units="px"
     inkscape:window-width="1535"
     inkscape:window-height="876"
     inkscape:window-x="65"
     inkscape:window-y="24"
     inkscape:window-maximized="1" />
  <metadata
     id="metadata2990">
    <rdf:RDF>
      <cc:Work
         rdf:about="">
        <dc:format>image/svg+xml</dc:format>
        <dc:type
           rdf:resource="http://purl.org/dc/dcmitype/StillImage" />
        <dc:title />
      </cc:Work>
    </rdf:RDF>
  </metadata>
  <g
     id="layer1"
     inkscape:label="Layer 1"
     inkscape:groupmode="layer">
    <g
       style="font-size:40px;font-style:normal;font-weight:normal;line-height:125%;letter-spacing:0px;word-spacing:0px;fill:#000000;fill-opacity:1;stroke:none;font-family:Sans"
       id="text9401"
       transform="matrix(0.3975927,0,0,0.3975927,4.7700178,4.9324522)">
      <g
         transform="scale(0.90433622,1.1057834)"
         style="font-size:14.78477097px;line-height:125%;fill:#000000;font-family:Sans"
         id="text2986">
        <path
           d="m -3.5909325,10.650575 c 0.5669897,0.405745 1.1834072,0.728259 1.8492544,0.967542 l -0.850501,1.630778 c -0.3485343,-0.104038 -0.6892546,-0.247089 -1.0221617,-0.429152 -0.072836,-0.03641 -0.5852168,-0.374533 -1.5371439,-1.014359 -0.7490732,0.327716 -1.5787659,0.491573 -2.4890808,0.491574 -1.7582268,-10e-7 -3.1367135,-0.517583 -4.1354635,-1.55275 -0.993553,-1.0351637 -1.490328,-2.4890767 -1.490327,-4.3617433 -10e-7,-1.8674532 0.499375,-3.3187653 1.49813,-4.3539407 0.99875,-1.04035704 2.3538282,-1.5605406 4.0652384,-1.56055223 1.6957921,1.163e-5 3.0404666,0.52019519 4.0340275,1.56055223 0.9935403,1.0351754 1.4903156,2.4864875 1.4903274,4.3539407 -1.18e-5,0.9883545 -0.1378605,1.857061 -0.4135464,2.6061223 -0.2080848,0.572205 -0.5410022,1.1262 -0.9987534,1.661988 M -5.4479897,9.347514 C -5.1514935,8.9989937 -4.9304155,8.5776451 -4.784755,8.0834667 -4.6339109,7.5892963 -4.5584843,7.0222962 -4.5584749,6.3824647 -4.5584843,5.0612042 -4.8497871,4.0754564 -5.4323841,3.4252182 -6.0149982,2.7697956 -6.7770672,2.44208 -7.7185932,2.4420703 c -0.9415384,9.7e-6 -1.7062083,0.3277253 -2.2940118,0.9831479 -0.582609,0.65544 -0.873912,1.6411878 -0.873909,2.9572465 -3e-6,1.3368775 0.2913,2.3382308 0.873909,3.0040631 0.5878035,0.6606362 1.3290651,0.9909522 2.223787,0.9909502 0.3329113,2e-6 0.6476224,-0.05462 0.9441341,-0.163858 C -7.3128562,9.906714 -7.7888242,9.6674296 -8.2725892,9.4957664 L -7.62496,8.1770998 c 0.7594616,0.2600957 1.4851177,0.6502334 2.1769703,1.1704142"
           style="font-size:15.98005486px;font-weight:bold;font-family:arial;-inkscape-font-specification:arial"
           id="path3309" />
        <path
           d="m -0.36058903,12.101889 0,-11.4388482 7.84177493,0 0,1.9350848 -5.5321576,0 0,2.7075581 4.7752898,0 0,1.9350848 -4.7752898,0 0,4.8611205 -2.30961733,0"
           style="font-size:15.98005486px;font-weight:bold;font-family:arial;-inkscape-font-specification:arial"
           id="path3311" />
        <path
           d="m 9.38506,0.6630408 4.221294,0 c 0.95193,1.144e-5 1.677586,0.0728371 2.17697,0.21847731 0.671029,0.19768099 1.245832,0.54880489 1.72441,1.05337279 0.47856,0.5045882 0.842688,1.1236066 1.092387,1.8570571 0.249678,0.7282653 0.374522,1.6281829 0.374532,2.6997554 -10e-6,0.9415378 -0.117052,1.7530242 -0.351124,2.4344615 -0.286111,0.8322968 -0.694455,1.5059341 -1.225033,2.0209151 -0.400551,0.390139 -0.941542,0.694446 -1.622975,0.912923 -0.509787,0.161257 -1.191228,0.241886 -2.044323,0.241886 l -4.346138,0 0,-11.4388482 m 2.309617,1.9350848 0,7.5764814 1.72441,0 c 0.645023,2e-6 1.110587,-0.03641 1.396695,-0.109239 C 15.190307,9.971737 15.499817,9.813081 15.74431,9.5893996 15.993991,9.3657231 16.196862,8.9989937 16.352926,8.4892102 16.508973,7.9742321 16.587,7.2745852 16.587009,6.3902675 16.587,5.5059612 16.508973,4.8271216 16.352926,4.3537468 16.196862,3.8803875 15.978385,3.5110572 15.697494,3.2457547 15.416587,2.98047 15.060261,2.8010067 14.628515,2.7073642 14.305995,2.6345479 13.673972,2.5981351 12.732445,2.5981256 l -1.037768,0"
           style="font-size:15.98005486px;font-weight:bold;font-family:arial;-inkscape-font-specification:arial"
           id="path3313" />
        <path
           d="m 20.948752,12.101889 0,-11.4388482 4.86112,0 c 1.222425,1.144e-5 2.109338,0.10404815 2.660741,0.31211044 0.556588,0.20288276 1.001345,0.56701116 1.334273,1.09238656 0.332907,0.5253954 0.499366,1.1262074 0.499376,1.8024378 -10e-6,0.8583111 -0.252299,1.5683617 -0.756868,2.1301538 -0.504587,0.5566025 -1.258854,0.9077264 -2.2628,1.0533728 0.499368,0.2913078 0.910313,0.6112207 1.232836,0.9597396 0.327707,0.3485271 0.767262,0.9675455 1.318667,1.8570572 l 1.396694,2.23159 -2.762178,0 -1.66979,-2.4890812 C 26.207806,8.7232965 25.802063,8.1640991 25.583592,7.9352142 25.365109,7.7011358 25.133627,7.5424798 24.889146,7.4592458 24.644655,7.3708192 24.257118,7.3266036 23.726535,7.3265988 l -0.468166,0 0,4.7752902 -2.309617,0 m 2.309617,-6.6011363 1.708805,0 c 1.107985,6.6e-6 1.79983,-0.04681 2.075534,-0.1404497 0.27569,-0.093626 0.491566,-0.2548832 0.647629,-0.4837712 0.156047,-0.2288735 0.234075,-0.5149745 0.234083,-0.8583037 -8e-6,-0.3849278 -0.104045,-0.694437 -0.31211,-0.9285286 -0.20288,-0.2392754 -0.491582,-0.3901286 -0.866107,-0.4525601 -0.187273,-0.026 -0.749071,-0.039004 -1.685396,-0.039014 l -1.802438,0 0,2.9026271"
           style="font-size:15.98005486px;font-weight:bold;font-family:arial;-inkscape-font-specification:arial"
           id="path3315" />
      </g>
    </g>
  </g>
</svg>
