<?xml version="1.0" encoding="UTF-8" standalone="no"?>
<!-- Created with Inkscape (http://www.inkscape.org/) -->

<svg
   xmlns:dc="http://purl.org/dc/elements/1.1/"
   xmlns:cc="http://creativecommons.org/ns#"
   xmlns:rdf="http://www.w3.org/1999/02/22-rdf-syntax-ns#"
   xmlns:svg="http://www.w3.org/2000/svg"
   xmlns="http://www.w3.org/2000/svg"
   xmlns:sodipodi="http://sodipodi.sourceforge.net/DTD/sodipodi-0.dtd"
   xmlns:inkscape="http://www.inkscape.org/namespaces/inkscape"
   width="16px"
   height="16px"
   id="svg2985"
   version="1.1"
   inkscape:version="0.48.4 r9939"
   sodipodi:docname="registration.svg">
  <defs
     id="defs2987" />
  <sodipodi:namedview
     id="base"
     pagecolor="#ffffff"
     bordercolor="#666666"
     borderopacity="1.0"
     inkscape:pageopacity="0.0"
     inkscape:pageshadow="2"
     inkscape:zoom="15.696216"
     inkscape:cx="-0.25043033"
     inkscape:cy="8.2775104"
     inkscape:current-layer="layer1"
     showgrid="true"
     inkscape:grid-bbox="true"
     inkscape:document-units="px"
     inkscape:window-width="1535"
     inkscape:window-height="876"
     inkscape:window-x="65"
     inkscape:window-y="24"
     inkscape:window-maximized="1" />
  <metadata
     id="metadata2990">
    <rdf:RDF>
      <cc:Work
         rdf:about="">
        <dc:format>image/svg+xml</dc:format>
        <dc:type
           rdf:resource="http://purl.org/dc/dcmitype/StillImage" />
        <dc:title></dc:title>
      </cc:Work>
    </rdf:RDF>
  </metadata>
  <g
     id="layer1"
     inkscape:label="Layer 1"
     inkscape:groupmode="layer">
    <path
       style="font-size:medium;font-style:normal;font-variant:normal;font-weight:normal;font-stretch:normal;text-indent:0;text-align:start;text-decoration:none;line-height:normal;letter-spacing:normal;word-spacing:normal;text-transform:none;direction:ltr;block-progression:tb;writing-mode:lr-tb;text-anchor:start;baseline-shift:baseline;color:#000000;fill:#000000;fill-opacity:1;stroke:none;stroke-width:2.64739895;marker:none;visibility:visible;display:inline;overflow:visible;enable-background:accumulate;font-family:Sans;-inkscape-font-specification:Sans"
       d="m 11.279044,2.7061753 c -2.4498447,0 -4.4678117,2.0179672 -4.4678117,4.4678107 0,2.4498441 2.017967,4.446331 4.4678117,4.446331 2.449842,0 4.44633,-1.9964869 4.44633,-4.446331 0,-2.4498435 -1.996488,-4.4678107 -4.44633,-4.4678107 z m 0,1.8257881 c 1.466401,0 2.620542,1.1756203 2.620542,2.6420226 0,1.4664021 -1.154141,2.642022 -2.620542,2.642022 -1.4664036,0 -2.6420238,-1.1756199 -2.6420238,-2.642022 0,-1.4664023 1.1756202,-2.6420226 2.6420238,-2.6420226 z"
       id="path3079-8"
       inkscape:connector-curvature="0" />
    <path
       style="font-size:medium;font-style:normal;font-variant:normal;font-weight:normal;font-stretch:normal;text-indent:0;text-align:start;text-decoration:none;line-height:normal;letter-spacing:normal;word-spacing:normal;text-transform:none;direction:ltr;block-progression:tb;writing-mode:lr-tb;text-anchor:start;baseline-shift:baseline;color:#000000;fill:#000000;fill-opacity:1;stroke:none;stroke-width:2.64739895;marker:none;visibility:visible;display:inline;overflow:visible;enable-background:accumulate;font-family:Sans;-inkscape-font-specification:Sans"
       d="m 8.199459,5.7917762 c -2.3951337,0 -4.3680354,1.9729018 -4.3680354,4.3680348 0,2.395135 1.9729017,4.347035 4.3680354,4.347035 2.395133,0 4.347036,-1.9519 4.347036,-4.347035 0,-2.395133 -1.951903,-4.3680348 -4.347036,-4.3680348 z m 0,1.7850145 c 1.4336545,0 2.56202,1.149366 2.56202,2.5830203 0,1.433654 -1.1283655,2.583021 -2.56202,2.583021 -1.4336548,0 -2.583021,-1.149367 -2.583021,-2.583021 0,-1.4336543 1.1493662,-2.5830203 2.583021,-2.5830203 z"
       id="path3079-8-1"
       inkscape:connector-curvature="0" />
    <g
       id="g9393"
       transform="translate(3.7588676,-6.4983813)">
      <path
         style="fill:#010101"
         d="m 0.07818047,13.470986 c -0.2149967,-0.242021 -0.39863963,-0.444047 -0.40809533,-0.448946 -0.0155273,-0.008 -0.1048121,0.06893 -0.92196134,0.794833 l -0.9047692,0.803741 -0.6982914,-0.786065 -0.6982914,-0.786065 0.9047692,-0.803741 c 0.8171492,-0.725905 0.9041087,-0.805496 0.8979494,-0.821863 -0.00375,-0.01 -0.1827261,-0.21614 -0.3977228,-0.458161 -0.2286923,-0.257438 -0.3866597,-0.441693 -0.3806771,-0.444027 0.019217,-0.0075 4.0347751,-0.5676748 4.0385806,-0.563391 0.00381,0.00428 -1.02571363,3.925839 -1.03542153,3.944039 -0.00302,0.0057 -0.1673768,-0.172915 -0.3960691,-0.430354 z"
         id="path9395"
         inkscape:connector-curvature="0" />
    </g>
  </g>
</svg>
