<?xml version="1.0" encoding="UTF-8" standalone="no"?>
<!-- Created with Inkscape (http://www.inkscape.org/) -->

<svg
   xmlns:dc="http://purl.org/dc/elements/1.1/"
   xmlns:cc="http://creativecommons.org/ns#"
   xmlns:rdf="http://www.w3.org/1999/02/22-rdf-syntax-ns#"
   xmlns:svg="http://www.w3.org/2000/svg"
   xmlns="http://www.w3.org/2000/svg"
   xmlns:sodipodi="http://sodipodi.sourceforge.net/DTD/sodipodi-0.dtd"
   xmlns:inkscape="http://www.inkscape.org/namespaces/inkscape"
   width="16px"
   height="16px"
   id="svg2985"
   version="1.1"
   inkscape:version="0.48.4 r9939"
   sodipodi:docname="motionparams.svg">
  <defs
     id="defs2987" />
  <sodipodi:namedview
     id="base"
     pagecolor="#ffffff"
     bordercolor="#666666"
     borderopacity="1.0"
     inkscape:pageopacity="0.0"
     inkscape:pageshadow="2"
     inkscape:zoom="22.197802"
     inkscape:cx="7.4396282"
     inkscape:cy="12.597907"
     inkscape:current-layer="g8187"
     showgrid="true"
     inkscape:grid-bbox="true"
     inkscape:document-units="px"
     inkscape:window-width="1535"
     inkscape:window-height="876"
     inkscape:window-x="65"
     inkscape:window-y="24"
     inkscape:window-maximized="1" />
  <metadata
     id="metadata2990">
    <rdf:RDF>
      <cc:Work
         rdf:about="">
        <dc:format>image/svg+xml</dc:format>
        <dc:type
           rdf:resource="http://purl.org/dc/dcmitype/StillImage" />
        <dc:title></dc:title>
      </cc:Work>
    </rdf:RDF>
  </metadata>
  <g
     id="layer1"
     inkscape:label="Layer 1"
     inkscape:groupmode="layer">
    <path
       style="fill:#000000;fill-opacity:1;stroke:none"
       d=""
       id="path4700"
       inkscape:connector-curvature="0" />
    <g
       id="g8187"
       transform="translate(5.9568496,1.5608857)">
      <path
         style="font-size:medium;font-style:normal;font-variant:normal;font-weight:normal;font-stretch:normal;text-indent:0;text-align:start;text-decoration:none;line-height:normal;letter-spacing:normal;word-spacing:normal;text-transform:none;direction:ltr;block-progression:tb;writing-mode:lr-tb;text-anchor:start;baseline-shift:baseline;color:#000000;fill-opacity:1;fill-rule:nonzero;stroke:none;stroke-width:1;marker:none;visibility:visible;display:inline;overflow:visible;enable-background:accumulate;font-family:Sans;-inkscape-font-specification:Sans"
         d="m 19.9375,-7.1875 0,0.5 0,6.1875 -0.1875,0 0.1875,0.1875 0,0.78125 0,7.1875 0,0.5 0.5,0 8,0 8,0 0.5,0 0,-0.5 0,-7.1875 0,-7.15625 0,-0.5 -0.5,0 -8,0 -8,0 -0.5,0 z m 1,1 5.75,0 c -0.03018,0.02191 -0.06526,0.035974 -0.09375,0.0625 -0.07913,0.073684 -0.21875,0.1167278 -0.21875,0.4375 0,0.1535351 0.01256,0.211348 0.03125,0.25 0.01869,0.038652 0.04723,0.040298 0.0625,0.0625 -0.008,0.023257 -0.026,0.039226 -0.03125,0.0625 -0.08172,-0.2055718 -0.199699,-0.3367304 -0.3125,-0.40625 -0.05535,-0.034116 -0.1813,-0.00175 -0.25,-0.03125 0.03885,0.030415 0.08523,0.081583 0.09375,0.09375 -0.0513,-0.073231 -0.122016,-0.08216 -0.1875,-0.125 -0.08301,-0.016576 -0.10642,-0.07682 -0.25,-0.03125 0.03026,-0.0096 0.116796,-0.0071 0.1875,0 -0.07648,-0.038433 -0.13744,-0.1169216 -0.21875,-0.125 -0.0085,-8.46e-4 -0.02255,5.275e-4 -0.03125,0 l -0.03125,-0.03125 -0.03125,0.0625 c -0.104728,0.00347 -0.209974,0.059833 -0.3125,0.125 -0.05126,0.032583 -0.112432,0.0097 -0.15625,0.0625 -0.191028,0.067959 -0.402466,0.1283057 -0.5,0.34375 -0.0478,0.1055745 0.05222,0.1995105 0.0625,0.3125 5.04e-4,0.00853 -9.28e-4,0.023239 0,0.03125 0.01405,0.1213012 0.05728,0.2131033 0.09375,0.28125 0.03631,0.066663 -0.01806,0.1694357 0.03125,0.21875 0.09942,0.099413 0.300341,0.1549413 0.46875,0.1875 0.0042,8.191e-4 -0.0042,0.030516 0,0.03125 -0.06026,0.043745 -0.0188,0.1289101 -0.0625,0.1875 -0.0125,0.014292 -0.05037,0.016978 -0.0625,0.03125 -0.10424,0.00279 -0.20066,-0.046738 -0.28125,0 -0.139544,0.080929 -0.188248,0.181876 -0.25,0.28125 -0.04865,-0.060512 -0.102143,-0.1073245 -0.15625,-0.15625 -0.05411,-0.048926 -0.0432,-0.1218656 -0.25,-0.1875 -0.100809,-0.031994 -0.117382,0.026901 -0.1875,0.03125 -0.0616,-0.068414 -0.08023,-0.149065 -0.1875,-0.1875 0.162423,0.00148 0.323665,-0.051044 0.40625,-0.09375 0.180513,-0.093347 0.237112,-0.1892424 0.3125,-0.3125 0.03769,-0.061629 0.06995,-0.1250775 0.09375,-0.21875 0.0238,-0.093673 0.07766,-0.2447407 -0.03125,-0.4375 -0.05067,-0.089693 -0.186392,-0.113282 -0.28125,-0.1875 -0.02273,-0.018093 -0.03956,-0.050198 -0.0625,-0.0625 -0.03545,-0.019011 -0.06162,0.010534 -0.09375,0 -0.0025,-0.00468 0.0033,-0.026156 0,-0.03125 -0.0086,-0.0043 -0.02256,0.00402 -0.03125,0 -0.0087,-0.00402 -0.02246,0.00372 -0.03125,0 -0.05667,-0.079089 -0.144028,-0.084226 -0.21875,-0.125 -0.0047,-0.00256 0.0047,-0.028822 0,-0.03125 -0.08335,-0.042739 -0.16759,-0.1191137 -0.25,-0.125 -0.0846,-0.00604 -0.16263,0.064112 -0.25,0.09375 -0.171458,0.00231 -0.164758,0.013327 -0.21875,0.03125 -0.05399,0.017923 -0.100566,0.037224 -0.15625,0.0625 -0.07348,0.033353 -0.216518,0.073207 -0.34375,0.25 -0.127232,0.1767926 -0.09375,0.3325984 -0.09375,0.40625 -0.0087,-0.1213128 -0.130627,-0.1311722 -0.1875,-0.21875 -0.0136,-0.028655 0.01802,-0.072908 0,-0.09375 -0.05244,-0.060652 -0.08702,-0.039903 -0.125,-0.0625 -0.08788,-0.068306 -0.0752,-0.2253355 -0.1875,-0.25 0.129053,0.028345 -0.02504,-0.026312 -0.03125,-0.03125 -0.07846,-0.062353 -0.129732,-0.1700112 -0.4375,-0.1875 -0.153884,-0.00874 -0.303606,0.068915 -0.375,0.125 -0.0357,0.028043 -0.04357,0.042571 -0.0625,0.0625 0.02155,-0.012363 0.05116,-0.03125 0.1875,-0.03125 -0.128113,0 -0.177023,0.059214 -0.25,0.09375 l 0,-0.5 z m 7.3125,0 0.1875,0 0.25,0 c -0.09825,0.064324 -0.191935,0.1420778 -0.25,0.28125 -0.02539,-0.075452 -0.0094,-0.1601795 -0.0625,-0.21875 -0.04606,-0.050835 -0.08423,-0.03624 -0.125,-0.0625 z m 2.03125,0 0.21875,0 c -0.04092,0.050875 0.0017,0.1572706 -0.03125,0.21875 -0.04702,-0.096803 -0.120391,-0.1624935 -0.1875,-0.21875 z m 2.125,0 0.09375,0 c -0.01875,0.023209 -0.04095,0.026295 -0.0625,0.0625 -0.01109,-0.01839 -0.01848,-0.043994 -0.03125,-0.0625 z m 1.96875,0 0.125,0 c -0.01657,0.020079 -0.04704,0.041168 -0.0625,0.0625 -0.01493,-0.022178 -0.04586,-0.041068 -0.0625,-0.0625 z m -7.34375,0.125 c 0.02962,-0.00348 0.112818,0.017518 0.1875,0.0625 -0.02296,0.039059 -0.08091,0.053301 -0.09375,0.09375 -0.0095,0.029986 0.0044,0.061662 0,0.09375 l -0.03125,0.03125 -0.03125,0 0,0.03125 c -0.029,0.024912 -0.06966,0.031813 -0.09375,0.0625 -0.02974,0.037886 -0.104561,0.015954 -0.125,0.0625 0.0069,-0.015667 0.01802,-0.044332 0.03125,-0.0625 0.03088,-0.042392 0.08536,-0.065025 0.125,-0.09375 -0.07185,0.012184 -0.144689,0.062016 -0.21875,0.09375 0.001,-0.067429 0.01771,-0.1534578 0.03125,-0.1875 0.02019,-0.050754 0.0365,-0.039208 0.03125,-0.03125 0.09383,-0.1420894 0.147455,-0.1515509 0.1875,-0.15625 z m 0.6875,0.03125 c 0.06685,-0.035777 0.111236,-0.035748 0.1875,0 0.01674,0.00785 0.04169,0.046066 0.0625,0.0625 0.02659,0.021 0.06773,0.017836 0.09375,0.0625 0.02801,0.048086 0.02849,0.1216832 0.03125,0.1875 -0.06682,-0.03165 -0.142823,-0.077702 -0.21875,-0.09375 0.05548,0.030357 0.100028,0.085002 0.125,0.125 0.0035,0.00556 -0.0018,0.02739 0,0.03125 -0.02614,-0.057372 -0.08634,-0.050685 -0.125,-0.09375 -0.0173,-0.019277 -0.04318,-0.014801 -0.0625,-0.03125 -0.0074,-0.0063 -0.02359,0.00589 -0.03125,0 -0.0047,-0.0036 0.0048,-0.027806 0,-0.03125 -0.02424,-0.1056148 -0.06091,-0.1107513 -0.09375,-0.15625 0.02189,-0.016292 0.0011,-0.046375 0.03125,-0.0625 z m 2,0 c -0.0303,0.00562 0.0025,-0.00696 0.125,0.03125 0.122471,0.038208 0.221054,0.1282901 0.21875,0.125 0.006,0.00859 -0.0028,0.084635 0,0.15625 -0.03841,-0.017734 -0.05551,-0.082545 -0.09375,-0.09375 -0.0213,-0.00624 -0.04209,0.00555 -0.0625,0 0.0055,0.00439 0.0266,0.028006 0.03125,0.03125 l 0.03125,0 c 0.01034,0.00865 0.02684,0.026748 0.03125,0.03125 0.01469,0.015007 -0.0028,0.026867 0,0.03125 -0.01128,-0.017873 -0.04906,-0.013968 -0.0625,-0.03125 -0.0033,-0.00422 0.0034,-0.027072 0,-0.03125 -0.01054,-0.012914 -0.05083,0.012386 -0.0625,0 -0.0038,-0.00401 0.0039,-0.027307 0,-0.03125 l 0.03125,0 c -0.02296,-0.00624 -0.04131,-0.026051 -0.0625,-0.03125 -0.01288,-0.011622 -0.04863,0.010818 -0.0625,0 -0.01016,-0.00334 -0.01875,0.00284 -0.03125,0 -0.0019,-0.010218 0.0023,-0.021113 0,-0.03125 -0.0023,-0.010137 0.0027,-0.021214 0,-0.03125 -0.0079,-0.028913 -0.05121,-0.034759 -0.0625,-0.0625 0.01015,-0.00927 0.0016,-0.033242 0,-0.03125 -0.0032,0.00398 0.01839,-0.028865 0.03125,-0.03125 z M 29.15625,-6 c 0.0091,0.00295 0.02076,0.026494 0.03125,0.03125 -0.01336,0.029697 -0.05392,0.030092 -0.0625,0.0625 -0.06059,0.03651 -0.143179,0.045315 -0.1875,0.09375 l 0,-0.03125 c -0.02071,0.00703 -0.0423,0.024256 -0.0625,0.03125 0.0052,-0.020949 -0.04129,-0.04718 -0.03125,-0.0625 0.102154,-0.1559068 0.247303,-0.1460398 0.3125,-0.125 z M 31,-6 c 0.0092,0.00262 0.0437,0.056401 0.0625,0.0625 -0.03637,0.025241 -0.08936,0.033044 -0.125,0.0625 0.02577,-0.045523 0.04668,-0.076796 0.0625,-0.09375 0.01265,-0.013563 -0.0078,-0.024393 0,-0.03125 z m 2.90625,0 c 0.0014,7.418e-4 0.03042,1.689e-4 0.03125,0 0,0 -0.03125,0.03125 -0.03125,0.03125 0.02625,0.010092 0.05421,0.01904 0.03125,0 -0.04848,-0.0402 -0.0024,-0.050836 0.0625,0.125 -0.02234,-0.030966 -0.06242,-0.031971 -0.09375,-0.0625 -0.0063,-0.00611 0.0066,-0.025311 0,-0.03125 0.0018,7.556e-4 -0.0014,-0.031996 0,-0.03125 l 0,-0.03125 z M 31.875,-5.96875 c 0.0062,0.00371 0.02485,-0.00423 0.03125,0 0.03519,0.023292 0.06602,0.058061 0.09375,0.09375 0.02563,0.032985 0.02151,0.039752 0.03125,0.0625 0.0058,0.013649 0.02901,0.023526 0.03125,0.03125 -0.01966,-0.00952 -0.04279,0.00955 -0.0625,0 0.0079,0.00764 0.01749,0.013886 0.03125,0.03125 0.0055,0.00695 -0.0081,0.052967 0,0.0625 -0.01449,-0.025696 -0.01613,-0.07445 -0.03125,-0.09375 -0.0049,-0.00239 0.0048,-0.028912 0,-0.03125 -0.0029,-0.00241 -0.02918,0.00169 -0.03125,0 -0.0042,-0.00501 0.004,-0.026647 0,-0.03125 -0.02472,-0.028459 -0.03938,-0.042955 -0.0625,-0.0625 -0.01798,-0.015202 -0.04495,-0.019328 -0.0625,-0.03125 0.01297,-0.00937 0.01969,-0.024847 0.03125,-0.03125 z m 1.125,0 c 0.006,0.00234 0.02322,0.028253 0.03125,0.03125 -0.01969,0.013883 -0.04576,0.017101 -0.0625,0.03125 0.01549,-0.020683 0.01,-0.042966 0.03125,-0.0625 z m 1.90625,0.125 c -0.02764,0.00963 -0.03551,0.049977 -0.0625,0.0625 l 0,-0.03125 c 0.01258,-0.00896 0.03679,-0.022286 0.0625,-0.03125 z m -3.875,0.03125 c -0.08295,0 -0.09775,0.044766 -0.15625,0.0625 0.0019,-0.013394 -0.0023,-0.019208 0,-0.03125 -0.01004,0.00595 -0.08131,-0.03125 0.15625,-0.03125 z m 1.90625,0 c 0.02694,-0.00865 0.02624,0 0.09375,0 -0.03171,0 -0.03387,0.02791 -0.0625,0.03125 -0.04038,0.00471 -0.05884,0.020894 -0.09375,0.03125 0.0017,-0.00638 -0.0021,-0.024416 0,-0.03125 0.0091,-0.00549 0.04304,-0.025004 0.0625,-0.03125 z m -4.5,0.25 c 0.01516,0.063178 -0.02876,0.1353005 0,0.1875 -0.02118,-0.0323 -0.03781,-0.069018 -0.0625,-0.09375 0.01443,-0.035756 0.05524,-0.054917 0.0625,-0.09375 z M 22.40625,-5 c 0.0051,0.076307 0.01357,0.1515717 0.0625,0.25 0.06648,0.1337341 0.154146,0.1990863 0.21875,0.25 0.109023,0.085923 0.238339,0.1618931 0.40625,0.1875 0.08797,0.013416 0.204037,-0.057479 0.3125,-0.09375 0.05768,0.033265 0.07267,0.07836 0.15625,0.09375 -0.164243,-0.02648 -0.307953,-0.022723 -0.40625,0.03125 -0.05743,0.031533 -0.107178,0.1065962 -0.15625,0.15625 -0.09054,-1.11e-4 -0.174961,-0.00616 -0.25,0.03125 -0.149497,0.074531 -0.19316,0.1254479 -0.25,0.1875 -0.04431,0.048372 -0.02655,0.1317099 -0.0625,0.1875 -0.04949,-0.074636 -0.06654,-0.1659353 -0.125,-0.21875 -0.06463,-0.058386 -0.0846,-0.1536521 -0.3125,-0.21875 -0.113953,-0.032549 -0.266918,0.00655 -0.34375,0.03125 -0.07683,0.024696 -0.09853,0.048812 -0.125,0.0625 -0.04477,0.02315 -0.05878,0.072779 -0.09375,0.09375 -0.01643,-0.011276 -0.0145,-0.052063 -0.03125,-0.0625 -0.104857,-0.06534 -0.268977,-0.1222831 -0.46875,-0.09375 l 0,-0.3125 c 0.05329,0.027529 0.06745,0.0625 0.1875,0.0625 0.15035,0 0.182622,-0.017092 0.21875,-0.03125 0.03613,-0.014158 0.06744,-0.017505 0.09375,-0.03125 0.05785,0.028481 0.0354,0.0625 0.28125,0.0625 0.216135,0 0.2541,-0.058521 0.3125,-0.09375 0.0584,-0.035229 0.112824,-0.055555 0.15625,-0.09375 0.04343,-0.038195 0.08144,-0.069135 0.125,-0.125 0.03594,-0.046088 0.0715,-0.1501861 0.09375,-0.3125 z m 4.5625,0.0625 c 0.0029,0.080895 0.09379,0.1336339 0.125,0.21875 -0.02217,-0.00438 -0.03583,-0.051638 -0.0625,-0.0625 -0.01888,-0.026755 -0.02225,-0.043852 -0.03125,-0.0625 -0.018,-0.037297 -0.02655,-0.076108 -0.03125,-0.09375 z m 0.15625,0 c 0,0.010688 0.03056,0.01978 0.03125,0.03125 0.001,0.017205 -0.0028,0.043927 0,0.0625 C 27.14189,-4.8644346 27.125,-4.8651913 27.125,-4.9375 z m 1.34375,0.0625 c 0.0738,0.205632 0.144901,0.4226267 0.3125,0.53125 0.03361,0.021783 0.08776,0.013258 0.125,0.03125 -0.04919,0.056233 -0.09445,0.1200316 -0.125,0.1875 -0.146884,0.079245 -0.235813,0.1653663 -0.34375,0.3125 -0.05086,-0.076733 -0.08915,-0.146258 -0.1875,-0.21875 -0.0339,-0.024986 -0.08242,-0.013736 -0.125,-0.03125 -0.01735,-0.057618 -0.08374,-0.2084906 -0.1875,-0.3125 0.04691,-0.019668 0.115534,0.024828 0.15625,0 0.169752,-0.1035171 0.242654,-0.1999934 0.3125,-0.3125 0.02971,-0.047854 0.03726,-0.1338668 0.0625,-0.1875 z m 4,0.03125 c 0.08019,0.1810994 0.110274,0.4051651 0.25,0.5 -0.01928,0.013889 -0.04393,0.015989 -0.0625,0.03125 -0.111356,0.091501 -0.131798,0.2754712 -0.1875,0.4375 -0.01429,0.016897 -0.02486,0.048878 -0.03125,0.0625 -0.0286,-0.1465473 -0.0148,-0.2960695 -0.09375,-0.375 -0.05372,-0.053716 -0.176364,-0.1125562 -0.28125,-0.15625 0.06932,-0.044111 0.16771,-0.07396 0.21875,-0.125 0.09313,-0.093131 0.129866,-0.241147 0.1875,-0.375 z m -6.0625,0.03125 c 0.09655,0.2769551 0.299636,0.4173429 0.5,0.5 -0.06298,0.075645 -0.103061,0.1499959 -0.125,0.21875 -0.09769,0.046896 -0.210215,0.1130683 -0.25,0.15625 -0.03989,0.043299 -0.06525,0.082668 -0.09375,0.125 -0.05065,-0.093246 -0.06648,-0.1783445 -0.25,-0.28125 -0.06605,-0.037037 -0.144161,0.01103 -0.21875,0 -0.03232,-0.076439 -0.06462,-0.1447702 -0.15625,-0.21875 0.07725,-3.364e-4 0.12862,0.019184 0.28125,-0.0625 0.211371,-0.1131238 0.251873,-0.2478529 0.3125,-0.375 0.0073,-0.015354 -0.0073,-0.047001 0,-0.0625 z m 4,0 c 0.02555,0.051807 0.03275,0.1403952 0.0625,0.1875 0.07437,0.117762 0.118947,0.2073385 0.3125,0.3125 0.03525,0.019154 0.06153,0.018383 0.09375,0.03125 -0.0098,0.010864 -0.02187,0.019602 -0.03125,0.03125 -0.09614,0.030087 -0.224973,-0.02723 -0.28125,0.03125 -0.03563,0.037026 -0.0063,0.085973 -0.03125,0.125 l -0.40625,0 c -0.01307,-0.00735 -0.01779,-0.024494 -0.03125,-0.03125 -0.03077,-0.073793 -0.06556,-0.1531315 -0.125,-0.21875 0.130479,-0.065299 0.282271,-0.108548 0.375,-0.21875 0.05124,-0.060899 0.02684,-0.1708869 0.0625,-0.25 z M 34.5,-4.78125 c 0.07261,0.1534138 0.08302,0.3424996 0.21875,0.4375 -0.05328,0.044717 -0.144771,0.072443 -0.1875,0.125 -0.04036,0.049644 -0.03026,0.1288331 -0.0625,0.1875 -0.06923,-0.1393137 -0.123849,-0.1916881 -0.1875,-0.25 -0.07616,-0.069776 -0.213473,-0.047646 -0.3125,-0.09375 0.05573,-0.025187 0.07866,-0.090767 0.125,-0.125 0.09102,-0.06551 0.246005,-0.00196 0.3125,-0.09375 0.04008,-0.055336 0.06067,-0.1177609 0.09375,-0.1875 z m -2.46875,0.5 c -7.34e-4,-4.503e-4 0.05509,0.056348 0.09375,0.09375 -0.02401,-0.012329 -0.04181,0.00712 -0.0625,0 -0.01748,-0.030573 -0.01034,-0.065605 -0.03125,-0.09375 z m -4.1875,0.125 c 0.01696,0.00205 0.01059,-0.00468 0.03125,0 0.04462,0.010108 0.05499,0.038302 0.09375,0.0625 -0.0466,-0.00821 -0.08059,-0.030609 -0.125,-0.03125 -0.0044,-0.00903 0.0052,-0.022184 0,-0.03125 z M 23.375,-4.0625 c 0.04309,-0.0036 0.08279,-0.00812 0.125,0 -0.01445,0.010242 -0.04865,0.021584 -0.0625,0.03125 -0.0153,0.010679 -0.01571,0.051404 -0.03125,0.0625 -0.02076,-0.017944 -0.03409,-0.045818 -0.0625,-0.0625 0.01381,-0.00545 0.0177,-0.028062 0.03125,-0.03125 z m 2.0625,0.03125 c 0.01705,-9.57e-5 0.0424,0.027444 0.0625,0.03125 -0.01247,0.00941 -0.01957,0.021118 -0.03125,0.03125 -0.0099,-0.00941 -0.02049,-0.022219 -0.03125,-0.03125 -0.005,-0.00417 0.0052,-0.02715 0,-0.03125 z m -0.125,0.1875 c 0.01035,-0.00281 0.0204,0.00228 0.03125,0 -0.0046,0.00677 0.0043,0.024341 0,0.03125 -0.01071,-0.00663 -0.01941,-0.02501 -0.03125,-0.03125 z m 9.4375,0 0.03125,0.125 c -0.05766,0.05292 -0.126169,0.081354 -0.15625,0.15625 0.01417,-0.047147 -0.01753,-0.1278781 0,-0.15625 0.01734,-0.028065 0.03057,-0.03235 0.0625,-0.0625 0.01597,-0.015075 0.0222,-0.038164 0.0625,-0.0625 z m -1.1875,0.28125 c 0.0066,-0.00471 0.02469,0.00529 0.03125,0 0.0021,0.01059 -0.0025,0.020752 0,0.03125 l 0,0.03125 c -0.01888,-4.969e-4 -0.05118,0.034222 -0.0625,0.03125 l 0,-0.0625 0.03125,-0.03125 z m 2.125,0.03125 c 0.0049,0.00967 -0.0036,0.02264 0,0.03125 -0.01267,4.223e-4 -0.05572,0.0304 -0.0625,0.03125 0.02972,-0.012008 0.03253,-0.058026 0.0625,-0.0625 z m -8.25,0.40625 c 0.0089,-7.88e-5 0.02271,2.845e-4 0.03125,0 -0.0042,0.00118 0.0038,0.030257 0,0.03125 -0.0045,0.00119 -0.02733,-0.00114 -0.03125,0 -0.0012,-0.010782 0.0018,-0.020437 0,-0.03125 z m 1.71875,0.03125 c 0.0013,-0.00407 0.02986,0.00414 0.03125,0 -0.0046,0.014763 -0.02827,0.016575 -0.03125,0.03125 0.0011,-0.00315 -3.89e-4,-0.024541 0,-0.03125 z M 26.46875,-2.5 c 0.07595,0.148434 0.02281,0.3435008 0.15625,0.46875 0.02278,0.021378 0.06885,0.040828 0.09375,0.0625 -0.0811,0.070806 -0.194293,0.1047916 -0.25,0.1875 -0.04752,0.070545 -0.05992,0.1687014 -0.09375,0.25 -0.01132,-0.030625 -0.01694,-0.06487 -0.03125,-0.09375 -0.02425,-0.031454 -0.02879,-0.085727 -0.0625,-0.125 -0.0405,-0.04718 -0.06301,-0.035488 -0.09375,-0.0625 -0.03653,-0.039441 -0.049,-0.091689 -0.09375,-0.125 0.169841,-0.112665 0.240412,-0.3129249 0.3125,-0.5 0.01056,-0.027406 0.05448,-0.033966 0.0625,-0.0625 z m -4,0.09375 c 0.07138,0.1582778 0.149262,0.3001047 0.28125,0.40625 -0.120249,0.087674 -0.247857,0.1719341 -0.3125,0.28125 -0.01057,-0.015273 -0.02101,-0.047002 -0.03125,-0.0625 -0.05301,-0.080199 -0.16815,-0.147827 -0.25,-0.21875 0.08855,-0.069778 0.194608,-0.1066608 0.25,-0.1875 0.03547,-0.051772 0.03383,-0.1494451 0.0625,-0.21875 z m 2,0.03125 c 0.05755,0.1273381 0.03873,0.2718151 0.15625,0.375 0.0204,0.017912 0.06646,0.014121 0.09375,0.03125 -0.08416,0.077015 -0.196665,0.131359 -0.25,0.21875 -0.01103,0.018071 -0.02072,0.044202 -0.03125,0.0625 -0.0206,-0.032989 -0.0089,-0.093514 -0.03125,-0.125 -0.0453,-0.063947 -0.158005,-0.098618 -0.21875,-0.15625 0.07959,-0.060364 0.152016,-0.1205415 0.21875,-0.21875 0.03351,-0.049308 0.03616,-0.1292195 0.0625,-0.1875 z m 3.96875,0.125 c 0.0055,0.00785 -0.0056,0.023452 0,0.03125 0.06821,0.094603 0.186033,0.1664534 0.28125,0.25 -0.06936,0.066674 -0.167981,0.1131904 -0.21875,0.1875 -0.02163,0.031663 -0.0115,0.092271 -0.03125,0.125 -0.05832,-0.117036 -0.192099,-0.2128833 -0.3125,-0.3125 0.03053,-0.021944 0.06093,-4.129e-4 0.09375,-0.03125 0.101979,-0.095806 0.141655,-0.1660977 0.1875,-0.25 z m 1.96875,0.03125 c 0.05366,0.091412 0.201082,0.077655 0.28125,0.15625 0.0068,0.00669 0.02425,-0.00654 0.03125,0 0.01084,0.01012 0.02001,0.021538 0.03125,0.03125 0.0048,0.00403 -0.005,0.027216 0,0.03125 -0.119053,0.09359 -0.244973,0.166843 -0.3125,0.28125 -0.06297,-0.1010806 -0.175815,-0.1670654 -0.28125,-0.25 0.05726,-0.045858 0.106467,-0.1045247 0.15625,-0.15625 0.03198,-0.033226 0.06427,-0.058067 0.09375,-0.09375 z m 4.03125,0 c 0.03173,0.04998 0.02685,0.10562 0.0625,0.15625 0.04186,0.059447 0.106147,0.078986 0.15625,0.125 -0.06791,0.0717 -0.136643,0.1405608 -0.1875,0.21875 -0.0071,0.010873 -0.02434,0.020528 -0.03125,0.03125 -0.0052,-0.00913 0.0054,-0.022159 0,-0.03125 -0.04475,-0.075779 -0.10535,-0.1693798 -0.1875,-0.25 0.08018,-0.080183 0.130693,-0.1664677 0.1875,-0.25 z m -2.0625,0.09375 0.28125,0.28125 c -0.03048,0.033732 -0.0354,0.087479 -0.0625,0.125 -0.03538,0.048985 -0.06401,0.1016689 -0.09375,0.15625 -0.02966,-0.070057 -0.04837,-0.1470192 -0.09375,-0.21875 -0.03971,-0.062766 -0.126368,-0.096336 -0.1875,-0.15625 0.0093,-0.00861 0.02295,-0.02328 0.03125,-0.03125 0.05582,-0.053574 0.08418,-0.1037911 0.125,-0.15625 z m -9.25,0.46875 c 0.01977,0.00813 0.04395,-0.010316 0.0625,0 -0.0022,0.021349 -0.0315,0.04425 -0.03125,0.0625 -0.01179,-0.00127 -0.01941,-0.030601 -0.03125,-0.03125 0.01036,-0.011808 -0.01271,-0.018546 0,-0.03125 z m 0.25,0.875 c 0.01418,0.009493 0.02013,0.0258746 0.03125,0.03125 0.0028,0.006128 0.02826,-0.006065 0.03125,0 0.01084,0.004328 0.02079,-0.00339 0.03125,0 l 0,0.03125 c 0.01035,0.003173 0.02138,-0.002372 0.03125,0 4e-5,-1.6961e-4 0.0028,0.0217585 0,0.03125 -0.0014,0.004746 -0.02964,-0.005341 -0.03125,0 l 0,-0.03125 c -0.0069,-0.004581 -0.02389,0.00455 -0.03125,0 -0.01219,-0.007528 -0.0479,0.00746 -0.0625,0 -0.0073,-0.00373 -0.02338,0.00359 -0.03125,0 -0.0036,-0.006008 0.0045,-0.0247072 0,-0.03125 0.01436,-0.00309 0.01709,-0.026467 0.03125,-0.03125 z m 0.28125,0.09375 c 0.0053,-0.005336 0.02676,0.00509 0.03125,0 0.0054,-0.002537 0.02586,0.0337861 0.03125,0.03125 -0.01094,0.004757 -0.01977,-0.004266 -0.03125,0 0,0 -0.03125,-0.03125 -0.03125,-0.03125 z m -0.0625,0.03125 c 0,0 0.03125,0.03125 0.03125,0.03125 -0.0085,0.009343 -0.02292,-0.0103132 -0.03125,0 0.003,-0.004351 -0.0038,-0.0265074 0,-0.03125 z m 0.03125,0 c 0.002,-0.004049 0.02878,0.004589 0.03125,0 l 0,0.03125 c 0,0 -0.03125,-0.03125 -0.03125,-0.03125 z m 8.3125,0.53125 c 0.03123,0.01148 0.09384,0.02655099 0.125,0.03125 -0.0071,0.0069449 -5.8e-5,0.03129444 0,0.03125 1.26e-4,-9.629e-5 -0.125113,0.06254869449 -0.125,0.0625 0.0013,-0.01875048 0.03008,-0.04480256 0.03125,-0.0625 0.0011,-0.01734349 -0.03238,-0.0442843 -0.03125,-0.0625 z m 0.1875,0.09375 c 0.03119,0.09516376 0.03683,0.14243591 0.03125,0.1875 -0.0085,0.0689216 -0.02247,0.0768447 -0.03125,0.09375 -0.01895,0.0105168 -0.03793,0.0479657 -0.09375,0.0625 L 32,0.3125 31.9375,0.25 l -0.125,0 c 0.0067,-0.009085 -0.0056,-0.0223163 0,-0.03125 0.02832,-0.007852 0.07099,0.0112053 0.09375,0 0.09921,-0.0488438 0.152282,-0.11141712 0.1875,-0.15625 0.03805,-0.0484326 0.01203,-0.05719517 0.03125,-0.09375 z M 24.34375,0.0625 c 0.0057,0.01170866 0.02532,0.01961854 0.03125,0.03125 -0.0051,0.0071562 -0.05621,0.01960638 -0.0625,0.03125 0.0027,-0.005871 -0.0024,-0.02582069 0,-0.03125 0.0072,-0.01453959 0.02466,-0.01573236 0.03125,-0.03125 z M 34.375,0.125 c 0.114751,0.1878708 0.247641,0.3652366 0.40625,0.46875 0.0081,0.00529 0.02185,0.0256532 0.03125,0.03125 -0.03649,0.0328744 -0.05742,0.0565904 -0.09375,0.09375 -0.07002,0.0716181 -0.14074,0.17922529 -0.1875,0.28125 -0.0037,0.00602 0.0037,0.025175 0,0.03125 -0.0028,-0.00586 -0.02843,0.00577 -0.03125,0 C 34.407651,0.84240711 34.341683,0.68314866 34.21875,0.5625 34.20633,0.55031098 34.169594,0.54417361 34.15625,0.53125 34.288022,0.43245498 34.285767,0.2508694 34.375,0.125 z m -5.90625,0.03125 c 0.04504,0.0679789 0.100682,0.12651089 0.15625,0.1875 0.03561,0.0390828 0.05411,0.0893145 0.09375,0.125 -0.0092,0.008825 -0.02277,0.0229735 -0.03125,0.03125 -0.01645,0.0160649 -0.01566,0.0457367 -0.03125,0.0625 l -0.3125,-0.25 c 0.04516,-0.0518989 0.08544,-0.097654 0.125,-0.15625 z m 1.9375,0 c 0.0036,0.006051 0.02756,-0.005976 0.03125,0 0.07932,0.12848687 0.190309,0.24795852 0.3125,0.34375 -0.06789,0.0631539 -0.163545,0.12003679 -0.21875,0.1875 -0.04453,0.0544138 -0.08634,0.0966391 -0.125,0.15625 C 30.357524,0.7598592 30.378676,0.63574874 30.3125,0.5625 30.282786,0.52961028 30.223062,0.52865041 30.1875,0.5 30.298608,0.40605173 30.327275,0.27456708 30.40625,0.15625 z m 2.0625,0 c 0.08188,0.1180113 0.124902,0.27912087 0.25,0.375 -0.02905,0.0282256 -0.06446,0.0636752 -0.09375,0.09375 -0.0493,0.0506259 -0.111885,0.0963484 -0.15625,0.15625 -0.02218,0.0299508 -0.03774,0.078118 -0.0625,0.125 -0.0066,0.01241 -0.02333,0.0475265 -0.03125,0.0625 -0.0047,-0.008656 0.0049,-0.0226771 0,-0.03125 -0.0039,-0.007774 0.0036,-0.0244925 0,-0.03125 -0.01177,-0.0221264 -0.02104,-0.0142972 -0.03125,-0.03125 -0.06155,-0.0977003 -0.04214,-0.22880476 -0.125,-0.3125 L 32.125,0.46875 c 0.06801,-0.0596665 0.192671,-0.05923 0.25,-0.125 0.04418,-0.0506891 0.05476,-0.13178311 0.09375,-0.1875 z M 22.40625,0.1875 c 0.07618,0.11706003 0.171601,0.21516138 0.28125,0.3125 -0.01492,0.0148722 -0.04924,0.0170275 -0.0625,0.03125 -0.02401,0.0257579 -0.04057,0.0658118 -0.0625,0.09375 l -0.21875,0 c -0.01982,-0.0249566 -0.04117,-0.0389247 -0.0625,-0.0625 l 0.09375,0 -0.125,-0.125 c 0.07411,-0.0701955 0.09666,-0.16899996 0.15625,-0.25 z m 2.03125,0 c 0.03478,0.0570019 0.04034,0.12719872 0.09375,0.1875 0.06074,0.068587 0.123485,0.10718961 0.1875,0.15625 C 24.573824,0.67141818 24.476426,0.8222617 24.40625,1 24.393336,0.97008468 24.389599,0.9350262 24.375,0.90625 c -0.003,-0.0285455 0.0052,-0.0441256 0,-0.0625 -0.02589,-0.0918719 -0.06161,-0.14786374 -0.09375,-0.1875 C 24.267139,0.63884871 24.26246,0.63781875 24.25,0.625 24.214743,0.58259258 24.22916,0.50695869 24.1875,0.46875 c 0.09355,-0.0823929 0.172494,-0.1741111 0.25,-0.28125 z m 1.96875,0 0.125,0.09375 C 26.5973,0.36401017 26.676951,0.44027106 26.75,0.5 c -0.05555,0.045663 -0.143294,0.0390026 -0.1875,0.09375 -0.08752,0.10839354 -0.09862,0.27734878 -0.15625,0.40625 -0.01953,-0.0425619 -0.03942,-0.0847323 -0.0625,-0.125 -0.0047,-0.0199785 0.0064,-0.04584 0,-0.0625 -0.03516,-0.0916298 -0.06811,-0.15659932 -0.09375,-0.1875 -0.0031,-0.003696 -0.02772,0.004229 -0.03125,0 -0.02764,-0.0317378 -5.36e-4,-0.0958618 -0.03125,-0.125 0.02117,-0.0187437 0.04207,-0.0427641 0.0625,-0.0625 0.06674,-0.0644693 0.09794,-0.17446252 0.15625,-0.25 z m 1.84375,0.40625 0.375,0 c -0.06032,0.0687102 -0.07734,0.17118144 -0.125,0.25 -0.05538,-0.10461457 -0.171086,-0.15968855 -0.25,-0.25 z m -0.3125,0.3125 c 0.02901,0.002912 0.06287,7.498e-5 0.0625,0 -5.56e-4,-1.1246e-4 0.04325,0.0242918 0.0625,0.03125 -0.0016,0.0122399 0.0029,0.0173338 0,0.03125 -0.0022,0.0104371 0.0053,0.0156616 0,0.03125 -0.007,-0.003854 -0.02404,0.00354 -0.03125,0 z m -5.375,0.03125 c -0.0036,0.0206364 0.0012,0.0400359 0,0.0625 -0.0044,-0.0115601 -0.02665,-0.0197868 -0.03125,-0.03125 0.0087,-0.0140323 0.02152,-0.0191236 0.03125,-0.03125 z M 22.625,0.96875 22.65625,1 l 0,0.03125 c -0.01598,0.018283 -0.04906,0.010809 -0.0625,0.03125 0.0027,-0.016726 -0.0146,-0.030685 0,-0.0625 0.0029,-0.006363 0.02729,-0.0225318 0.03125,-0.03125 z m 2.9375,0.21875 0,0.03125 c 0.01162,-0.00854 0.02017,-0.021435 0.03125,-0.03125 z M 25.375,1.21875 c 0.01038,0.00438 0.02548,-0.00291 0.03125,0 0.01154,0.00583 0.02335,-0.00466 0.03125,0 l 0,-0.03125 z m 0.09375,0.03125 0,0.03125 -0.03125,0 z m 0.09375,0 0,0.03125 c -0.01072,-0.00681 -0.02218,0.00576 -0.03125,0 0,0 0.03125,0.03125 0.03125,0.03125 l -0.03125,0 0,-0.03125 c -0.0091,-0.00576 -0.02487,0.00405 -0.03125,0 L 25.5,1.25 z m 4.125,0.4375 c 0.01363,0.00896 0.01674,0.02354 0.03125,0.03125 -0.0047,-0.011513 -0.02556,-0.019667 -0.03125,-0.03125 z M 28,1.71875 c 0.0075,-0.00452 0.02463,0.00455 0.03125,0 -0.002,0.00538 0.0051,0.02106 0,0.03125 -0.0071,-0.00219 -0.0244,0.00181 -0.03125,0 -0.0051,-0.00136 0.005,-0.030102 0,-0.03125 z m 6.46875,0.75 c 0.02817,0.045468 -0.03468,0.1146213 0,0.15625 0.09285,0.1114398 0.248852,0.2412569 0.4375,0.3125 0.144867,0.054709 0.272914,0.059356 0.40625,0.0625 -0.184507,0.03198 -0.411565,0.084939 -0.5625,0.21875 -0.142159,0.1260308 -0.210297,0.2741615 -0.28125,0.4375 C 34.362113,3.3975427 34.170674,3.1636951 33.9375,3.03125 33.892882,3.0059048 33.812286,3.0185808 33.75,3 c 0.01148,-0.00187 0.02016,-0.029626 0.03125,-0.03125 0.07206,-0.010554 0.12781,0.00283 0.25,-0.0625 0.01434,-0.00767 0.0175,-0.02321 0.03125,-0.03125 l 0.15625,0 -0.0625,-0.09375 c 0.03642,-0.02736 0.06146,-0.06334 0.09375,-0.09375 l 0.15625,0 0,-0.15625 c 0.01796,-0.023382 0.04561,-0.037974 0.0625,-0.0625 z M 24.375,2.5 c 0.05521,0.095386 0.176011,0.1412121 0.25,0.21875 0.04587,0.043269 0.07695,0.050217 0.09375,0.0625 0.04965,0.04263 0.06401,0.1210343 0.125,0.15625 -0.04918,0.045222 -0.10482,0.1031116 -0.15625,0.15625 -0.08638,0.089259 -0.06024,0.2127408 -0.125,0.3125 -0.0045,0.0094 -0.02789,0.023987 -0.03125,0.03125 C 24.514472,3.4738146 24.504461,3.4859225 24.5,3.5 24.48545,3.4686696 24.484572,3.4372251 24.46875,3.40625 24.38056,3.2336024 24.222099,3.0522222 24.0625,2.9375 c 0.02709,-0.015885 0.07178,-0.014458 0.09375,-0.03125 0.107803,-0.082383 0.07412,-0.2385229 0.15625,-0.34375 0.01691,-0.022323 0.0465,-0.039043 0.0625,-0.0625 z m 6.0625,0.03125 c 0.08718,0.1257392 0.156628,0.2567077 0.28125,0.34375 0.110699,0.077318 0.288019,0.099342 0.4375,0.125 C 31.023093,3.0583347 30.852776,3.0646482 30.75,3.15625 30.611091,3.2800577 30.552543,3.4655646 30.46875,3.625 30.365731,3.388335 30.228801,3.1445442 30.03125,3 c -0.05602,-0.040991 -0.126999,-0.00277 -0.1875,-0.03125 0.06278,-0.016908 0.108241,0.010127 0.1875,-0.03125 0.193146,-0.1008336 0.299097,-0.2474175 0.40625,-0.40625 z m -8,0.03125 c 0.01641,0.027263 -0.01817,0.067438 0,0.09375 0.115477,0.1672301 0.258918,0.2607334 0.40625,0.34375 -0.08918,0.074154 -0.212787,0.096441 -0.28125,0.1875 -0.05521,0.07343 -0.01977,0.1720369 -0.0625,0.25 -0.0064,0.011768 -0.02509,0.019396 -0.03125,0.03125 C 22.424919,3.3833873 22.432734,3.2724607 22.375,3.1875 22.293873,3.0681146 22.14813,3.0482751 22.03125,2.96875 22.192435,2.862365 22.325989,2.716223 22.4375,2.5625 z m 9.96875,0 c 0.118999,0.1718369 0.252454,0.3102081 0.5,0.40625 0.09693,0.037605 0.159636,0.02677 0.21875,0.03125 -0.08232,0.032502 -0.141528,0.074779 -0.21875,0.125 l -0.125,0 0.03125,0.0625 c -0.02644,0.021087 -0.07162,0.00945 -0.09375,0.03125 -0.120652,0.1188382 -0.176273,0.3034589 -0.25,0.46875 -0.07216,-0.1764018 -0.129717,-0.3782211 -0.25,-0.5 -0.12595,-0.1275158 -0.314051,-0.1894698 -0.5,-0.25 0.02337,-0.00538 0.03914,-0.024137 0.0625,-0.03125 0.07973,-0.024275 0.143713,-0.052605 0.21875,-0.09375 0.115174,-0.063153 0.260787,-0.037647 0.34375,-0.125 0.03039,-0.031993 0.03526,-0.088573 0.0625,-0.125 z M 26.4375,2.59375 c 0.09837,0.1415267 0.215154,0.2831891 0.40625,0.375 0.02119,0.010182 0.04157,-0.00827 0.0625,0 -0.05622,0.038677 -0.07402,0.1097449 -0.125,0.15625 L 26.4375,2.78125 26.5,3.46875 C 26.492315,3.481721 26.476014,3.4868369 26.46875,3.5 26.358523,3.2878432 26.232452,3.0944249 26.0625,2.96875 c 0.0062,-0.00416 -0.0061,-0.026983 0,-0.03125 0.13671,-0.094947 0.271255,-0.2065397 0.375,-0.34375 z m 2,0 c 0.104912,0.1448095 0.221035,0.2887649 0.40625,0.375 0.02934,0.013661 0.06429,-0.0104 0.09375,0 -0.25439,0.1539556 -0.363287,0.3843719 -0.46875,0.625 C 28.35185,3.3352421 28.23207,3.0859557 28,2.9375 c 0.05048,-0.029596 0.124345,-0.038166 0.15625,-0.0625 0.07328,-0.055892 0.130997,-0.1276708 0.1875,-0.1875 l 0.03125,0 c 0.0048,-0.00528 -0.0048,-0.025882 0,-0.03125 0.01832,-0.020577 0.04484,-0.040298 0.0625,-0.0625 z m 0.5,0.09375 c 0.0055,0.00265 0.02511,-0.00283 0.03125,0 0.02457,0.011308 0.08761,-0.00781 0.125,0 6.68e-4,1.395e-4 -6.72e-4,0.031113 0,0.03125 -0.04338,0.01018 -0.102107,0.03125 -0.125,0.03125 -0.01434,0 -0.01891,9.806e-4 -0.03125,0 -0.0085,-0.014232 0.01332,-0.04028 0,-0.0625 z m 2.09375,0.125 c 0.04453,0.032542 0.0792,0.082276 0.15625,0.09375 -0.04601,-0.00686 -0.07647,-0.024615 -0.09375,-0.03125 -0.0091,-0.00349 -0.03002,-0.010444 -0.0625,-0.03125 -0.0031,-0.00197 0.0036,-0.029282 0,-0.03125 z m 4.90625,0.125 0,0.15625 C 35.821225,3.0310242 35.660116,3.0112866 35.5,3 c 0.101657,8.196e-4 0.170291,0.024098 0.28125,0 0.06038,-0.013113 0.104651,-0.039278 0.15625,-0.0625 z m -10.125,0.25 c 0.03049,-0.00258 0.06305,2.37e-5 0.0625,0 -5.96e-4,-2.59e-5 0.04911,0.021028 0.09375,0.03125 -0.04334,-0.00603 -0.07802,-0.00254 -0.125,0 -0.0081,-0.011797 -0.01493,-0.012946 -0.03125,-0.03125 z m 0.375,0.125 c 0.03529,0.032078 0.07512,0.065361 0.09375,0.09375 0.03726,0.056778 0.05383,0.093936 0.0625,0.125 0.0087,0.031064 -0.0016,0.046906 0,0.0625 -0.02854,-0.041034 -0.09035,-0.035077 -0.125,-0.0625 -0.0043,-0.00343 0.0044,-0.028018 0,-0.03125 -0.02597,-0.062985 0.01502,-0.138493 -0.03125,-0.1875 z m 3.65625,0.125 c 0.0083,-0.00124 0.0234,7.378e-4 0.03125,0 0.06425,-0.00604 0.07759,0.049612 0.125,0.0625 l -0.09375,0.03125 c -0.0091,-0.022994 -0.06231,-0.093474 -0.0625,-0.09375 z m -1.0625,0.25 c 0.0061,0.01594 0.02329,0.016372 0.03125,0.03125 -0.01545,0.00442 -0.01627,0.02547 -0.03125,0.03125 -0.02241,0.021004 -0.02896,0.031007 -0.0625,0.0625 -0.03354,0.031493 -0.06241,0.062358 -0.0625,0.0625 -0.01212,0.010617 -0.02009,0.01957 -0.03125,0.03125 0.004,-0.024612 0.02486,-0.073487 0.03125,-0.09375 l 0,-0.03125 c -1.7e-4,4.315e-4 0.0153,-0.032772 0.03125,-0.0625 l 0.03125,0 c 0.01923,-0.00697 0.06305,-0.031363 0.0625,-0.03125 z M 23.4375,3.75 c -9.56e-4,0.0068 0.03287,0.023635 0.03125,0.03125 -0.007,0.00368 -0.02332,-0.00308 -0.03125,0 -0.004,-0.0085 0.0044,-0.022775 0,-0.03125 z m 5.6875,0 0.03125,0 c 0,0 -0.03125,0.03125 -0.03125,0.03125 -0.0056,-0.00296 0.0056,-0.028485 0,-0.03125 z M 23.5,3.8125 c 0.0047,0.00917 -0.0042,0.020707 0,0.03125 -0.0016,-0.00515 -0.02946,0.00521 -0.03125,0 0.008,0.00174 0.02202,-0.032705 0.03125,-0.03125 z m 7.1875,0 c -0.04118,0.042389 -0.06697,0.075141 -0.09375,0.125 0.004,-0.00764 -0.0043,-0.024554 0,-0.03125 0.03151,-0.049157 0.06076,-0.067327 0.09375,-0.09375 z M 23.375,3.84375 c 0.006,0.00507 0.0246,-0.00497 0.03125,0 l 0,0.03125 -0.03125,0 c 0,0 0.03125,0.03125 0.03125,0.03125 z m 0.21875,0.09375 c 0.02171,0.00199 0.0063,0.03125 0.03125,0.03125 0.0015,0.00387 0.02978,-0.00386 0.03125,0 6.8e-5,0.00555 3e-6,0.024979 0,0.03125 0.0041,0.01112 -0.0036,0.021152 0,0.03125 -8.1e-5,0.00297 -0.03112,-0.00309 -0.03125,0 -0.01717,-0.01062 -0.04731,-0.018108 -0.0625,-0.03125 -0.001,-0.021535 0.02803,-0.037401 0.03125,-0.0625 z M 23.71875,4 c 0.003,0.00572 0.02857,-0.00559 0.03125,0 0.004,0.00838 -0.0034,0.023288 0,0.03125 -0.01748,-0.00643 -0.04796,0.00721 -0.0625,0 C 23.70433,4.019378 23.708164,4.0070766 23.71875,4 z m 1.09375,0.03125 c 0.01276,0.00995 0.0179,0.021977 0.03125,0.03125 -0.0011,0.010887 9.15e-4,0.02029 0,0.03125 -0.01147,-0.00499 -0.01897,0.00534 -0.03125,0 -0.01966,-0.026334 0.01112,-0.039084 0,-0.0625 z m 9.375,0.09375 c 0.0048,0.00501 0.0271,-0.00476 0.03125,0 0.0028,0.00317 -0.0025,0.028217 0,0.03125 0.0037,0.00455 0.02816,-0.00416 0.03125,0 0.0017,0.00779 9e-6,0.031422 0,0.03125 -0.0021,-0.014209 -0.02828,-0.017586 -0.03125,-0.03125 -0.003,-0.013664 -0.02732,-0.018128 -0.03125,-0.03125 z M 34.25,4.21875 c 0.0026,0.005 0.02944,-0.00405 0.03125,0 -0.002,0.00696 0.0028,0.023609 0,0.03125 -3.69e-4,-0.00603 -0.03077,0.00595 -0.03125,0 -7.16e-4,-0.00892 9.78e-4,-0.022527 0,-0.03125 z M 24.3125,4.375 c -0.0011,0.00655 0.03233,0.02733 0.03125,0.03125 -5.43e-4,0.00196 -0.03074,-0.00152 -0.03125,0 0.0032,-0.013427 -0.0024,-0.019512 0,-0.03125 z m 10.59375,0.03125 c 5.31e-4,0.029213 0.05635,0.059379 0.0625,0.09375 -0.02757,-0.00457 -0.06335,-0.020723 -0.09375,-0.03125 0.0074,-0.023525 0.02063,-0.039303 0.03125,-0.0625 z m -10.125,0.125 c -0.0079,0.02496 0.0096,0.1150708 0,0.15625 -0.0074,-0.0052 -0.02468,0.00521 -0.03125,0 -0.0068,-0.064475 0.01913,-0.118067 0.03125,-0.15625 z m 7.625,0.03125 c 0.01495,0.050249 -0.02117,0.1118534 0,0.15625 0.04955,0.1039083 0.175976,0.085425 0.25,0.15625 0.0069,0.0066 0.02417,-0.00634 0.03125,0 0.005,0.00445 -0.0048,0.026852 0,0.03125 l 0,0.0625 0.28125,0.09375 0,0.15625 L 33.1875,5.125 c 0.09861,0.018569 0.151181,0.1570763 0.25,0.15625 0.179017,-0.00148 0.282455,2.683e-4 0.53125,-0.125 C 34.085246,5.0976047 34.149313,4.9691851 34.25,4.875 l 0.28125,-0.03125 -0.0625,-0.1875 c 0.01502,-0.027878 0.05033,-0.032507 0.0625,-0.0625 0.07798,0.168533 0.092,0.3776225 0.28125,0.5 0.07407,0.047898 0.189712,0.1004015 0.3125,0.125 0.0893,0.01789 0.174004,0.00134 0.25,0 l 0.125,0.125 0.03125,-0.125 c 0.132461,-0.00297 0.238592,-0.019661 0.40625,-0.09375 l 0,2.03125 -2.0625,0 C 33.942176,7.0960447 34.067586,7.0399345 34.09375,7 34.233157,6.787242 34.265011,6.4574672 34.03125,6.21875 33.914369,6.0993914 33.729838,6.0157658 33.5625,6.03125 c -0.03673,0.0034 -0.06032,0.021974 -0.09375,0.03125 -0.02615,-0.00892 -0.03267,-0.025964 -0.0625,-0.03125 -0.156036,-0.027648 -0.296049,0.020258 -0.375,0.0625 -0.122408,0.065511 -0.294053,0.198823 -0.34375,0.40625 -0.0497,0.207427 0.04522,0.4173471 0.125,0.53125 0.02206,0.031497 0.138164,0.076015 0.1875,0.125 l -1.0625,0 c 0.08189,-0.069982 0.210624,-0.084298 0.25,-0.1875 L 32.40625,6.40625 32.1875,6.375 l 0,-0.03125 C 32.153799,6.1101173 31.899124,5.8314694 31.65625,5.8125 31.586086,5.80702 31.561158,5.8908749 31.5,5.90625 c -0.01882,0.00473 -0.04461,-0.00639 -0.0625,0 -0.0571,-0.017921 -0.09697,-0.092207 -0.15625,-0.09375 -0.214468,-0.00558 -0.508402,0.1371982 -0.59375,0.40625 -0.02383,0.075054 -0.03135,0.1476447 -0.03125,0.21875 2e-5,0.015004 0.03145,0.046519 0.03125,0.0625 -8.9e-5,0.00695 -2.07e-4,0.023897 0,0.03125 -0.01747,0.055303 -0.06353,0.1196874 -0.0625,0.21875 0.0013,0.1256765 0.08861,0.2935318 0.15625,0.375 0.01956,0.023568 0.04196,0.012085 0.0625,0.03125 l -0.71875,0 C 30.256026,6.9883776 30.315681,6.7931487 30.3125,6.625 30.308761,6.4273593 30.253317,6.2380701 30.15625,6.0625 30.1221,6.0007292 30.101416,5.9596212 30.0625,5.90625 30.043042,5.8795644 30.030402,5.8450992 30,5.8125 c -0.0304,-0.032599 -0.03401,-0.087146 -0.25,-0.15625 -0.08564,-0.027393 -0.14199,0.019945 -0.21875,0.03125 -0.07598,0.01119 -0.168503,-0.027571 -0.21875,0 -0.07535,-0.00431 -0.142063,-0.029428 -0.21875,0 -0.141145,0.054152 -0.153439,0.089428 -0.1875,0.125 -0.03406,0.035572 -0.07351,0.065528 -0.09375,0.09375 -0.04047,0.056445 -0.06245,0.098325 -0.09375,0.15625 -0.02001,0.037024 -0.04431,0.087946 -0.0625,0.125 l -0.0625,0 0.03125,0.125 c -0.01918,0.050223 -0.04822,0.09109 -0.0625,0.15625 -0.06395,0.2918037 0.08109,0.5073719 0.25,0.6875 l -0.375,0 -0.21875,0 c 0.06549,-0.07279 0.0947,-0.087316 0.15625,-0.28125 0.0822,-0.259042 0.03672,-0.3481547 0,-0.46875 C 28.338283,6.2856547 28.324741,6.1657789 28.125,6 28.253886,6.1069365 28.25,6.0951116 28.25,6.28125 28.25,6.1839761 28.127873,6.108266 28.0625,6 28.000281,5.8969574 27.995415,5.7652005 27.90625,5.71875 27.7234,5.6234943 27.583587,5.625 27.4375,5.625 c -0.143874,0 -0.263411,0.00924 -0.4375,0.09375 -0.04687,0.022754 -0.04931,0.1113551 -0.09375,0.15625 -0.05502,0.055584 -0.08658,0.1145347 -0.125,0.1875 -0.0458,0.086997 -0.15625,0.1355924 -0.15625,0.21875 -0.06639,0.1508623 -0.140413,0.2950232 -0.125,0.4375 0.01618,0.1495618 0.1095,0.2987821 0.21875,0.4375 l -0.46875,0 c 0.09352,-0.08652 0.199848,-0.1245845 0.21875,-0.40625 0.01366,-0.2036172 -0.02855,-0.4408654 -0.1875,-0.65625 -0.0058,-0.01908 -0.0245,-0.013511 -0.03125,-0.03125 -0.0035,-0.00912 -0.02754,0.00878 -0.03125,0 C 26.15379,5.9088578 26.048704,5.85094 25.9375,5.78125 25.919143,5.7697456 25.925039,5.7286055 25.90625,5.71875 25.899004,5.7140022 25.882752,5.6928731 25.875,5.6875 25.817432,5.660617 25.774458,5.57866 25.71875,5.5625 25.502618,5.4998034 25.248147,5.4806867 25,5.59375 24.695836,5.7323272 24.70112,5.8634525 24.625,6 24.555005,6.1255609 24.5005,6.2749991 24.46875,6.4375 24.462809,6.3848336 24.450682,6.335158 24.4375,6.28125 24.418659,6.2041997 24.409752,6.0822583 24.25,5.9375 24.247821,5.9332673 24.353557,6.0115709 24.21875,5.90625 24.139399,5.7699581 24.031688,5.6369401 23.875,5.5625 23.704068,5.4812926 23.53313,5.4860873 23.375,5.5 c -0.01086,9.561e-4 -0.02064,-0.00117 -0.03125,0 l -0.0625,-0.09375 c 0.04319,-4.542e-4 0.07676,-0.049186 0.125,-0.0625 0.02289,0.00316 -0.0084,-3.496e-4 0.03125,0 0.06237,0.024243 0.08877,0.06462 0.1875,0.0625 0.163045,-0.0035 0.249911,-0.064054 0.3125,-0.09375 0.266781,-0.126596 0.431758,-0.3711943 0.5625,-0.625 0.101488,0.1948446 0.111726,0.448782 0.3125,0.5625 0.09668,0.054763 0.188829,0.1051898 0.34375,0.125 0.07859,0.01005 0.140995,-0.045348 0.21875,-0.0625 -0.0024,-8.605e-4 0.02738,5.55e-5 0.03125,0 0.07133,0.024058 0.162054,0.071829 0.28125,0.0625 0.131877,-0.010322 0.213109,-0.061413 0.28125,-0.09375 C 26.086009,5.2256069 26.097314,5.0804509 26.1875,5 c 0.08405,-0.074979 0.159439,-0.154793 0.21875,-0.25 0.08624,0.1613124 0.174189,0.3362865 0.34375,0.4375 0.211398,0.1261864 0.428682,0.1569386 0.65625,0.15625 l 0.25,0.25 L 27.625,5.3125 c 0.06742,-0.00425 0.144468,-0.013294 0.21875,-0.03125 0.127835,-0.0309 0.233818,-0.072582 0.3125,-0.125 0.07879,-0.052493 0.09552,-0.1499529 0.15625,-0.21875 l 0.125,0 0.09375,0.03125 L 28.5625,5 c 0.140789,0.1477603 0.28087,0.225662 0.4375,0.28125 0.08484,0.03011 0.16046,0.060526 0.28125,0.0625 0.0506,8.267e-4 0.14181,-0.1028387 0.21875,-0.125 0.02978,-0.00858 0.06313,-0.016123 0.09375,-0.03125 0.01327,-0.00655 0.01806,-0.023232 0.03125,-0.03125 0.0086,-0.00524 0.02271,0.00592 0.03125,0 -0.04507,0.024362 -0.104182,0.1189883 -0.125,0.125 0.08571,0.0096 0.207661,0.037504 0.34375,0 0.118769,-0.032731 0.184937,-0.077697 0.25,-0.125 l 0.3125,0 -0.125,-0.21875 c 0.04599,-0.049761 0.08767,-0.09882 0.125,-0.15625 0.08311,0.141813 0.237064,0.3275749 0.4375,0.40625 0.111955,0.043945 0.207533,0.053757 0.3125,0.0625 l 0.25,0.53125 L 31.65625,5.25 c 0.05807,-0.00335 0.115468,0.01853 0.1875,0 0.156993,-0.040385 0.299655,-0.1287986 0.375,-0.1875 0.149717,-0.116643 0.111663,-0.3298056 0.1875,-0.5 z M 24.875,4.59375 c 0.0081,0.046452 0.01201,0.081895 0.03125,0.125 -0.03516,-0.013105 -0.06615,-0.01399 -0.09375,-0.03125 9.88e-4,-0.024235 0.05066,-0.059012 0.0625,-0.09375 z M 22.4375,4.6875 c 0.01014,0.020963 0.01976,0.040971 0.03125,0.0625 0.03837,0.071899 0.100298,0.1771532 0.25,0.28125 0.03513,0.024425 0.0079,0.036559 0.0625,0.0625 0.06453,0.048809 0.04885,0.1532559 0.125,0.1875 0.02012,0.00905 0.04291,0.022454 0.0625,0.03125 l -0.125,0.375 c -0.05071,0.045735 -0.0971,0.087272 -0.125,0.125 -0.04185,0.056592 -0.09062,0.1270294 -0.125,0.1875 -0.04584,0.080628 -0.08874,0.1601909 -0.125,0.25 L 22.4375,6.21875 c -0.01056,-0.028285 0.01182,-0.066052 0,-0.09375 -0.07672,-0.179791 -0.202988,-0.3570216 -0.375,-0.5 -0.07438,-0.061823 -0.15549,-0.1360734 -0.3125,-0.1875 -0.118029,-0.038659 -0.20042,-0.035832 -0.28125,-0.03125 0.191444,-0.00367 0.324428,0.00771 0.59375,-0.15625 0.09153,-0.055722 0.08102,-0.1796592 0.15625,-0.25 0.03429,-0.024992 0.04307,-0.044916 0.0625,-0.0625 0.06763,-0.061222 0.118437,-0.1195127 0.15625,-0.1875 0.0073,-0.013075 -0.0074,-0.048885 0,-0.0625 z m -1.5,0.625 c 0.164178,0.064499 0.30764,0.097565 0.4375,0.09375 -0.139404,0.010087 -0.297173,0.081101 -0.4375,0.15625 l 0,-0.25 z m 4.5,0.5625 c 0.06552,0 0.05333,0.054501 0.09375,0.0625 -0.03478,-0.00736 -0.05851,0.00122 -0.09375,0 -0.03524,-0.00122 -0.05957,-0.00452 -0.09375,0 0.01238,-0.01171 0.01894,-0.022005 0.03125,-0.03125 0.02028,-0.00297 0.04424,-0.03125 0.0625,-0.03125 z m 8,0.46875 c 0.09471,0.046057 0.19245,0.1320666 0.1875,0.125 0.02411,0.034426 0.09649,0.1393903 0.0625,0.28125 -0.03127,0.1305109 -0.144707,0.1919771 -0.1875,0.21875 -0.0096,-0.00318 -0.02182,0.00379 -0.03125,0 -0.04457,-0.017922 -0.09032,-0.032567 -0.125,-0.0625 -0.0073,-0.00633 -0.0246,0.00679 -0.03125,0 -0.07126,-0.072765 -0.02307,-0.1137772 -0.03125,-0.1875 -0.0027,-0.024003 -0.0015,-0.04044 0,-0.0625 L 33.25,6.5625 c 0.0082,-0.025466 -0.0096,-0.079031 0,-0.09375 -0.0037,0.00558 0.07664,-0.040461 0.09375,-0.0625 0.01711,-0.022039 0.03556,-0.03728 0.09375,-0.0625 z M 33.0625,6.375 c -0.01085,0.013697 0.01035,0.045812 0,0.0625 -0.03821,0.061617 -0.08477,0.067895 -0.09375,0.1875 -0.0096,0.127703 0.05102,0.1709665 0.09375,0.25 0.01112,0.02057 0.01929,0.04517 0.03125,0.0625 -0.01596,-0.012095 -0.05609,-0.024841 -0.0625,-0.03125 -0.0226,-0.0226 -0.0938,-0.1095915 -0.09375,-0.25 7e-6,-0.021157 0.02828,-0.012268 0.03125,-0.03125 0.01673,-0.1069906 0.04339,-0.1996383 0.0625,-0.21875 -0.0024,0.0024 -0.01526,-0.00349 0.03125,-0.03125 z m 0.75,0 c 0.05033,0.029046 0.06441,0.033159 0.0625,0.03125 -0.0032,-0.00316 0.03957,0.1221524 0.0625,0.25 0.0061,0.034192 0.03447,0.019622 0.03125,0.0625 -0.01079,0.1436444 -0.04254,0.1390338 -0.0625,0.15625 -0.0083,0.00714 -0.03629,0.067538 -0.03125,0.0625 -0.01373,0.013735 -0.06603,0.014846 -0.09375,0.03125 0.02356,-0.035316 0.0446,-0.081094 0.0625,-0.125 0.02685,-0.065858 0.09372,-0.1049727 0.09375,-0.1875 4.3e-5,-0.12805 -0.0716,-0.1953599 -0.125,-0.28125 z M 31,6.46875 c 3.31e-4,-0.00339 0.03076,0.00372 0.03125,0 C 31.020458,6.4989037 31.003995,6.5299205 31,6.5625 l 0,0.03125 c -0.001,0.021293 -0.0023,0.040137 0,0.0625 -0.0092,-0.012959 -0.02345,-0.01668 -0.03125,-0.03125 -0.0065,-0.038882 0,-0.060477 0,-0.0625 0,0.00186 -0.0074,0.00842 0,-0.03125 0.0015,-0.00814 0.02992,-0.048922 0.03125,-0.0625 z M 29.40625,6.5 l 0.0625,0 c 0.02249,0.017381 0.01956,0.044076 0.03125,0.0625 0.005,0.0079 -0.0031,0.022616 0,0.03125 l -0.0625,0 -0.03125,-0.03125 c -0.0165,-0.00734 -0.02044,0.00639 -0.03125,0 0.0097,-0.023071 -0.0042,-0.029164 0.03125,-0.0625 z m 1.9375,0.03125 0.09375,0.03125 0,0.03125 0.03125,0 L 31.5,6.625 c -0.01843,0.015717 -0.01121,0.049964 -0.03125,0.0625 l -0.03125,0 -0.0625,-0.0625 -0.03125,0 c -0.02304,-0.025129 -0.04573,-0.035835 -0.0625,-0.0625 0.01023,-0.019277 0.04828,-0.013618 0.0625,-0.03125 z m -6.875,0.03125 c -0.01164,0.2312683 0.09047,0.4229788 0.21875,0.59375 l -0.40625,0 c 0.05442,-0.06508 0.152239,-0.150212 0.1875,-0.28125 0.03865,-0.1436265 0.0071,-0.2178917 0,-0.3125 z M 24.625,6.75 c 0.0019,0.00783 0.02904,-0.00773 0.03125,0 -0.0015,0.00898 8.4e-4,0.022471 0,0.03125 -0.0028,-0.010855 -0.0313,-0.031472 -0.03125,-0.03125 z m 0.1875,0.15625 c 0.02943,0.024623 0.06223,0.062365 0.0625,0.0625 0.0063,0.00505 0.02467,-0.00477 0.03125,0 0.03291,0.023865 0.02415,0.077848 0.0625,0.09375 -0.01748,-0.00643 -0.04796,0.00721 -0.0625,0 -0.0085,-0.013032 -0.02371,-0.01701 -0.03125,-0.03125 -0.02442,-0.046112 -0.0551,-0.068084 -0.0625,-0.125 z m -2.375,0.03125 0.0625,0 c 0.0072,0.015491 -0.007,0.046815 0,0.0625 0.02389,0.053461 0.09644,0.1040266 0.125,0.15625 l -0.3125,0 c 0.007,-0.010921 0.02429,-0.020143 0.03125,-0.03125 0.0343,-0.054738 0.06636,-0.1269701 0.09375,-0.1875 z"
         id="path8193"
         inkscape:connector-curvature="0" />
      <path
         style="fill:#000000;fill-opacity:1;stroke:#ff0321;stroke-width:0.01592741;stroke-linejoin:miter;stroke-miterlimit:2;stroke-opacity:0.59360729;stroke-dasharray:none;stroke-dashoffset:0"
         d=""
         id="path8310"
         inkscape:connector-curvature="0"
         transform="translate(-5.9568496,-1.5608857)" />
      <g
         id="g8720"
         transform="matrix(0.03491272,0,0,0.03491272,-32.575648,-8.7738889)">
        <path
           id="rect8492-9-3-6-5-8-2-7-4-8-1-4-2"
           style="fill:#000000;fill-opacity:1;stroke:none"
           d="m 874.28571,592.36218 37.14287,0 0,34.28572 -37.14287,0 z m -28.57148,-32.57147 85.71431,0 0,34.28571 -85.71431,0 z m -32.85711,-31.42853 148.57144,0 0,34.28572 -148.57144,0 z m 282.85708,64.85718 42.8572,0 0,34.28571 -42.8572,0 z m -31.4284,-32.28577 94.2857,0 0,34.28572 -94.2857,0 z m -41.7144,-31.71423 174.2857,0 0,34.28571 -174.2857,0 z m -248.28563,-34.00003 400.00003,0 0,34.28571 -400.00003,0 z m 30.28564,-34.28571 417.14289,0 0,34.28572 -417.14289,0 z m -28.85705,-34.2857 420.00004,0 0,34.28571 -420.00004,0 z m 22.85705,-34.28574 419.99999,0 0,34.28572 -419.99999,0 z m -35.14282,-34.28573 402.85711,0 0,34.28571 -402.85711,0 z m 67.99994,-30.57138 362.85717,0 0,34.28571 -362.85717,0 z m -32.85706,-31.71433 368.57143,0 0,34.28571 -368.57143,0 z m 71.99994,-30.85712 242.85719,0 0,34.28572 -242.85719,0 z m 251.73689,-13.7143 c 0,-3.92857 0.6485,-5.53571 1.4411,-3.57143 0.7926,1.96429 0.7926,5.17858 0,7.14286 -0.7926,1.96429 -1.4411,0.35714 -1.4411,-3.57143 z"
           inkscape:connector-curvature="0" />
      </g>
    </g>
  </g>
</svg>
