<?xml version="1.0" encoding="UTF-8" standalone="no"?>
<!-- Created with Inkscape (http://www.inkscape.org/) -->

<svg
   xmlns:dc="http://purl.org/dc/elements/1.1/"
   xmlns:cc="http://creativecommons.org/ns#"
   xmlns:rdf="http://www.w3.org/1999/02/22-rdf-syntax-ns#"
   xmlns:svg="http://www.w3.org/2000/svg"
   xmlns="http://www.w3.org/2000/svg"
   xmlns:sodipodi="http://sodipodi.sourceforge.net/DTD/sodipodi-0.dtd"
   xmlns:inkscape="http://www.inkscape.org/namespaces/inkscape"
   width="16px"
   height="16px"
   id="svg3121"
   version="1.1"
   inkscape:version="0.48.4 r9939"
   sodipodi:docname="bet.svg">
  <defs
     id="defs3123" />
  <sodipodi:namedview
     id="base"
     pagecolor="#ffffff"
     bordercolor="#666666"
     borderopacity="1.0"
     inkscape:pageopacity="0.0"
     inkscape:pageshadow="2"
     inkscape:zoom="7.8481083"
     inkscape:cx="8"
     inkscape:cy="5.4926981"
     inkscape:current-layer="g3356"
     showgrid="true"
     inkscape:grid-bbox="true"
     inkscape:document-units="px"
     inkscape:window-width="1144"
     inkscape:window-height="848"
     inkscape:window-x="387"
     inkscape:window-y="24"
     inkscape:window-maximized="0" />
  <metadata
     id="metadata3126">
    <rdf:RDF>
      <cc:Work
         rdf:about="">
        <dc:format>image/svg+xml</dc:format>
        <dc:type
           rdf:resource="http://purl.org/dc/dcmitype/StillImage" />
        <dc:title />
      </cc:Work>
    </rdf:RDF>
  </metadata>
  <g
     id="layer1"
     inkscape:label="Layer 1"
     inkscape:groupmode="layer">
    <g
       id="g3356"
       transform="translate(-69.438394,4.5558538)">
      <path
         style="fill:#000000;fill-opacity:1;stroke:none"
         d="M 80.145208,9.7681671 C 78.313789,8.8647694 76.64705,7.621685 74.696551,6.9674985 73.84438,6.6261662 73.729986,5.4193444 72.782024,5.2342608 72.040979,5.0092013 71.147479,4.9345976 70.67846,4.228639 69.933892,3.4339227 69.251321,2.2556243 69.749894,1.1588273 c 0.644183,-1.43328966 1.796887,-2.639261 3.225109,-3.3060406 2.166149,-1.037578 4.693703,-1.4404214 7.036623,-0.7994467 1.780747,0.48692 3.611172,1.4160387 4.48858,3.12596951 0.58518,1.13120569 0.888273,2.39696179 1.044947,3.65524709 0.129038,0.738693 -0.120731,1.4424646 -0.488095,2.0757241 -0.450611,0.7103364 -0.642412,1.7119202 -1.489759,2.0744011 -0.72669,0.2208465 -1.423917,0.6636755 -1.745828,1.3648051 -0.44469,0.3999633 -1.094062,0.5891173 -1.676263,0.4186802 z"
         id="path3426"
         inkscape:connector-curvature="0" />
    </g>
  </g>
</svg>
