<?xml version="1.0" encoding="UTF-8" standalone="no"?>
<!-- Created with Inkscape (http://www.inkscape.org/) -->

<svg
   xmlns:dc="http://purl.org/dc/elements/1.1/"
   xmlns:cc="http://creativecommons.org/ns#"
   xmlns:rdf="http://www.w3.org/1999/02/22-rdf-syntax-ns#"
   xmlns:svg="http://www.w3.org/2000/svg"
   xmlns="http://www.w3.org/2000/svg"
   xmlns:sodipodi="http://sodipodi.sourceforge.net/DTD/sodipodi-0.dtd"
   xmlns:inkscape="http://www.inkscape.org/namespaces/inkscape"
   width="16px"
   height="16px"
   id="svg2985"
   version="1.1"
   inkscape:version="0.48.4 r9939"
   sodipodi:docname="bedpostx.svg">
  <defs
     id="defs2987" />
  <sodipodi:namedview
     id="base"
     pagecolor="#ffffff"
     bordercolor="#666666"
     borderopacity="1.0"
     inkscape:pageopacity="0.0"
     inkscape:pageshadow="2"
     inkscape:zoom="15.696216"
     inkscape:cx="22.146782"
     inkscape:cy="20.978517"
     inkscape:current-layer="layer1"
     showgrid="true"
     inkscape:grid-bbox="true"
     inkscape:document-units="px"
     inkscape:window-width="1535"
     inkscape:window-height="876"
     inkscape:window-x="65"
     inkscape:window-y="24"
     inkscape:window-maximized="1" />
  <metadata
     id="metadata2990">
    <rdf:RDF>
      <cc:Work
         rdf:about="">
        <dc:format>image/svg+xml</dc:format>
        <dc:type
           rdf:resource="http://purl.org/dc/dcmitype/StillImage" />
        <dc:title></dc:title>
      </cc:Work>
    </rdf:RDF>
  </metadata>
  <g
     id="layer1"
     inkscape:label="Layer 1"
     inkscape:groupmode="layer">
    <g
       style="font-size:13px;font-style:normal;font-weight:normal;line-height:125%;letter-spacing:0px;word-spacing:0px;fill:#000000;fill-opacity:1;stroke:none;font-family:Sans"
       id="text3877"
       transform="matrix(0.44573216,0,0,0.44573216,-1.845729,6.6441414)">
      <path
         d="m 4.1408925,-1.1222057 8.7343755,0 0,1.84716793 -3.1420903,0 0,7.62988277 -2.4438477,0 0,-7.62988277 -3.1484375,0 0,-1.84716793"
         style="font-weight:bold;-inkscape-font-specification:Sans Bold"
         id="path4191"
         inkscape:connector-curvature="0" />
      <path
         d="m 17.928002,2.5467396 c 0.385086,5.8e-6 0.677078,-0.08463 0.875976,-0.2539063 0.198888,-0.1692646 0.298334,-0.4189388 0.29834,-0.7490234 -6e-6,-0.3258392 -0.09945,-0.57339757 -0.29834,-0.74267579 C 18.60508,0.62763923 18.313088,0.54088802 17.928002,0.5408802 l -1.352051,0 0,2.0058594 1.352051,0 m 0.08252,4.1450195 c 0.49088,1.7e-6 0.859044,-0.1036766 1.104493,-0.3110351 0.249668,-0.2073546 0.374505,-0.5205054 0.374511,-0.9394532 -6e-6,-0.4104784 -0.122727,-0.7172815 -0.368164,-0.9204101 -0.245448,-0.2073528 -0.615728,-0.311031 -1.11084,-0.3110352 l -1.43457,0 0,2.4819336 1.43457,0 m 2.272461,-3.4086914 c 0.524732,0.1523487 0.930982,0.4337612 1.21875,0.8442383 0.287752,0.4104856 0.431632,0.9140658 0.431641,1.5107422 -9e-6,0.9140643 -0.308928,1.5953787 -0.926758,2.0439453 C 20.38877,8.1305614 19.449318,8.354845 18.188257,8.354845 l -4.056153,0 0,-9.4770507 3.668946,0 c 1.316074,9.4e-6 2.268222,0.19890247 2.856445,0.59667965 0.59244,0.39779494 0.888663,1.03467582 0.888672,1.91064455 -9e-6,0.4612695 -0.107919,0.8548238 -0.323731,1.180664 -0.215828,0.3216201 -0.528979,0.5607149 -0.939453,0.7172852"
         style="font-weight:bold;-inkscape-font-specification:Sans Bold"
         id="path4193"
         inkscape:connector-curvature="0" />
      <path
         d="m 30.629662,-0.82386589 0,2.00585939 C 30.109147,0.94925349 29.601335,0.77363518 29.106225,0.65513802 28.611102,0.53665625 28.143491,0.47741152 27.703393,0.47740364 c -0.583989,7.88e-6 -1.015629,0.0804114 -1.294922,0.24121094 -0.279301,0.16081477 -0.418949,0.41048902 -0.418946,0.74902342 -3e-6,0.2539129 0.0931,0.4528059 0.279297,0.5966797 0.190426,0.1396546 0.533199,0.2602599 1.028321,0.3618164 l 1.041015,0.2094727 c 1.053705,0.211594 1.802727,0.5332083 2.24707,0.9648437 0.444328,0.431645 0.666496,1.0452511 0.666504,1.8408203 -8e-6,1.0452493 -0.311043,1.8238943 -0.933105,2.3359375 -0.617846,0.5078126 -1.563645,0.7617186 -2.837402,0.7617188 -0.600916,-2e-7 -1.203943,-0.057129 -1.809082,-0.1713867 C 25.066997,8.2532826 24.461854,8.084012 23.856713,7.8597279 l 0,-2.0629883 c 0.605141,0.3216168 1.189125,0.5649434 1.751953,0.7299804 0.567054,0.160809 1.112952,0.2412126 1.637695,0.241211 0.533198,1.6e-6 0.941564,-0.088865 1.225098,-0.2666016 0.283523,-0.1777323 0.425287,-0.4316383 0.425293,-0.7617187 -6e-6,-0.2962211 -0.09734,-0.5247365 -0.291992,-0.6855469 C 28.414324,4.89326 28.03135,4.7493799 27.455834,4.6224232 L 26.510033,4.4129505 C 25.562114,4.2098297 24.868104,3.8860995 24.428002,3.4417591 23.992128,2.9974285 23.774192,2.3986336 23.774193,1.6453724 c -1e-6,-0.94367725 0.304687,-1.66942522 0.914063,-2.1772461 0.609372,-0.5078031 1.485348,-0.7617091 2.627929,-0.7617188 0.520503,9.7e-6 1.055822,0.040211 1.605958,0.1206055 0.550123,0.076181 1.119296,0.19255492 1.707519,0.34912111"
         style="font-weight:bold;-inkscape-font-specification:Sans Bold"
         id="path4195"
         inkscape:connector-curvature="0" />
      <path
         d="m 39.414818,-0.82386589 0,2.00585939 C 38.894303,0.94925349 38.386491,0.77363518 37.891381,0.65513802 37.396258,0.53665625 36.928648,0.47741152 36.488549,0.47740364 c -0.583989,7.88e-6 -1.015629,0.0804114 -1.294922,0.24121094 -0.2793,0.16081477 -0.418949,0.41048902 -0.418945,0.74902342 -4e-6,0.2539129 0.09309,0.4528059 0.279296,0.5966797 0.190427,0.1396546 0.5332,0.2602599 1.028321,0.3618164 l 1.041015,0.2094727 c 1.053705,0.211594 1.802727,0.5332083 2.247071,0.9648437 0.444327,0.431645 0.666495,1.0452511 0.666504,1.8408203 -9e-6,1.0452493 -0.311044,1.8238943 -0.933106,2.3359375 -0.617845,0.5078126 -1.563645,0.7617186 -2.837402,0.7617188 -0.600916,-2e-7 -1.203942,-0.057129 -1.809082,-0.1713867 C 33.852153,8.2532826 33.247011,8.084012 32.641869,7.8597279 l 0,-2.0629883 c 0.605142,0.3216168 1.189125,0.5649434 1.751953,0.7299804 0.567054,0.160809 1.112952,0.2412126 1.637696,0.241211 0.533198,1.6e-6 0.941563,-0.088865 1.225097,-0.2666016 0.283523,-0.1777323 0.425287,-0.4316383 0.425293,-0.7617187 -6e-6,-0.2962211 -0.09734,-0.5247365 -0.291992,-0.6855469 C 37.199481,4.89326 36.816506,4.7493799 36.24099,4.6224232 L 35.295189,4.4129505 C 34.34727,4.2098297 33.65326,3.8860995 33.213158,3.4417591 32.777285,2.9974285 32.559349,2.3986336 32.55935,1.6453724 c -1e-6,-0.94367725 0.304686,-1.66942522 0.914062,-2.1772461 0.609373,-0.5078031 1.485348,-0.7617091 2.62793,-0.7617188 0.520503,9.7e-6 1.055821,0.040211 1.605957,0.1206055 0.550123,0.076181 1.119296,0.19255492 1.707519,0.34912111"
         style="font-weight:bold;-inkscape-font-specification:Sans Bold"
         id="path4197"
         inkscape:connector-curvature="0" />
    </g>
  </g>
</svg>
