<?xml version="1.0" encoding="UTF-8" standalone="no"?>
<!-- Created with Inkscape (http://www.inkscape.org/) -->

<svg
   xmlns:dc="http://purl.org/dc/elements/1.1/"
   xmlns:cc="http://creativecommons.org/ns#"
   xmlns:rdf="http://www.w3.org/1999/02/22-rdf-syntax-ns#"
   xmlns:svg="http://www.w3.org/2000/svg"
   xmlns="http://www.w3.org/2000/svg"
   xmlns:sodipodi="http://sodipodi.sourceforge.net/DTD/sodipodi-0.dtd"
   xmlns:inkscape="http://www.inkscape.org/namespaces/inkscape"
   width="16px"
   height="16px"
   id="svg2985"
   version="1.1"
   inkscape:version="0.48.4 r9939"
   sodipodi:docname="registration.svg">
  <defs
     id="defs2987" />
  <sodipodi:namedview
     id="base"
     pagecolor="#ffffff"
     bordercolor="#666666"
     borderopacity="1.0"
     inkscape:pageopacity="0.0"
     inkscape:pageshadow="2"
     inkscape:zoom="15.696216"
     inkscape:cx="-0.25043033"
     inkscape:cy="8.2775104"
     inkscape:current-layer="layer1"
     showgrid="true"
     inkscape:grid-bbox="true"
     inkscape:document-units="px"
     inkscape:window-width="1535"
     inkscape:window-height="876"
     inkscape:window-x="65"
     inkscape:window-y="24"
     inkscape:window-maximized="1" />
  <metadata
     id="metadata2990">
    <rdf:RDF>
      <cc:Work
         rdf:about="">
        <dc:format>image/svg+xml</dc:format>
        <dc:type
           rdf:resource="http://purl.org/dc/dcmitype/StillImage" />
        <dc:title></dc:title>
      </cc:Work>
    </rdf:RDF>
  </metadata>
  <g
     id="layer1"
     inkscape:label="Layer 1"
     inkscape:groupmode="layer">
    <path
       style="font-size:medium;font-style:normal;font-variant:normal;font-weight:normal;font-stretch:normal;text-indent:0;text-align:start;text-decoration:none;line-height:normal;letter-spacing:normal;word-spacing:normal;text-transform:none;direction:ltr;block-progression:tb;writing-mode:lr-tb;text-anchor:start;baseline-shift:baseline;color:#000000;fill:#000000;fill-opacity:1;stroke:none;stroke-width:2.64739895;marker:none;visibility:visible;display:inline;overflow:visible;enable-background:accumulate;font-family:Sans;-inkscape-font-specification:Sans"
       d="m 11.279044,2.7061753 c -2.4498447,0 -4.4678117,2.0179672 -4.4678117,4.4678107 0,2.4498441 2.017967,4.446331 4.4678117,4.446331 2.449842,0 4.44633,-1.9964869 4.44633,-4.446331 0,-2.4498435 -1.996488,-4.4678107 -4.44633,-4.4678107 z m 0,1.8257881 c 1.466401,0 2.620542,1.1756203 2.620542,2.6420226 0,1.4664021 -1.154141,2.642022 -2.620542,2.642022 -1.4664036,0 -2.6420238,-1.1756199 -2.6420238,-2.642022 0,-1.4664023 1.1756202,-2.6420226 2.6420238,-2.6420226 z"
       id="path3079-8"
       inkscape:connector-curvature="0" />
    <g
       id="g9393"
       transform="translate(3.7588676,-6.4983813)">
      <path
         style="fill:#010101"
         d="m 0.07818047,13.470986 c -0.2149967,-0.242021 -0.39863963,-0.444047 -0.40809533,-0.448946 -0.0155273,-0.008 -0.1048121,0.06893 -0.92196134,0.794833 l -0.9047692,0.803741 -0.6982914,-0.786065 -0.6982914,-0.786065 0.9047692,-0.803741 c 0.8171492,-0.725905 0.9041087,-0.805496 0.8979494,-0.821863 -0.00375,-0.01 -0.1827261,-0.21614 -0.3977228,-0.458161 -0.2286923,-0.257438 -0.3866597,-0.441693 -0.3806771,-0.444027 0.019217,-0.0075 4.0347751,-0.5676748 4.0385806,-0.563391 0.00381,0.00428 -1.02571363,3.925839 -1.03542153,3.944039 -0.00302,0.0057 -0.1673768,-0.172915 -0.3960691,-0.430354 z"
         id="path9395"
         inkscape:connector-curvature="0" />
    </g>
    <path
       style="fill:#000000"
       d="m 8.8230728,15.473743 c -0.05488,-0.06833 -0.142428,-0.14626 -0.194483,-0.173179 -0.08622,-0.04459 -0.0995,-0.04455 -0.149137,3.67e-4 -0.04907,0.04443 -0.06563,0.04466 -0.167096,0.0023 -0.06191,-0.02588 -0.137528,-0.04718 -0.167988,-0.04734 -0.03047,-1.55e-4 -0.124978,-0.03399 -0.210037,-0.07517 -0.08507,-0.04119 -0.164992,-0.0685 -0.177627,-0.06069 -0.01265,0.0078 -0.08074,-0.01527 -0.151351,-0.0513 -0.07061,-0.03602 -0.134706,-0.05917 -0.142441,-0.05143 -0.0077,0.0077 -0.0173,0.06484 -0.0213,0.126908 -0.0082,0.127997 -0.05262,0.152489 -0.09808,0.05407 -0.038672,-0.08372 -0.079068,-0.08492 -0.1004954,-0.003 -0.024404,0.09331 -0.088119,0.05443 -0.075917,-0.04632 0.00678,-0.05616 -0.00129,-0.07896 -0.023307,-0.06538 -0.018594,0.01147 -0.033765,0.04883 -0.033765,0.08302 0,0.03617 -0.013881,0.05357 -0.033184,0.04163 -0.018271,-0.01129 -0.026535,-0.03785 -0.0184,-0.05903 0.00813,-0.02119 0.00194,-0.05823 -0.013429,-0.08232 -0.024146,-0.03752 -0.032345,-0.03735 -0.057137,0.0012 -0.023242,0.03615 -0.036412,0.02853 -0.067137,-0.03885 -0.048873,-0.107239 -0.083626,-0.106653 -0.09608,0.0016 -0.0073,0.06368 -0.029311,0.08821 -0.086312,0.09625 -0.042094,0.0059 -0.091741,0.03167 -0.1103994,0.05719 -0.053198,0.0728 -0.1109675,-0.01952 -0.1136856,-0.181784 C 6.5110544,14.79143 6.4974984,14.76829 6.3686024,14.747676 6.1907823,14.719246 6.0502458,14.52468 6.0090429,14.249901 5.9857359,14.094307 5.9461599,14.072109 5.7350522,14.0962 c -0.2142586,0.02446 -0.3024813,0.07192 -0.3593983,0.193354 -0.035573,0.07584 -0.094375,0.132112 -0.1822947,0.174362 -0.071404,0.03431 -0.1632039,0.09375 -0.204,0.132075 -0.040803,0.03833 -0.1016385,0.06969 -0.1351909,0.06969 -0.033572,0 -0.092083,0.02177 -0.1300712,0.04838 -0.055264,0.03871 -0.069067,0.03992 -0.069067,0.0061 0,-0.02326 0.1013867,-0.118444 0.2253052,-0.211528 0.2364743,-0.177632 0.2651717,-0.206407 0.3520451,-0.352969 l 0.05365,-0.0905 -0.1523447,0.112805 c -0.4146306,0.307018 -0.3930672,0.295674 -0.5641088,0.296712 -0.1200126,7.11e-4 -0.1631458,-0.01057 -0.1631458,-0.04275 0,-0.02405 -0.026341,-0.05783 -0.058492,-0.07505 -0.037897,-0.02028 -0.06602,-0.08149 -0.079868,-0.173824 -0.012073,-0.08062 -0.04119,-0.15012 -0.066982,-0.160021 -0.0368,-0.01411 -0.181294,0.02951 -0.3616582,0.109173 -0.012912,0.0057 -0.023436,-0.03732 -0.023436,-0.09558 0,-0.1264 0.085621,-0.216047 0.2595742,-0.271793 0.1090824,-0.03495 0.1153707,-0.04273 0.070675,-0.08743 -0.044676,-0.0447 -0.063851,-0.04439 -0.215692,0.0035 -0.091651,0.02889 -0.1881633,0.05253 -0.2144783,0.05253 -0.026341,0 -0.065258,0.02098 -0.086538,0.04661 -0.053069,0.06393 -0.1277405,0.06066 -0.1027425,-0.0045 0.011879,-0.03101 -0.00258,-0.06716 -0.036219,-0.09192 -0.04629,-0.03385 -0.073871,-0.03326 -0.1617901,0.0035 -0.093517,0.03907 -0.1081462,0.03867 -0.1242929,-0.0034 -0.010072,-0.02623 -0.00258,-0.06353 0.016915,-0.08289 0.067918,-0.06792 0.040028,-0.210629 -0.05804,-0.296645 -0.09045,-0.07937 -0.1263073,-0.192273 -0.061075,-0.192273 0.01769,0 0.066995,0.02282 0.1095666,0.05071 0.072237,0.04733 0.081566,0.04694 0.1400071,-0.0059 0.056104,-0.05078 0.081056,-0.05288 0.2400445,-0.02027 0.187608,0.03849 0.3278411,0.02199 0.3078143,-0.03621 -0.00671,-0.01943 -0.079559,-0.03489 -0.1644242,-0.03489 -0.2044584,0 -0.2252341,-0.05783 -0.028084,-0.07824 0.085459,-0.0089 0.1722941,-0.02681 0.1929601,-0.0399 0.020659,-0.01309 0.065484,-0.0064 0.099585,0.01491 0.091535,0.05716 0.1105286,0.01186 0.037123,-0.08856 -0.035315,-0.04844 -0.083452,-0.180716 -0.1069261,-0.294039 -0.0235,-0.113321 -0.073961,-0.270646 -0.1121878,-0.349609 -0.099598,-0.205743 -0.1939285,-0.188744 -0.3528262,0.06359 -0.044805,0.0712 -0.097009,0.139031 -0.1159323,0.150725 -0.053909,0.03331 -0.07451,-0.0093 -0.030279,-0.06265 0.060106,-0.07241 0.017561,-0.08838 -0.088797,-0.03336 -0.1182178,0.06113 -0.3151936,0.06558 -0.3151936,0.0071 0,-0.07851 -0.1120263,-0.143188 -0.4677836,-0.270076 -0.2378821,-0.08485 -0.3848941,-0.121214 -0.4437415,-0.109771 -0.1707318,0.0332 -0.2758501,-0.09435 -0.1450688,-0.17602 0.086596,-0.05408 0.079384,-0.07373 -0.061204,-0.166777 -0.091257,-0.06039 -0.151925,-0.07831 -0.2330783,-0.06883 -0.1161647,0.01356 -0.1331572,-9.68e-4 -0.072283,-0.06186 0.029182,-0.02918 0.00865,-0.06675 -0.093226,-0.170543 -0.2002296,-0.204017 -0.1581423,-0.284495 0.06839,-0.13077 0.062947,0.04273 0.1488197,0.07769 0.1907908,0.07769 0.1808485,0 0.029827,-0.251776 -0.2322842,-0.387333 -0.058492,-0.03023 -0.097642,-0.08045 -0.1113033,-0.142647 -0.02789,-0.126921 -0.00129,-0.14625 0.110096,-0.08039 0.1121426,0.06625 0.1260555,0.01327 0.024791,-0.09449 -0.1026779,-0.109292 -0.050293,-0.115828 0.082483,-0.0103 0.1110256,0.08823 0.2646551,0.126619 0.2646551,0.06613 0,-0.01513 -0.034928,-0.05041 -0.077686,-0.07841 -0.1072743,-0.07029 -0.097177,-0.111625 0.027245,-0.111625 0.1354426,0 0.190326,-0.06078 0.1285669,-0.142393 -0.024791,-0.03278 -0.045967,-0.08757 -0.047065,-0.121756 -0.00129,-0.03419 -0.022532,-0.0893 -0.047581,-0.122476 -0.048873,-0.06461 -0.06327,-0.3446344 -0.01911,-0.3719134 0.044935,-0.02776 0.2334915,0.292763 0.315355,0.5359724 0.071856,0.213503 0.088145,0.236346 0.2170543,0.304387 0.095492,0.05041 0.1908683,0.07356 0.3029915,0.07356 0.1561345,0 0.2179,-0.04328 0.1170169,-0.08199 -0.1052216,-0.04038 4.132e-4,-0.163876 0.1416728,-0.165633 0.1084368,-0.0014 0.1996616,-0.07237 0.1751155,-0.136338 -0.020078,-0.05235 -0.137967,-0.07038 -0.3711681,-0.05678 -0.117811,0.0069 -0.1578711,-0.03397 -0.067382,-0.0687 0.027051,-0.01037 0.1109417,-0.01886 0.1864588,-0.01886 0.075517,0 0.137302,-0.008 0.137302,-0.01777 0,-0.03359 -0.1657541,-0.3085794 -0.2281136,-0.3784514 -0.044031,-0.04931 -0.097242,-0.06992 -0.1805838,-0.06992 -0.15995,0 -0.2395732,-0.10903 -0.1816813,-0.248794 0.051972,-0.125414 0.1326214,-0.129571 0.085376,-0.0044 -0.051003,0.135214 -0.014139,0.191041 0.1262943,0.191041 0.080695,0 0.1388967,-0.02036 0.1762969,-0.06169 0.053005,-0.05858 0.053198,-0.07006 0.00387,-0.227637 -0.037507,-0.119198 -0.095619,-0.208703 -0.2063992,-0.317811 -0.1624744,-0.160032 -0.192321,-0.231909 -0.096299,-0.231909 0.053521,0 0.2653524,0.209164 0.3789412,0.374123 l 0.048356,0.07026 0.060365,-0.0941 c 0.084394,-0.131514 0.2870318,-0.350286 0.3244514,-0.350286 0.040415,0 0.04048,0.0838 9.69e-5,0.108767 -0.017109,0.01056 -0.031054,0.03117 -0.031054,0.04579 0,0.03087 0.2826935,0.19463 0.3022362,0.175087 0.00723,-0.0072 0.016592,-0.119179 0.020918,-0.248827 0.00452,-0.129648 0.017238,-0.245154 0.028794,-0.25668 0.011492,-0.01152 0.020982,-0.05114 0.020982,-0.08805 0,-0.05907 0.1142215,-0.202234 0.1613381,-0.202234 0.00962,0 0.010201,0.06449 0.00129,0.143309 -0.015043,0.133332 -0.012073,0.141073 0.042675,0.111185 0.1076879,-0.05882 0.3090667,-0.2737003 0.4305513,-0.4594283 0.066027,-0.1009361 0.1238346,-0.188417 0.1284701,-0.1944018 0.00452,-0.006 0.024081,-0.00116 0.043256,0.010646 0.024727,0.015262 0.020789,0.042978 -0.013493,0.095248 -0.026599,0.040544 -0.048292,0.089021 -0.048292,0.1077233 0,0.063005 0.056297,-1.556e-4 0.1230405,-0.1379799 0.067163,-0.1387359 0.1388644,-0.1963586 0.1738694,-0.1397243 0.010588,0.017096 -0.00129,0.062243 -0.026147,0.1003195 -0.1051183,0.1604258 -0.087919,0.4563315 0.026535,0.4563315 0.081773,0 0.1833211,-0.1619912 0.1992419,-0.3178358 0.00891,-0.087411 0.032345,-0.1642382 0.052036,-0.1707278 0.047259,-0.015572 0.1351328,0.1638224 0.1351328,0.2758035 0,0.1511621 0.055264,0.097041 0.076279,-0.074696 0.034088,-0.2786546 0.086079,-0.4273006 0.1494459,-0.4273006 0.046807,0 0.053779,0.01769 0.03977,0.1009987 -0.013106,0.077589 5.036e-4,0.1221011 0.058621,0.1920453 0.064303,0.077391 0.082942,0.084977 0.1243898,0.050577 0.026793,-0.022261 0.049195,-0.070221 0.049777,-0.1065852 0.00129,-0.072624 0.098546,-0.2059607 0.1504658,-0.2059607 0.018013,0 0.047711,-0.027968 0.066033,-0.062153 0.040092,-0.074933 0.1414791,-0.081485 0.180545,-0.011673 0.03086,0.055142 0.015107,0.071187 0.2230068,-0.2266836 0.1008831,-0.1445186 0.1632039,-0.1502588 0.280124,-0.025799 0.052682,0.056065 0.060558,0.08478 0.035896,0.130822 -0.020595,0.03853 -0.021047,0.074579 -0.00129,0.1039304 0.02505,0.037168 0.039447,0.031725 0.08329,-0.031467 0.095395,-0.1374886 0.2002878,-0.2528263 0.2158082,-0.2373039 0.00839,0.00837 -0.04997,0.1084974 -0.1296902,0.2225084 -0.079694,0.1140103 -0.1386062,0.213588 -0.1309105,0.2212831 0.00768,0.0077 0.064367,-0.060377 0.1259328,-0.1512737 0.2142136,-0.3162517 0.2290175,-0.325801 0.2903118,-0.1873168 0.088474,0.1998649 0.1004182,0.5298365 0.027955,0.7724266 -0.026535,0.08885 0.021757,0.3928001 0.064723,0.4070571 0.021047,0.007 0.061075,-0.03524 0.08901,-0.09383 0.046355,-0.0972 0.046613,-0.121199 0.00258,-0.2742983 -0.046871,-0.1636209 -0.040996,-0.3227995 0.013106,-0.3562324 0.023113,-0.014274 0.1332993,0.1333844 0.161209,0.2159968 0.00516,0.015146 0.036606,0.012673 0.070042,-0.00549 0.033378,-0.018174 0.085214,-0.040615 0.1151251,-0.049873 0.07279,-0.022525 0.06938,-0.153647 -0.0085,-0.3251702 -0.0669,-0.1474259 -0.07512,-0.1908341 -0.03615,-0.1908341 0.01394,0 0.04919,0.050015 0.07833,0.1111463 0.06507,0.1364621 0.122957,0.1241736 0.148258,-0.031473 0.02847,-0.1749869 0.08652,-0.1933061 0.206124,-0.065012 0.06379,0.068404 0.118276,0.1011988 0.148769,0.089499 0.02647,-0.010155 0.07207,0.00303 0.101347,0.029272 0.02925,0.026257 0.102175,0.060894 0.161997,0.076974 0.05985,0.016082 0.106352,0.042003 0.103395,0.057608 -0.0032,0.015604 -0.01498,0.066569 -0.02666,0.1132531 -0.01659,0.066105 -0.01027,0.084881 0.02867,0.084881 0.03641,0 0.04997,0.029543 0.04997,0.1087673 0,0.075965 0.01408,0.1087673 0.04661,0.1087673 0.06043,0 0.05978,-0.099833 -0.0019,-0.3082391 -0.06847,-0.2305578 -0.04907,-0.2624665 0.14829,-0.2435062 0.119683,0.011498 0.175819,0.034166 0.220127,0.088883 0.06043,0.074614 0.06062,0.098689 0.0032,0.4126492 -0.03138,0.1724453 0.04351,0.1381343 0.142919,-0.0655 0.145527,-0.2981114 0.276644,-0.3774924 0.283669,-0.1717434 0.0122,0.3575407 0.0058,0.3343407 0.08925,0.3303299 0.04274,-0.00207 0.08888,0.015424 0.102542,0.038846 0.01769,0.03033 0.09497,0.04258 0.268458,0.04258 l 0.243608,0 0.01969,0.104933 c 0.02176,0.115887 -0.0224,0.267983 -0.07777,0.267983 -0.02124,0 -0.02828,0.02741 -0.01763,0.06834 0.01085,0.04156 -0.0073,0.109042 -0.04636,0.172218 -0.04661,0.07541 -0.05875,0.131198 -0.04442,0.203576 0.01091,0.05484 0.02014,0.125267 0.0206,0.156513 6.46e-4,0.05426 0.0045,0.05439 0.08452,0.0031 0.04603,-0.02952 0.1361532,-0.106435 0.2002492,-0.170907 0.09112,-0.09165 0.11654,-0.141481 0.11654,-0.228431 0,-0.06116 0.01401,-0.111208 0.03105,-0.111208 0.04797,0 0.03674,0.209678 -0.01679,0.31322 -0.02634,0.05093 -0.03951,0.10609 -0.02938,0.122579 0.0102,0.01649 -0.01872,0.07887 -0.0643,0.138614 -0.04558,0.05975 -0.07518,0.128644 -0.06579,0.153102 0.0175,0.04562 0.123247,0.02532 0.37051,-0.07112 0.06967,-0.02717 0.08546,-0.02486 0.08546,0.01251 0,0.05652 -0.0026,0.05657 0.172785,-0.003 0.161932,-0.05498 0.188996,-0.04647 0.140498,0.04414 -0.01846,0.03453 -0.03357,0.118803 -0.03357,0.187286 0,0.06848 -0.01401,0.133157 -0.03105,0.143721 -0.01711,0.01056 -0.03105,0.05055 -0.03105,0.08885 0,0.0383 -0.01582,0.08548 -0.03519,0.104845 -0.04965,0.04961 -0.0097,0.1326092 0.06379,0.1326092 0.03389,0 0.07454,-0.02314 0.09036,-0.05142 0.04545,-0.08122 0.118844,-0.02732 0.140368,0.103096 0.02227,0.13488 0.0068,0.153072 -0.236384,0.277832 -0.13,0.0667 -0.145682,0.08528 -0.12878,0.152614 0.02376,0.09468 -0.07111,0.148591 -0.117042,0.06651 -0.03887,-0.06947 -0.06684,-0.06508 -0.177291,0.02786 -0.08185,0.06887 -0.08986,0.08886 -0.06101,0.152205 0.01956,0.0429 0.07015,0.08031 0.122912,0.09086 0.04932,0.0099 0.08969,0.03328 0.08969,0.05203 0,0.02308 -0.05378,0.02737 -0.166503,0.01329 -0.154469,-0.0193 -0.167814,-0.0158 -0.184606,0.04841 -0.01291,0.04943 -0.03312,0.06345 -0.07069,0.04904 -0.03751,-0.0144 -0.1025622,0.0306 -0.2271522,0.15722 -0.139439,0.141701 -0.163404,0.179845 -0.119096,0.189552 0.07616,0.01669 0.5473492,-0.208524 0.5855302,-0.279863 0.02118,-0.03953 0.05042,-0.05159 0.0927,-0.03818 0.0753,0.02389 0.201888,-0.05342 0.229398,-0.140099 0.02369,-0.07466 0.109031,-0.08487 0.109031,-0.01304 0,0.03292 0.01685,0.04346 0.04952,0.03094 0.134074,-0.05145 0.20706,-0.0562 0.233045,-0.01517 0.04487,0.07085 0.03351,0.103403 -0.08425,0.24094 -0.06185,0.07226 -0.104839,0.139005 -0.09553,0.148318 0.0093,0.0093 0.04849,-0.01932 0.08699,-0.06364 0.07905,-0.09091 0.121001,-0.102685 0.121001,-0.03396 0,0.06395 0.05823,0.05825 0.183211,-0.01795 0.114815,-0.07 0.164837,-0.04359 0.134829,0.07118 -0.0089,0.03404 0.0019,0.07303 0.02389,0.08665 0.0257,0.01587 0.03112,0.04539 0.01524,0.08228 -0.0244,0.05656 -0.03222,0.08558 -0.04164,0.154296 -0.0026,0.01905 -0.06867,0.05904 -0.146806,0.08888 -0.178744,0.06826 -0.228992,0.160383 -0.15177,0.278239 0.05785,0.08824 0.04054,0.128497 -0.06308,0.147182 -0.0441,0.0079 -0.06708,0.04433 -0.0806,0.127546 -0.04177,0.256806 0.169692,0.219782 0.319306,-0.05592 0.09758,-0.179818 0.189738,-0.208376 0.206214,-0.0639 0.0058,0.04978 -0.0065,0.121358 -0.02641,0.159066 -0.05488,0.102513 -0.02653,0.180409 0.08322,0.228757 0.05985,0.02637 0.103608,0.07158 0.112065,0.115806 0.01769,0.09254 0.0032,0.105083 -0.118934,0.105083 -0.06275,0 -0.10732,0.01839 -0.119128,0.04916 -0.03054,0.07964 -0.02253,0.100867 0.04636,0.122728 0.04726,0.015 0.06095,0.03907 0.04978,0.08755 -0.01892,0.08212 -0.07734,0.249386 -0.135881,0.389246 -0.03848,0.09197 -0.03803,0.111355 0.0039,0.157829 0.02634,0.02914 0.04797,0.06237 0.04797,0.07384 0,0.03883 -0.116449,0.02116 -0.153326,-0.02327 -0.03157,-0.03804 -0.0563,-0.03744 -0.179047,0.0044 -0.161429,0.05501 -0.124054,0.08056 -0.384778,-0.263111 -0.173114,-0.228194 -0.230392,-0.260495 -0.395927,-0.22328 -0.127715,0.02871 -0.140317,0.0249 -0.2619762,-0.07923 -0.07029,-0.06017 -0.144177,-0.109394 -0.164191,-0.109394 -0.02001,0 -0.09911,-0.03335 -0.175755,-0.0741 -0.291868,-0.155187 -0.45713,-0.125568 -0.334801,0.06 0.07286,0.110533 0.07574,0.1384 0.01433,0.1384 -0.02563,0 -0.04661,0.01102 -0.04661,0.02448 0,0.03494 0.277825,0.29564 0.387818,0.363906 0.05094,0.03161 0.07635,0.06288 0.05649,0.0695 -0.0643,0.02144 -0.206847,-0.07546 -0.413604,-0.281237 -0.187697,-0.186807 -0.214955,-0.202977 -0.376041,-0.223103 -0.143487,-0.01793 -0.195879,-0.01037 -0.301384,0.04346 -0.07024,0.03583 -0.150273,0.06515 -0.177847,0.06515 -0.02757,0 -0.04506,0.01748 -0.03893,0.03885 0.101044,0.349957 0.135765,0.425707 0.187569,0.40928 0.06379,-0.02023 0.06785,-0.0027 0.01782,0.07738 -0.0306,0.04898 -0.0224,0.0753 0.05016,0.16155 0.05501,0.06536 0.07314,0.107552 0.04965,0.115391 -0.0204,0.0068 -0.05772,-0.01715 -0.08299,-0.05321 -0.107223,-0.153089 -0.206602,-0.01494 -0.111587,0.155131 0.03712,0.06651 0.09157,0.111483 0.154669,0.127834 0.05352,0.01387 0.125952,0.0654 0.160918,0.114502 0.06627,0.09307 0.262648,0.189576 0.385766,0.189576 0.03932,0 0.138049,-0.02267 0.219358,-0.05037 0.104627,-0.03565 0.157516,-0.04069 0.180951,-0.01726 0.05384,0.05384 -0.114247,0.08333 -0.465322,0.08165 -0.175193,-8.39e-4 -0.318538,0.0079 -0.318538,0.0195 0,0.07144 0.125171,0.10355 0.452514,0.11608 0.451101,0.01727 0.493207,0.05025 0.292132,0.228858 -0.07626,0.06774 -0.157832,0.138291 -0.181268,0.156784 -0.05281,0.04165 -0.02608,0.332791 0.03402,0.370929 0.02182,0.01384 0.116584,0.02681 0.210585,0.02882 0.166096,0.0036 0.167852,0.0045 0.06217,0.03334 -0.05985,0.01633 -0.179919,0.04987 -0.266876,0.07452 -0.08696,0.02466 -0.241948,0.04483 -0.344406,0.04483 -0.179964,0 -0.189694,-0.0042 -0.286135,-0.124236 z m 0.462353,-0.233142 c 0,-0.02564 -0.02098,-0.04661 -0.04661,-0.04661 -0.02563,0 -0.04661,0.02098 -0.04661,0.04661 0,0.02564 0.02098,0.04661 0.04661,0.04661 0.02563,0 0.04661,-0.02098 0.04661,-0.04661 z m 0.0097,-0.300081 c 0.134971,-0.03382 0.139413,-0.0986 0.0078,-0.114065 -0.05223,-0.0061 -0.07873,0.0022 -0.06702,0.02116 0.03583,0.05797 -0.03628,0.06658 -0.168117,0.02007 -0.07201,-0.0254 -0.143422,-0.03847 -0.158691,-0.02903 -0.05178,0.03202 -0.02808,0.108602 0.04216,0.136065 0.06958,0.02721 0.117934,0.0224 0.343853,-0.0342 z M 4.607003,14.285002 c -0.036348,-0.12023 -0.076292,-0.135697 -0.076292,-0.02952 0,0.06958 0.014655,0.09944 0.048744,0.09944 0.036025,0 0.043191,-0.01817 0.027568,-0.06992 z m 0.2616919,-0.225125 c 0.033184,-0.06827 0.054102,-0.134167 0.046484,-0.14644 -0.018335,-0.02971 -0.1723845,0.03701 -0.2213347,0.09588 -0.041513,0.0499 -0.053134,0.227728 -0.017238,0.263597 0.031312,0.03131 0.1225627,-0.06988 0.1921015,-0.213039 z m 3.4533329,-0.10413 c 0,-0.01444 -0.0266,-0.05031 -0.05907,-0.07972 -0.06962,-0.06301 -0.124028,-0.01148 -0.06411,0.06072 0.04061,0.04896 0.123176,0.06169 0.123176,0.01899 z m 0.158497,-0.152031 c 0.01924,-0.05213 0.0084,-0.08959 -0.04332,-0.149719 -0.06017,-0.06993 -0.07989,-0.07605 -0.154237,-0.04778 -0.10586,0.04025 -0.106351,0.06626 -0.0032,0.188452 0.09182,0.109119 0.162959,0.11232 0.201089,0.0091 z m -0.3892,-0.333166 c 0.143442,-0.09399 0.127341,-0.198203 -0.03828,-0.247739 -0.05158,-0.01543 -0.08245,0.0017 -0.134281,0.07448 -0.03699,0.05198 -0.0788,0.134601 -0.09285,0.183596 -0.02537,0.08836 -0.02466,0.08889 0.0806,0.06514 0.05836,-0.01316 0.141543,-0.04713 0.184806,-0.07548 z M 4.5617845,13.080792 c 0,-0.01709 -0.027955,-0.03107 -0.062172,-0.03107 -0.034217,0 -0.062172,0.01398 -0.062172,0.03107 0,0.01709 0.027955,0.03108 0.062172,0.03108 0.034217,0 0.062172,-0.01398 0.062172,-0.03108 z m 0.1121038,-0.292715 c 0.0093,-0.02426 -0.00671,-0.08019 -0.035638,-0.124306 -0.047452,-0.07237 -0.041513,-0.09386 0.023242,-0.08432 0.012073,0.0018 -0.00678,-0.0455 -0.0419,-0.105087 -0.067034,-0.113611 -0.1144602,-0.130075 -0.2168476,-0.07528 -0.076582,0.04098 -0.2911704,-0.05406 -0.3970892,-0.175878 -0.038478,-0.04426 -0.074691,-0.07568 -0.080469,-0.06982 -0.00581,0.0059 0.018206,0.09814 0.053327,0.205066 0.049325,0.150223 0.086615,0.208502 0.1640819,0.25638 0.055135,0.03408 0.1168297,0.06197 0.137089,0.06197 0.020272,0 0.088274,0.03496 0.1511568,0.07769 0.1281537,0.08709 0.2178032,0.09947 0.2430853,0.03359 z m 5.8530727,-1.107529 c 0.0729,-0.08645 0.123842,-0.165885 0.113215,-0.176515 -0.01065,-0.01063 -0.07857,0.0222 -0.150989,0.07296 -0.09035,0.06333 -0.134739,0.118716 -0.141492,0.176515 -0.01427,0.122292 0.0297,0.104383 0.179266,-0.07296 z m -1.0920112,-0.43132 c 0.0077,-0.02331 -0.0039,-0.03496 -0.02718,-0.02719 -0.02247,0.0075 -0.04694,0.03195 -0.05436,0.05439 -0.0077,0.02331 0.0039,0.03496 0.02718,0.02719 0.02247,-0.0075 0.04694,-0.03195 0.05436,-0.05439 z M 1.6716826,10.90447 c 0,-0.03721 -0.087661,-0.07711 -0.1132208,-0.05155 -0.02718,0.02721 0.018916,0.0836 0.068435,0.0836 0.024598,0 0.044805,-0.01442 0.044805,-0.03205 z m 8.5415504,-0.897968 c 0.06456,-0.03293 0.136483,-0.0829 0.159834,-0.1110394 0.02337,-0.02814 0.09411,-0.07751 0.157239,-0.109715 0.109637,-0.05594 0.175373,-0.142943 0.136992,-0.181325 -0.0099,-0.0099 -0.08015,0.0043 -0.156109,0.03167 -0.07597,0.02732 -0.138122,0.03659 -0.138122,0.02061 0,-0.01599 -0.01336,-0.02079 -0.0297,-0.01069 -0.01633,0.0101 -0.02305,0.03571 -0.01491,0.05692 0.0081,0.0212 -0.04842,0.100579 -0.125662,0.176395 -0.195517,0.1918834 -0.192321,0.2306374 0.01046,0.1271784 z M 3.3964572,9.7244836 c 0.021241,-0.03439 -0.1371599,-0.106252 -0.167452,-0.07596 -0.019368,0.0194 0.082884,0.107097 0.1249063,0.107097 0.012848,0 0.031958,-0.01401 0.042546,-0.03114 z m 0.00762,-0.173579 c -0.010007,-0.01004 -0.070023,-0.02993 -0.1332864,-0.0442 -0.06327,-0.01427 -0.1028328,-0.01423 -0.087919,9.3e-5 0.023177,0.02227 0.085918,0.03956 0.2109726,0.05814 0.015688,0.0023 0.020272,-0.004 0.010265,-0.01402 z m 5.7570256,-0.02836 c 0.04829,-0.05818 0.0085,-0.05818 -0.09323,0 -0.07319,0.04184 -0.07386,0.04448 -0.01156,0.04551 0.03635,6.05e-4 0.08352,-0.01988 0.104801,-0.04551 z M 3.4502947,9.3017506 C 3.4321531,9.1052866 3.4105897,9.0682836 3.2788012,9.0080736 l -0.1309815,-0.05984 -0.1009994,0.108013 c -0.1189344,0.127199 -0.1266236,0.186059 -0.031054,0.23791 0.082122,0.04456 0.3668424,0.117727 0.411764,0.105811 0.017109,-0.0045 0.027374,-0.04873 0.02279,-0.09821 z m 5.4798981,0.0032 c 0.06532,-0.05982 0.100438,-0.108767 0.07806,-0.108767 -0.06908,0 -0.282222,0.133404 -0.282222,0.176642 0,0.07148 0.08166,0.04433 0.204161,-0.06787 z m 0.445128,0.01723 c 0.08942,-0.04562 0.134888,-0.09853 0.185219,-0.215526 0.0855,-0.198747 0.08501,-0.201588 -0.03073,-0.178441 -0.167904,0.03358 -0.301421,0.13862 -0.368255,0.28971 -0.03441,0.07785 -0.06262,0.146757 -0.06262,0.15313 0,0.03423 0.173681,0.0035 0.276372,-0.04887 z m -5.3157698,-0.0091 c 0.021176,-0.02117 0.062431,-0.03865 0.091677,-0.03885 0.032281,-2.17e-4 0.081947,-0.05834 0.1263073,-0.147762 0.061204,-0.123341 0.073812,-0.199448 0.077389,-0.466151 0.00452,-0.335331 -0.022467,-0.505252 -0.074988,-0.4727849 -0.017302,0.010685 -0.064045,0.071148 -0.1039821,0.1343679 -0.039899,0.06322 -0.1652053,0.207587 -0.2784325,0.320813 -0.1132272,0.113226 -0.2058658,0.213464 -0.2058658,0.222752 0,0.0093 0.015107,0.08717 0.033507,0.17307 0.023629,0.110244 0.060881,0.179251 0.1266881,0.234602 0.1040402,0.08754 0.1510665,0.09658 0.2077123,0.03993 z m 0.875164,-1.024051 c 0,-0.04801 -0.013751,-0.08729 -0.030473,-0.08729 -0.036154,0 -0.065478,0.1107812 -0.055974,0.2117162 0.00646,0.06636 0.00981,0.06769 0.046613,0.01737 0.021951,-0.02998 0.039834,-0.09378 0.039834,-0.141794 z M 6.486808,7.9065142 c -1.872e-4,-0.017089 -0.027826,0.00194 -0.061462,0.042287 -0.033636,0.040351 -0.060817,0.089296 -0.060429,0.1087673 3.809e-4,0.019472 0.02802,4.41e-4 0.061462,-0.042288 0.033443,-0.042733 0.060623,-0.091675 0.060429,-0.1087673 z"
       id="path4561"
       inkscape:connector-curvature="0" />
  </g>
</svg>
